<?xml version="1.0" encoding="utf-8"?>
<!-- Generator: Adobe Illustrator 21.0.0, SVG Export Plug-In . SVG Version: 6.00 Build 0)  -->
<svg version="1.2" baseProfile="tiny" id="图层_1"
	 xmlns="http://www.w3.org/2000/svg" xmlns:xlink="http://www.w3.org/1999/xlink" x="0px" y="0px" viewBox="17 849.8 972 1719.9"
	 xml:space="preserve">
<path fill="#FFF8EE" d="M424.2,1320.4h96.2v-21.5h106v-13.7h31.9v13.7h229.5V1278h4.7v-65h-10.6v-88.4l0.5-0.6
	c6.4-7.2,6.4-17.1,6.4-17.3v-167H772.3v4.6H351.1v3.8h-90l-79.7,35.3h-62V1320h232.1l15.4-8.4l47.7,8.2v-1.7h9.6V1320.4
	L424.2,1320.4z"/>
<rect x="119.5" y="983.6" fill="#FFC692" width="29.6" height="39.3"/>
<rect id="XMLID_255_" x="696.4" y="1224.3" fill="#FFC692" width="19.5" height="31.2"/>
<rect id="XMLID_254_" x="716.9" y="1224.3" fill="#DFFFD2" width="18.8" height="48.9"/>
<rect id="XMLID_253_" x="736.4" y="1224.3" fill="#FFC692" width="18.8" height="48.9"/>
<rect id="XMLID_252_" x="756.2" y="1224.3" fill="#B4E1F9" width="18.8" height="48.9"/>
<rect id="XMLID_251_" x="795.2" y="1224.3" fill="#B4E1F9" width="18.8" height="33.6"/>
<polygon id="XMLID_249_" fill="#B4E1F9" points="794.4,1257.8 775.6,1257.8 775.6,1227.1 781.6,1227.1 781.6,1224.3 794.4,1224.3 
	"/>
<polygon fill="#B4E1F9" points="841.2,1212.2 839.5,1212.2 814.8,1212.2 814.8,1220.6 814.8,1257.8 839.5,1257.8 839.5,1220.6 
	841.2,1220.6 "/>
<polygon id="XMLID_247_" fill="#B4E1F9" points="696.4,1256.5 716.1,1256.5 716.1,1274.1 734.6,1274.1 734.6,1282 728.2,1282 
	728.2,1299.7 708.6,1299.7 708.6,1284.4 696.4,1284.4 "/>
<rect id="XMLID_246_" x="775.7" y="1274.1" fill="#FFC692" width="38.2" height="25.6"/>
<rect id="XMLID_245_" x="814.8" y="1274.1" fill="#FFC692" width="27" height="25.6"/>
<rect id="XMLID_244_" x="598.9" y="1224.3" fill="#B4E1F9" width="28.2" height="32.5"/>
<rect id="XMLID_243_" x="579" y="1224.3" fill="#FFC692" width="18.9" height="32.5"/>
<rect id="XMLID_242_" x="530.9" y="1224.3" fill="#FFC692" width="28.6" height="32.5"/>
<rect id="XMLID_241_" x="462.5" y="1224.3" fill="#FFC692" width="17.6" height="42"/>
<rect id="XMLID_240_" x="443" y="1224.3" fill="#FFC692" width="18.6" height="42"/>
<rect id="XMLID_239_" x="423.2" y="1224.3" fill="#FFC692" width="18.6" height="42"/>
<polygon id="XMLID_238_" fill="#FFC692" points="578.1,1256.9 560.5,1256.9 560.5,1224.3 573,1224.3 573,1226.2 578.1,1226.2 "/>
<polygon id="XMLID_237_" fill="#FFC692" points="521.1,1224.3 481.1,1224.3 481.1,1226.2 481,1226.2 481,1266.3 500.7,1266.3 
	500.7,1241.4 521.1,1241.4 "/>
<polygon fill="#FFC692" points="408.7,1224.3 407.5,1224.3 395.8,1224.3 395.8,1239.6 407.5,1239.6 407.5,1254.1 383.3,1254.1 
	383.3,1266.3 407.5,1266.3 408.7,1266.3 422.4,1266.3 422.4,1224.3 "/>
<polygon id="XMLID_236_" fill="#FFC692" points="423.2,1267.1 423.2,1287.2 428.2,1287.2 428.2,1308.2 423.2,1308.2 423.2,1321.1 
	441.9,1321.1 441.9,1267.1 "/>
<polygon id="XMLID_235_" fill="#FFC692" points="461.5,1267.1 461.5,1287.2 456.5,1287.2 456.5,1308.2 461.5,1308.2 461.5,1321.1 
	442.8,1321.1 442.8,1267.1 "/>
<polygon id="XMLID_234_" fill="#FFC692" points="500.7,1267.1 483,1267.1 483,1267.2 462.5,1267.2 462.5,1322.1 487,1322.1 
	487,1288.1 500.7,1288.1 "/>
<polygon id="XMLID_233_" fill="#FFC692" points="539.9,1261.5 539.9,1257.8 501.6,1257.8 501.6,1277.5 530.8,1277.5 530.8,1299.7 
	539.9,1299.7 "/>
<polygon id="XMLID_232_" fill="#FFC692" points="540.8,1257.8 540.8,1275.6 545,1275.6 545,1299.7 559.5,1299.7 559.5,1257.8 "/>
<rect id="XMLID_231_" x="560.4" y="1257.8" fill="#DDCDBF" width="66.9" height="21.5"/>
<polygon id="XMLID_230_" fill="#FFC692" points="391.1,1267.2 422.4,1267.2 422.4,1319.3 414.7,1319.3 "/>
<polygon id="XMLID_229_" fill="#FFC692" points="804.5,1081.7 813.9,1081.7 813.9,1133.7 788.6,1133.7 788.6,1127.8 792.7,1127.8 
	792.7,1093.7 804.7,1093.7 "/>
<polygon id="XMLID_228_" fill="#FFC692" points="814.8,1081.7 833.5,1081.7 833.5,1134.8 823.6,1134.8 823.6,1131.9 814.8,1131.9 
	"/>
<rect id="XMLID_227_" x="834.5" y="1081.7" fill="#FFC692" width="54.9" height="17.7"/>
<rect id="XMLID_226_" x="834.5" y="1062.1" fill="#FFC692" width="54.9" height="18.6"/>
<rect id="XMLID_225_" x="770.2" y="1062.1" fill="#FF9388" width="63.3" height="18.6"/>
<rect id="XMLID_224_" x="770.2" y="1042.6" fill="#FF9388" width="57.3" height="18.6"/>
<polygon id="XMLID_223_" fill="#FF9388" points="815.7,1022.1 815.7,1036 806.9,1036 806.9,1022.1 770.2,1022.1 770.2,1041.5 
	827.5,1041.5 827.5,1022.1 "/>
<polygon id="XMLID_222_" fill="#FFC692" points="889.4,1050 847.5,1050 847.5,994 828.4,994 828.4,1061.1 847.5,1061.1 
	847.5,1061.1 889.4,1061.1 "/>
<rect id="XMLID_221_" x="770.2" y="994" fill="#FFC692" width="57.3" height="27"/>
<polygon id="XMLID_220_" fill="#D7DFE2" points="800.9,939.1 800.9,953.4 803.9,953.4 803.9,981.9 827.5,981.9 827.5,939.1 "/>
<rect id="XMLID_219_" x="828.4" y="939.1" fill="#D7DFE2" width="20" height="54.1"/>
<rect id="XMLID_218_" x="849.3" y="939.1" fill="#FFDC78" stroke="#DCDDDD" stroke-width="0.235" stroke-miterlimit="10" width="19.1" height="59.7"/>
<rect id="XMLID_217_" x="869.3" y="939.1" fill="#FFDC78" stroke="#DCDDDD" stroke-width="0.235" stroke-miterlimit="10" width="20" height="59.7"/>
<polygon id="XMLID_216_" fill="#D7DFE2" points="733.7,982.7 736.5,982.7 736.5,943.7 717,943.7 717,993.2 733.7,993.2 "/>
<rect id="XMLID_215_" x="701.1" y="943.7" fill="#D7DFE2" width="14.9" height="49.4"/>
<rect id="XMLID_214_" x="697.4" y="987.4" fill="#FFFFFF" stroke="#DCDDDD" stroke-width="0.235" stroke-miterlimit="10" width="7.9" height="5.6"/>
<rect id="XMLID_213_" x="677.8" y="943.7" fill="#B4E1F9" width="18.6" height="49.4"/>
<rect id="XMLID_212_" x="658.2" y="943.7" fill="#B4E1F9" width="18.6" height="49.4"/>
<polygon id="XMLID_211_" fill="#93E2D5" points="651.5,990.2 657.3,990.2 657.3,943.7 634.8,943.7 634.8,993.2 651.5,993.2 "/>
<polygon id="XMLID_210_" fill="#D7DFE2" points="612,970.7 612,943.7 579.9,943.7 579.9,993.2 615.7,993.2 615.7,970.7 "/>
<rect id="XMLID_209_" x="560.4" y="943.7" fill="#D7DFE2" width="18.6" height="49.4"/>
<rect id="XMLID_208_" x="540.8" y="943.7" fill="#D7DFE2" width="18.6" height="49.4"/>
<rect id="XMLID_207_" x="510.9" y="956.7" fill="#D7DFE2" width="28.9" height="36.3"/>
<rect id="XMLID_206_" x="482.1" y="943.7" fill="#D7DFE2" width="18.6" height="49.4"/>
<polygon id="XMLID_205_" fill="#D7DFE2" points="481.1,943.7 466.2,943.7 466.2,970.2 462.5,970.2 462.5,993.2 472.3,993.2 
	472.3,993.2 481.1,993.2 "/>
<rect id="XMLID_204_" x="442.8" y="943.7" fill="#D7DFE2" width="18.6" height="49.4"/>
<rect id="XMLID_203_" x="423.3" y="943.7" fill="#D7DFE2" width="18.6" height="49.4"/>
<rect id="XMLID_202_" x="403.7" y="943.7" fill="#D7DFE2" width="18.6" height="49.4"/>
<polygon id="XMLID_201_" fill="#D7DFE2" points="402.7,943.7 389.7,943.7 389.7,977.1 385.1,977.1 385.1,993.2 396.1,993.2 
	396.1,993.2 402.7,993.2 "/>
<path id="XMLID_200_" fill="#D7DFE2" d="M368.3,943.7h-18.2v4.7h-6v52l5.3,7.6c6.3-7,18.5-16.9,18.5-16.9v-0.2h0.3v-47.2H368.3z"/>
<polygon id="XMLID_199_" fill="#D7DFE2" points="332.9,948.3 305.9,948.3 305.9,982.3 321.3,982.3 321.3,987.4 332.9,987.4 
	332.9,982.3 332.9,982.3 "/>
<rect id="XMLID_198_" x="286.3" y="948.3" fill="#FFC692" width="18.6" height="39.1"/>
<rect id="XMLID_197_" x="265.9" y="948.3" fill="#FFC692" width="19.5" height="51.8"/>
<polygon id="XMLID_196_" fill="#FFC692" points="261.4,1001 305,1001 305,1022.1 273.1,1033.7 "/>
<polygon id="XMLID_195_" fill="#FFC692" points="305.9,1001 343.4,1001 348.7,1008.7 340.9,1017.9 338.8,1016.5 334.7,1021.9 
	305.9,1021.9 "/>
<path id="XMLID_194_" fill="#FFC692" d="M273.5,1034.5l32.1-11.6h31.8c0,0-8.2,11.6-12.4,19.9l-14.9,0.2l-30.4,10.8l-3.2-8.8
	l0.9-0.3L273.5,1034.5z"/>
<path id="XMLID_193_" fill="#FFC692" d="M280.2,1054.9l29.8-11.2h14.1c0,0-5.6,10.8-11,25.6c0,0-2.6,8-3.8,14.1c0,0-13-2.8-19.9-2.6
	L280.2,1054.9z"/>
<path id="XMLID_192_" fill="#D7DFE2" d="M461.6,1021.9h-40.1v1.9H416v-1.9c0,0-4.7,0.3-8.5,4.2c-3.8,3.8-6,15.5-6,15.5h60.1V1021.9z
	"/>
<path id="XMLID_191_" fill="#D7DFE2" d="M461.6,1042.5v18.6h-68.1c0,0,6.8-14.6,7.6-18.6H461.6z"/>
<polygon id="XMLID_190_" fill="#FFD7ED" points="508.6,1036.5 493.2,1036.5 493.2,1040.2 481.1,1040.2 481.1,1021.9 462.5,1021.9 
	462.5,1062 453.1,1062 453.1,1081.7 471.4,1081.7 471.4,1081.7 508.6,1081.7 "/>
<polygon id="XMLID_189_" fill="#FFD7ED" points="539.9,1021.9 515.2,1021.9 515.2,1024.7 509.6,1024.7 509.6,1081.7 519.2,1081.7 
	519.2,1081.7 539.9,1081.7 "/>
<rect id="XMLID_188_" x="540.8" y="1021.9" fill="#FFD7ED" width="18.6" height="59.7"/>
<rect id="XMLID_187_" x="560.4" y="1021.9" fill="#FFD7ED" width="18.6" height="59.7"/>
<rect id="XMLID_186_" x="579.9" y="1021.9" fill="#D7DFE2" width="18.6" height="59.7"/>
<rect id="XMLID_185_" x="599.9" y="1082.6" fill="#93E2D5" width="15.8" height="51.2"/>
<rect id="XMLID_184_" x="618.2" y="1082.6" fill="#D7DFE2" width="19.4" height="51.2"/>
<rect id="XMLID_183_" x="599.5" y="1022.1" fill="#D7DFE2" width="58.8" height="19.4"/>
<rect id="XMLID_182_" x="599.5" y="1042.5" fill="#D7DFE2" width="58.8" height="18.6"/>
<rect id="XMLID_181_" x="599.5" y="1062" fill="#D7DFE2" width="58.8" height="19.5"/>
<polygon id="XMLID_180_" fill="#D7DFE2" points="656.4,1120.8 656.4,1114.5 658.2,1114.5 658.2,1082.6 638.7,1082.6 638.7,1133.7 
	658.2,1133.7 658.2,1120.8 "/>
<polygon id="XMLID_179_" fill="#93E2D5" points="580,1082.6 580,1131.6 586.5,1131.6 586.5,1133.7 599,1133.7 599,1082.6 "/>
<rect id="XMLID_178_" x="560.4" y="1082.6" fill="#D7DFE2" width="18.6" height="51.2"/>
<polygon id="XMLID_177_" fill="#D7DFE2" points="546.9,1082.6 546.9,1102.1 539.9,1102.1 539.9,1133.7 559.5,1133.7 559.5,1082.6 
	"/>
<polygon id="XMLID_176_" fill="#D7DFE2" points="500.7,1082.6 481.6,1082.6 481.6,1131.6 481.6,1131.6 481.6,1133.7 495.2,1133.7 
	495.2,1131.6 500.7,1131.6 "/>
<rect id="XMLID_175_" x="462.5" y="1082.6" fill="#D7DFE2" width="18.2" height="51.2"/>
<rect id="XMLID_174_" x="443.1" y="1082.6" fill="#D7DFE2" width="18.5" height="51.2"/>
<rect id="XMLID_173_" x="423.3" y="1082.6" fill="#D7DFE2" width="18.5" height="51.2"/>
<rect id="XMLID_172_" x="403.7" y="1101.2" fill="#D7DFE2" width="18.5" height="32.5"/>
<path id="XMLID_171_" fill="#D7DFE2" d="M422.4,1082.6h-41.6c0,0-8.7,12.9-13.4,17.7h55V1082.6z"/>
<path id="XMLID_170_" fill="#D7DFE2" d="M366.6,1101.2h36.3v32.5h-29.8c0,0-6-11.3-8.7-13.7c0,0-6.6-8.6-7.5-8.8
	C357,1111.2,366.2,1102,366.6,1101.2z"/>
<polygon id="XMLID_169_" fill="#FFC692" points="753.8,1081.7 783.6,1081.7 783.6,1092.8 775.7,1092.8 775.7,1108.2 753.7,1108.2 
	"/>
<rect id="XMLID_168_" x="758.3" y="1109.1" fill="#FFC692" width="17.4" height="24.6"/>
<polygon id="XMLID_167_" fill="#FFC692" points="735.6,1081.7 752.7,1081.7 752.7,1109.1 757.3,1109.1 757.3,1133.7 735.6,1133.7 
	"/>
<rect id="XMLID_166_" x="834.5" y="1100.3" fill="#FFC692" width="18.6" height="34.6"/>
<path id="XMLID_165_" fill="#FFC692" d="M889.3,1100.5H854v34.2h8.8c0,0,12.1,0,20.9-11.4C883.9,1123.2,890.6,1116,889.3,1100.5z"/>
<polygon id="XMLID_164_" fill="#FFC692" points="244,1268 256.1,1272.7 246.2,1304.6 246.2,1321.2 227.6,1321.2 227.6,1298.4 "/>
<path id="XMLID_163_" fill="#FFC692" d="M257.1,1273c0,0,10.4,2.9,12.1,2.9l-4.3,25.6v19.6H247v-16.4L257.1,1273z"/>
<path id="XMLID_162_" fill="#FFC692" d="M230.3,1260.3c0,0,10.8,6.8,12.9,7.2l-16.6,30.7v22.9H208v-28.5L230.3,1260.3z"/>
<path id="XMLID_161_" fill="#FFC692" d="M218.6,1250.7c0,0,9.6,8.6,11.1,8.9l-22.6,32.8v28.8h-18.6v-38.8L218.6,1250.7z"/>
<polygon id="XMLID_160_" fill="#93E2D5" points="208.8,1240.5 188.3,1256.9 188.3,1257.8 167.5,1257.8 167.5,1279.7 181.5,1279.7 
	181.5,1285.3 187.5,1285.3 187.5,1282.1 218.1,1250.4 "/>
<path id="XMLID_159_" fill="#93E2D5" d="M118.4,1217.7H187l0.9,1.8h8.4c0,0,4.7,9.7,7.1,13.1l-21.1,13.9h-46.4v-9.4h-17.4
	L118.4,1217.7L118.4,1217.7z"/>
<rect id="XMLID_158_" x="118.4" y="1179.5" fill="#B4E1F9" width="69" height="18.6"/>
<rect id="XMLID_157_" x="145.6" y="1139.4" fill="#93E2D5" width="41.9" height="22.8"/>
<rect id="XMLID_156_" x="133.5" y="1062" fill="#FFC692" width="74.1" height="18.8"/>
<rect id="XMLID_155_" x="133.5" y="1081.5" fill="#DFFFD2" width="74.1" height="18.8"/>
<polygon id="XMLID_154_" fill="#FFC692" points="200.9,1129.1 133.5,1129.1 133.5,1101.1 207.6,1101.1 207.6,1119.5 "/>
<rect id="XMLID_153_" x="118.4" y="1198.9" fill="#B4E1F9" width="69" height="16.4"/>
<polygon id="XMLID_152_" fill="#FFC692" points="135.7,1022.9 196.1,1022.9 207.6,1054.8 207.6,1055.6 202.8,1055.6 202.8,1061.1 
	135.7,1061.1 "/>
<polygon id="XMLID_151_" fill="#FFC692" points="190.8,1008.4 187.6,1008.3 187.6,1003.8 187.6,1002.5 187.6,1001.9 188.5,1001.9 
	181.6,982.9 149.7,982.9 149.6,1021.9 196.1,1021.9 "/>
<rect id="XMLID_150_" x="869.3" y="1022" fill="none" stroke="#DCDDDD" stroke-width="0.3" stroke-miterlimit="10" width="12.7" height="10.7"/>
<rect id="XMLID_149_" x="840.8" y="1245.2" fill="none" stroke="#DCDDDD" stroke-width="0.3" stroke-miterlimit="10" width="10.8" height="12.5"/>
<rect id="XMLID_148_" x="840.8" y="1230.5" fill="none" stroke="#DCDDDD" stroke-width="0.3" stroke-miterlimit="10" width="10.8" height="12.5"/>
<rect id="XMLID_147_" x="487.9" y="1289" fill="#FFFFFF" stroke="#DCDDDD" stroke-width="0.235" stroke-miterlimit="10" width="11.6" height="10.7"/>
<rect id="XMLID_146_" x="383.3" y="1227.1" fill="none" stroke="#DCDDDD" stroke-width="0.3" stroke-miterlimit="10" width="11.6" height="12.5"/>
<rect id="XMLID_145_" x="383.3" y="1240.6" fill="none" stroke="#DCDDDD" stroke-width="0.3" stroke-miterlimit="10" width="11.6" height="12.5"/>
<rect id="XMLID_144_" x="135.8" y="1274.5" fill="none" stroke="#DCDDDD" stroke-width="0.3" stroke-miterlimit="10" width="13.3" height="10.7"/>
<rect id="XMLID_143_" x="212.2" y="1163" fill="none" stroke="#DCDDDD" stroke-width="0.3" stroke-miterlimit="10" width="12.5" height="10.7"/>
<rect id="XMLID_142_" x="659.1" y="1086.7" fill="#FFFFFF" stroke="#DCDDDD" stroke-width="0.235" stroke-miterlimit="10" width="11.3" height="13.3"/>
<rect id="XMLID_141_" x="659.1" y="1101.2" fill="#FFFFFF" stroke="#DCDDDD" stroke-width="0.235" stroke-miterlimit="10" width="11.3" height="13.6"/>
<rect id="XMLID_140_" x="791.4" y="954.4" fill="none" stroke="#DCDDDD" stroke-width="0.3" stroke-miterlimit="10" width="11.6" height="10.7"/>
<rect id="XMLID_139_" x="159.6" y="1286.2" fill="none" stroke="#DCDDDD" stroke-width="0.3" stroke-miterlimit="10" width="28" height="35"/>
<rect id="XMLID_138_" x="306" y="988.4" fill="none" stroke="#DCDDDD" stroke-width="0.3" stroke-miterlimit="10" width="10.7" height="11.6"/>
<polygon id="XMLID_137_" fill="#FFC692" points="310.1,1301.7 338.1,1301.7 345,1314.1 345,1321.2 310.1,1321.2 "/>
<polygon id="XMLID_136_" fill="none" stroke="#DCDDDD" stroke-width="0.3" stroke-miterlimit="10" points="328,1260.2 334.4,1256.8 
	366.3,1313.3 351.9,1322.1 320.1,1264.7 "/>
<polygon id="XMLID_135_" fill="none" stroke="#DCDDDD" stroke-width="0.3" stroke-miterlimit="10" points="374.5,1026.6 
	359.2,1053.2 349.2,1053.7 334.9,1077.7 341.7,1081.3 357.3,1054.1 367.9,1052.6 381.3,1030.1 "/>
<polygon id="XMLID_134_" fill="none" stroke="#DCDDDD" stroke-width="0.3" stroke-miterlimit="10" points="182.7,981.9 197.2,976.6 
	218.4,1034.1 204,1039.7 "/>
<path id="XMLID_133_" fill="#C9CACA" d="M424.2,1320.4h96.2v-21.5h106v-13.7h31.9v13.7h229.5V1278h4.7v-65h-10.6v-88.4l0.5-0.6
	c6.4-7.2,6.4-17.1,6.4-17.3v-167H772.3v4.6H351.1v3.8h-90l-79.7,35.3h-62V1320h232.1l15.4-8.4l47.7,8.2v-1.7h9.6V1320.4
	L424.2,1320.4z M418.1,1324.4l-50.6-8.8l-15.1,8.1H115.8V980.1h65l79.5-35.3h87.1V941h421.4v-4.6h123.3v170.4
	c0,0.5,0.1,10.8-6.9,19.1v83.5h10.6v72.1h-4.7v20.9H654.6v-13.7H630v13.7H524v21.5H420.7v-1.8h-2.5L418.1,1324.4L418.1,1324.4z"/>
<rect id="XMLID_132_" x="118.4" y="1297.9" fill="none" stroke="#DCDDDD" stroke-width="0.3" stroke-miterlimit="10" width="30.7" height="12.1"/>
<polygon id="XMLID_110_" fill="#D7DFE2" points="392.8,1062 384.7,1081.7 452.2,1081.7 452.2,1062 "/>
<path id="XMLID_109_" fill="#FFC692" d="M271.7,1266.9c0,0,11.6,1.8,22.1,0.8l0.8,8.7h9.4l0.1,24.3h-38L271.7,1266.9z"/>
<path id="XMLID_108_" fill="#FFC692" d="M294.6,1267.6c0,0,10.6-1,21.7-5l21.1,38h-32.5v-25.2h-9.6L294.6,1267.6z"/>
<g id="XMLID_102_">
	<g id="XMLID_104_">
		<path id="XMLID_107_" fill="#666666" d="M376.1,1036.9c2.4-2.6,3.7-6.2,3.3-9.9c-0.7-5.9-5.3-10.6-11.2-11.2
			c-7.7-0.9-14.3,5.1-14.3,12.8c0,3.3,1.3,6.4,3.3,8.6l7.3,9.7c1.1,1.3,3.1,1.3,4,0L376.1,1036.9z"/>
		<g id="XMLID_105_">
			<path id="XMLID_106_" fill="#FFFFFF" d="M365.3,1022.3c0.9,0,1.5-0.7,1.5-1.5s-0.7-1.5-1.5-1.5c-0.9,0-1.5,0.7-1.5,1.5
				S364.4,1022.3,365.3,1022.3L365.3,1022.3z M372.6,1023.9h-2.2c-0.4,0-1.1,0.2-1.5,0.4l-2.2,2v-0.7c0-1.3-1.8-1.3-2,0v2.4l0,0
				l-1.8,1.8c-0.2,0.2-0.2,0.2-0.4,0.2h-1.1c-1.1,0-1.8,0.9-1.8,1.8c0,0.9,0.7,2,1.8,2c0,0,1.5,0,2,0s1.1,0,1.5-0.7l5.9-5.5
				c0,0,0.2,0,0.4,0c0,0,0.9,0,1.5,0c0.6,0,1.5-0.7,1.8-1.8C374.1,1024.5,373.2,1023.9,372.6,1023.9L372.6,1023.9z"/>
		</g>
	</g>
	<path id="XMLID_103_" fill="#FFFFFF" d="M365.3,1030.3L365.3,1030.3c-0.9,0-1.5-0.7-1.5-1.5v-4c0-0.9,0.7-1.5,1.5-1.5l0,0
		c0.9,0,1.5,0.7,1.5,1.5v4C366.9,1029.4,366.2,1030.3,365.3,1030.3z"/>
</g>
<g id="XMLID_96_">
	<g id="XMLID_98_">
		<path id="XMLID_101_" fill="#666666" d="M211.4,1000.9c2.4-2.6,3.7-6.2,3.3-9.9c-0.7-5.9-5.3-10.6-11.2-11.2
			c-7.7-0.9-14.3,5.1-14.3,12.8c0,3.3,1.3,6.4,3.3,8.6l7.3,9.7c1.1,1.3,3.1,1.3,4,0L211.4,1000.9z"/>
		<g id="XMLID_99_">
			<path id="XMLID_100_" fill="#FFFFFF" d="M200.6,986.6c0.9,0,1.5-0.7,1.5-1.5c0-0.9-0.7-1.5-1.5-1.5c-0.9,0-1.5,0.7-1.5,1.5
				S199.7,986.6,200.6,986.6L200.6,986.6z M207.9,987.9h-2.2c-0.4,0-1.1,0.2-1.5,0.4l-2.2,2v-0.4c0-1.3-1.8-1.3-2,0v2.4l0,0
				l-1.8,1.8c-0.2,0.2-0.2,0.2-0.4,0.2h-1.1c-1.1,0-1.8,0.9-1.8,1.8c0,0.9,0.7,2,1.8,2c0,0,1.5,0,2,0c0.4,0,1.1,0,1.5-0.7l5.9-5.5
				c0,0,0.2,0,0.4,0c0,0,0.9,0,1.5,0c0.7,0,1.5-0.7,1.8-1.8C209.4,988.6,208.6,987.9,207.9,987.9L207.9,987.9z"/>
		</g>
	</g>
	<path id="XMLID_97_" fill="#FFFFFF" d="M200.6,994.3L200.6,994.3c-0.9,0-1.5-0.7-1.5-1.5v-4c0-0.9,0.7-1.5,1.5-1.5l0,0
		c0.9,0,1.5,0.7,1.5,1.5v4C202.2,993.6,201.5,994.3,200.6,994.3z"/>
</g>
<g id="XMLID_90_">
	<g id="XMLID_92_">
		<path id="XMLID_95_" fill="#666666" d="M352.6,1281.2c2.4-2.6,3.7-6.2,3.3-9.9c-0.7-5.9-5.3-10.6-11.2-11.2
			c-7.7-0.9-14.3,5.1-14.3,12.8c0,3.3,1.3,6.4,3.3,8.6l7.3,9.7c1.1,1.3,3.1,1.3,4,0L352.6,1281.2z"/>
		<g id="XMLID_93_">
			<path id="XMLID_94_" fill="#FFFFFF" d="M341.8,1266.9c0.9,0,1.5-0.7,1.5-1.5c0-0.8-0.7-1.5-1.5-1.5c-0.9,0-1.5,0.7-1.5,1.5
				C340.3,1266.2,341,1266.9,341.8,1266.9L341.8,1266.9z M349.1,1268.2h-2.2c-0.4,0-1.1,0.2-1.5,0.4l-2.2,2v-0.7c0-1.3-1.8-1.3-2,0
				v2.4l0,0l-1.8,1.8c-0.2,0.2-0.2,0.2-0.4,0.2h-1.1c-1.1,0-1.8,0.9-1.8,1.8c0,0.9,0.7,2,1.8,2c0,0,1.5,0,2,0c0.4,0,1.1,0,1.5-0.7
				l5.9-5.5c0,0,0.2,0,0.4,0c0,0,0.9,0,1.5,0c0.6,0,1.5-0.7,1.8-1.8C350.6,1268.9,349.8,1268.2,349.1,1268.2L349.1,1268.2z"/>
		</g>
	</g>
	<path id="XMLID_91_" fill="#FFFFFF" d="M341.8,1274.6L341.8,1274.6c-0.9,0-1.5-0.7-1.5-1.5v-4c0-0.9,0.7-1.5,1.5-1.5l0,0
		c0.9,0,1.5,0.7,1.5,1.5v4C343.4,1274,342.7,1274.6,341.8,1274.6z"/>
</g>
<g id="XMLID_86_">
	<path id="XMLID_89_" fill="#666666" d="M183.6,1295.9c2.4-2.6,3.7-6.2,3.3-9.9c-0.7-5.9-5.3-10.6-11.2-11.2
		c-7.7-0.9-14.3,5.1-14.3,12.8c0,3.3,1.3,6.4,3.3,8.6l7.3,9.7c1.1,1.3,3.1,1.3,4,0L183.6,1295.9z"/>
	<g id="XMLID_87_">
		<path id="XMLID_88_" fill="#FFFFFF" d="M168,1281.4c0-0.7,0.4-1.1,1.1-1.1s1.1,0.4,1.1,1.1s-0.4,1.1-1.1,1.1S168,1282,168,1281.4
			L168,1281.4z M169.1,1282.9L169.1,1282.9c-0.9,0-1.5,0.2-2,0.9c-0.5,0.7-0.9,1.3-0.9,2v1.3c0,0.2,0.2,0.7,0.7,0.7
			c0.2,0,0.7-0.2,0.7-0.7v-1.3c0-0.4,0-0.9,0.4-1.1v2.9l0,0v4.8c0,0.2,0.2,0.7,0.7,0.7c0.4,0,0.4-0.2,0.4-0.7v-4.4h0.2v4.4
			c0,0.2,0.2,0.7,0.7,0.7s0.7-0.2,0.7-0.7v-4.8l0,0v-2.9c0.2,0.2,0.4,0.7,0.4,1.1v1.3c0,0.2,0.2,0.7,0.7,0.7c0.4,0,0.7-0.2,0.7-0.7
			v-1.3C172,1284,170.7,1282.9,169.1,1282.9L169.1,1282.9z M181.9,1286.7c0-0.2,0-0.2-0.2-0.4c-0.4-1.3-1.3-3.3-3.3-3.3
			s-2.9,2-3.3,3.3c0,0.2-0.2,0.4-0.2,0.4c0,0.2,0,0.7,0.2,0.7h0.2c0.2,0,0.4,0,0.4-0.2c0-0.2,0.2-0.4,0.2-0.7
			c0.4-1.1,0.9-1.8,1.3-2.2l-1.5,3.7c-0.2,0.4,0,0.9,0.7,0.9h0.4v3.3c0,0.2,0.2,0.7,0.7,0.7c0.4,0,0.4-0.2,0.4-0.7v-3.3h0.2v3.3
			c0,0.2,0.2,0.7,0.4,0.7s0.7-0.2,0.7-0.7v-3.3h0.4c0.4,0,0.9-0.4,0.7-0.9l-1.5-3.7c0.4,0.4,0.9,1.3,1.3,2.2c0,0.2,0.2,0.4,0.2,0.7
			c0,0.2,0.2,0.2,0.4,0.2h0.2C181.9,1287.3,182.1,1287.1,181.9,1286.7L181.9,1286.7z M178.4,1282.5c0.7,0,1.1-0.4,1.1-1.1
			s-0.4-1.1-1.1-1.1s-1.1,0.4-1.1,1.1C177.3,1282,177.7,1282.5,178.4,1282.5L178.4,1282.5z M173.5,1279.8c-0.2,0-0.2,0-0.2,0.2v12.3
			c0,0.2,0,0.2,0.2,0.2s0.2,0,0.2-0.2v-12.2C173.7,1280.1,173.7,1279.8,173.5,1279.8L173.5,1279.8z"/>
	</g>
</g>
<g>
	<g id="XMLID_84_">
		<path id="XMLID_85_" fill="#666666" d="M153.6,1268.2c2.4-2.6,3.7-6.2,3.3-9.9c-0.7-5.9-5.3-10.6-11.2-11.2
			c-7.7-0.9-14.3,5.1-14.3,12.8c0,3.3,1.3,6.4,3.3,8.6l7.3,9.7c1.1,1.3,3.1,1.3,4,0L153.6,1268.2z"/>
	</g>
	<g>
		<path fill="#FFFFFF" d="M150.5,1253.6v-0.7H138v0.7h0.7v10.6H138v0.7h12.5v-0.7h-0.7v-10.6H150.5L150.5,1253.6z M141.9,1257.6v3.3
			h-0.7v-3.3h-0.7l0.9-1.3l0.9,1.3H141.9L141.9,1257.6z M149.2,1264.2h-4.6v-10.6h4.6V1264.2L149.2,1264.2z"/>
	</g>
</g>
<g>
	<g id="XMLID_82_">
		<path id="XMLID_83_" fill="#666666" d="M228.3,1158.6c2.4-2.6,3.7-6.2,3.3-9.9c-0.7-5.9-5.3-10.6-11.2-11.2
			c-7.7-0.9-14.3,5.1-14.3,12.8c0,3.3,1.3,6.4,3.3,8.6l7.3,9.7c1.1,1.3,3.1,1.3,4,0L228.3,1158.6z"/>
	</g>
	<g>
		<path fill="#FFFFFF" d="M225.2,1144.1v-0.7h-12.5v0.7h0.7v10.6h-0.7v0.7h12.5v-0.9h-0.7v-10.6h0.7V1144.1z M216.6,1147.8v3.3h-0.7
			v-3.3h-0.7l0.9-1.3l0.9,1.3H216.6L216.6,1147.8z M223.9,1154.4h-4.6v-10.6h4.6V1154.4L223.9,1154.4z"/>
	</g>
</g>
<g>
	<g id="XMLID_80_">
		<path id="XMLID_81_" fill="#666666" d="M398.5,1236c2.4-2.6,3.7-6.2,3.3-9.9c-0.7-5.9-5.3-10.6-11.2-11.2
			c-7.7-0.9-14.3,5.1-14.3,12.8c0,3.3,1.3,6.4,3.3,8.6l7.3,9.7c1.1,1.3,3.1,1.3,4,0L398.5,1236z"/>
	</g>
	<g>
		<path fill="#FFFFFF" d="M395.4,1221.5v-0.7h-12.5v0.7h0.7v10.6h-0.7v0.7h12.5v-0.7h-0.7v-10.6H395.4L395.4,1221.5z M386.8,1225.4
			v3.3h-0.7v-3.3h-0.7l0.9-1.3l0.9,1.3H386.8L386.8,1225.4z M394.1,1231.8h-4.6v-10.6h4.6V1231.8L394.1,1231.8z"/>
	</g>
</g>
<g>
	<g id="XMLID_78_">
		<path id="XMLID_79_" fill="#666666" d="M503.1,1283.3c2.4-2.6,3.7-6.2,3.3-9.9c-0.7-5.9-5.3-10.6-11.2-11.2
			c-7.7-0.9-14.3,5.1-14.3,12.8c0,3.3,1.3,6.4,3.3,8.6l7.3,9.7c1.1,1.3,3.1,1.3,4,0L503.1,1283.3z"/>
	</g>
	<g>
		<path fill="#FFFFFF" d="M500.1,1268.7v-0.6h-12.5v0.7h0.7v10.6h-0.7v0.7h12.5v-0.7h-0.7v-10.6h0.7V1268.7z M491.5,1272.7v3.3h-0.7
			v-3.3h-0.7l0.9-1.3l0.9,1.3H491.5L491.5,1272.7z M498.7,1279.3h-4.6v-10.6h4.6V1279.3L498.7,1279.3z"/>
	</g>
</g>
<g>
	<g id="XMLID_76_">
		<path id="XMLID_77_" fill="#666666" d="M674.2,1097.8c2.4-2.6,3.7-6.2,3.3-9.9c-0.7-5.9-5.3-10.6-11.2-11.2
			c-7.7-0.9-14.3,5.1-14.3,12.8c0,3.3,1.3,6.4,3.3,8.6l7.3,9.7c1.1,1.3,3.1,1.3,4,0L674.2,1097.8z"/>
	</g>
	<g>
		<path fill="#FFFFFF" d="M671.1,1083.1v-0.7h-12.5v0.7h0.7v10.6h-0.7v0.7h12.5v-0.7h-0.7v-10.6H671.1L671.1,1083.1z M662.5,1087.1
			v3.3h-0.7v-3.3h-0.7l0.9-1.3l0.9,1.3H662.5L662.5,1087.1z M669.8,1093.7h-4.6v-10.6h4.6V1093.7L669.8,1093.7z"/>
	</g>
</g>
<g>
	<g id="XMLID_74_">
		<path id="XMLID_75_" fill="#666666" d="M855.6,1242c2.4-2.6,3.7-6.2,3.3-9.9c-0.7-5.9-5.3-10.6-11.2-11.2
			c-7.7-0.9-14.3,5.1-14.3,12.8c0,3.3,1.3,6.4,3.3,8.6l7.3,9.7c1.1,1.3,3.1,1.3,4,0L855.6,1242z"/>
	</g>
	<g>
		<path fill="#FFFFFF" d="M852.5,1227.5v-0.7H840v0.7h0.7v10.6H840v0.7h12.5v-0.7h-0.7v-10.6H852.5L852.5,1227.5z M843.9,1231.2v3.3
			h-0.7v-3.3h-0.7l0.9-1.3l0.9,1.3H843.9L843.9,1231.2z M851.2,1237.8h-4.6v-10.6h4.6V1237.8L851.2,1237.8z"/>
	</g>
</g>
<g>
	<g id="XMLID_72_">
		<path id="XMLID_73_" fill="#666666" d="M885.3,1015.8c2.4-2.6,3.7-6.2,3.3-9.9c-0.7-5.9-5.3-10.6-11.2-11.2
			c-7.7-0.9-14.3,5.1-14.3,12.8c0,3.3,1.3,6.4,3.3,8.6l7.3,9.7c1.1,1.3,3.1,1.3,4,0L885.3,1015.8z"/>
	</g>
	<g>
		<path fill="#FFFFFF" d="M882.2,1001.3v-0.7h-12.5v0.7h0.7v10.6h-0.7v0.7h12.5v-0.7h-0.7v-10.6H882.2L882.2,1001.3z M873.6,1005.3
			v3.3h-0.7v-3.3h-0.7l0.9-1.3l0.9,1.3H873.6L873.6,1005.3z M880.9,1011.9h-4.6v-10.6h4.6V1011.9L880.9,1011.9z"/>
	</g>
</g>
<g>
	<g id="XMLID_37_">
		<path id="XMLID_38_" fill="#666666" d="M806.5,948.8c2.4-2.6,3.7-6.2,3.3-9.9c-0.7-5.9-5.3-10.6-11.2-11.2
			c-7.7-0.9-14.3,5.1-14.3,12.8c0,3.3,1.3,6.4,3.3,8.6l7.3,9.7c1.1,1.3,3.1,1.3,4,0L806.5,948.8z"/>
	</g>
	<g>
		<path fill="#FFFFFF" d="M803.2,934.3v-0.7h-12.5v0.7h0.7v10.6h-0.7v0.7h12.5v-0.7h-0.7v-10.6H803.2L803.2,934.3z M794.8,938.3v3.3
			h-0.7v-3.3h-0.7l0.9-1.3l0.9,1.3H794.8L794.8,938.3z M801.9,944.9h-4.6v-10.6h4.6V944.9L801.9,944.9z"/>
	</g>
</g>
<g>
	<g id="XMLID_35_">
		<path id="XMLID_36_" fill="#666666" d="M321.2,984.2c2.4-2.6,3.7-6.2,3.3-9.9c-0.7-5.9-5.3-10.6-11.2-11.2
			c-7.7-0.9-14.3,5.1-14.3,12.8c0,3.3,1.3,6.4,3.3,8.6l7.3,9.7c1.1,1.3,3.1,1.3,4,0L321.2,984.2z"/>
	</g>
	<g>
		<path fill="#FFFFFF" d="M318.1,969.7V969h-12.5v0.7h0.7v10.6h-0.7v0.7h12.5v-0.7h-0.7v-10.6H318.1L318.1,969.7z M309.5,973.6v3.3
			h-0.7v-3.3h-0.7l0.9-1.3l0.9,1.3H309.5L309.5,973.6z M316.8,980.2h-4.7v-10.6h4.6L316.8,980.2L316.8,980.2z"/>
	</g>
</g>
<g>
	<g>
		<g id="XMLID_30_">
			<path id="XMLID_33_" fill="#666666" d="M139.1,1293.5c2.4-2.6,3.7-6.2,3.3-9.9c-0.7-5.9-5.3-10.6-11.2-11.2
				c-7.7-0.9-14.3,5.1-14.3,12.8c0,3.3,1.3,6.4,3.3,8.6l7.3,9.7c1.1,1.3,3.1,1.3,4,0L139.1,1293.5z"/>
		</g>
	</g>
	<g>
		<path fill="#FFFFFF" d="M137.6,1283.6c-0.2-0.2-0.2-0.2-0.4-0.4c-2.2-2-4.4-4.2-6.6-6.2c-0.2-0.2-0.4-0.4-0.7-0.4c0,0,0,0-0.2,0
			s-0.2,0-0.4,0.2c-0.7,0.4-1.1,1.1-1.8,1.5c-1.3,1.3-2.6,2.4-4,3.7c-0.7,0.4-1.1,1.1-1.8,1.5c-0.2,0.2-0.2,0.4-0.2,0.7
			c0.2,0.2,0.2,0.4,0.7,0.4c0.4,0,1.1,0,1.5,0c0.2,0,0.2,0,0.2,0.2c0,2,0,4,0,5.9c0,0.2,0,0.2,0,0.4c0.2,0.2,0.4,0.2,0.7,0.2
			c2.2,0,4.4,0,6.6,0c1.1,0,2.2,0,3.1,0c0.4,0,0.7-0.2,0.7-0.7c0-0.2,0-0.7,0-0.9c0-1.8,0-3.3,0-5.1c0-0.2,0-0.2,0-0.4
			c0-0.4-0.4-0.7-0.9-0.4c-0.2,0.2-0.2,0.4-0.2,0.7c0,1.8,0,3.5,0,5.3c0,0.2,0,0.2-0.2,0.2c-2.9,0-5.5,0-8.4,0c-0.2,0-0.2,0-0.2-0.2
			c0-2,0-4,0-6.2c0-0.4-0.2-0.7-0.7-0.7c-0.2,0-0.4,0-0.7,0h-0.2l0.2-0.2c1.8-1.8,3.5-3.3,5.5-5.1c0.4-0.4,0.2-0.4,0.7,0
			c2.2,2.2,4.4,4.2,6.6,6.4c0.2,0.2,0.4,0.2,0.7,0C137.8,1284.1,137.8,1283.8,137.6,1283.6L137.6,1283.6z M127.4,1289.1
			c2-1.3,3.7-2.6,5.7-4.2l0,0h-3.3l0,0c0.9-0.9,1.5-1.5,2.4-2.4l0,0c-1.1,0-2,0-3.1,0c0,0-0.2,0-0.2,0.2c-0.7,0.9-1.1,1.5-1.8,2.4
			c-0.2,0.2-0.4,0.4-0.7,0.9h2.4C128.3,1286.9,127.9,1288,127.4,1289.1L127.4,1289.1L127.4,1289.1z"/>
	</g>
</g>
<g>
	<rect id="XMLID_28_" x="117.6" y="1373.5" fill-rule="evenodd" fill="#D7DFE2" width="13.7" height="13.7"/>
	
		<text id="XMLID_27_" transform="matrix(1 0 0 1 135.6894 1384.0698)" fill="#231815" font-family="'MicrosoftYaHei'" font-size="12px">未签署</text>
</g>
<g id="XMLID_278_">
	<rect id="XMLID_280_" x="213.7" y="1373.5" fill-rule="evenodd" fill="#FF9388" width="13.7" height="13.7"/>
	
		<text id="XMLID_279_" transform="matrix(1 0 0 1 231.7939 1384.0698)" fill="#231815" font-family="'MicrosoftYaHei'" font-size="12px">超市</text>
</g>
<g>
	
		<rect id="XMLID_25_" x="303.8" y="1373.5" fill-rule="evenodd" fill="#FFDC78" stroke="#DCDDDD" stroke-width="0.235" stroke-miterlimit="10" width="13.7" height="13.7"/>
	
		<text id="XMLID_24_" transform="matrix(1 0 0 1 321.8983 1384.0698)" fill="#231815" font-family="'MicrosoftYaHei'" font-size="12px">影院</text>
</g>
<g>
	<rect id="XMLID_20_" x="754.3" y="1373.5" fill-rule="evenodd" fill="#B4E1F9" width="13.7" height="13.7"/>
	
		<text id="XMLID_19_" transform="matrix(1 0 0 1 772.421 1384.0698)" fill="#231815" font-family="'MicrosoftYaHei'" font-size="12px">配套</text>
</g>
<g>
	<rect id="XMLID_283_" x="844.5" y="1373.5" fill-rule="evenodd" fill="#DDCDBF" width="13.7" height="13.7"/>
	
		<text id="XMLID_282_" transform="matrix(1 0 0 1 862.5254 1384.0698)" fill="#231815" font-family="'MicrosoftYaHei'" font-size="12px">酒店</text>
</g>
<g>
	<rect id="XMLID_13_" x="393.9" y="1373.5" fill-rule="evenodd" fill="#79C7C4" width="13.7" height="13.7"/>
	
		<text id="XMLID_12_" transform="matrix(1 0 0 1 412.0029 1384.0698)" fill="#231815" font-family="'MicrosoftYaHei'" font-size="12px">百货</text>
</g>
<g id="XMLID_8_">
	<rect id="XMLID_10_" x="484" y="1373.5" fill-rule="evenodd" fill="#FFD7ED" width="13.7" height="13.7"/>
	
		<text id="XMLID_9_" transform="matrix(1 0 0 1 502.1074 1384.0698)" fill="#231815" font-family="'MicrosoftYaHei'" font-size="12px">服装</text>
</g>
<g>
	<rect id="XMLID_7_" x="574.1" y="1373.5" fill-rule="evenodd" fill="#DFFFD2" width="13.7" height="13.7"/>
	
		<text id="XMLID_6_" transform="matrix(1 0 0 1 592.2118 1384.0698)" fill="#231815" font-family="'MicrosoftYaHei'" font-size="12px">儿童</text>
</g>
<g id="XMLID_1_">
	<rect id="XMLID_4_" x="664.2" y="1373.5" fill-rule="evenodd" fill="#FFC692" width="13.7" height="13.7"/>
	
		<text id="XMLID_3_" transform="matrix(1 0 0 1 682.3164 1384.0698)" fill="#231815" font-family="'MicrosoftYaHei'" font-size="12px">餐饮</text>
</g>
<rect x="119.5" y="1565.7" fill="none" stroke="#EFEFEF" stroke-width="0.3" stroke-miterlimit="10" width="29.6" height="39.3"/>
<rect id="XMLID_478_" x="696.4" y="1806.4" fill="none" stroke="#EFEFEF" stroke-width="0.3" stroke-miterlimit="10" width="19.5" height="31.2"/>
<rect id="XMLID_477_" x="716.9" y="1806.4" fill="none" stroke="#EFEFEF" stroke-width="0.3" stroke-miterlimit="10" width="18.8" height="48.9"/>
<rect id="XMLID_476_" x="736.4" y="1806.4" fill="none" stroke="#EFEFEF" stroke-width="0.3" stroke-miterlimit="10" width="18.8" height="48.9"/>
<rect id="XMLID_475_" x="756.2" y="1806.4" fill="none" stroke="#EFEFEF" stroke-width="0.3" stroke-miterlimit="10" width="18.8" height="48.9"/>
<rect id="XMLID_474_" x="795.2" y="1806.4" fill="none" stroke="#EFEFEF" stroke-width="0.3" stroke-miterlimit="10" width="18.8" height="33.6"/>
<polygon id="XMLID_473_" fill="none" stroke="#EFEFEF" stroke-width="0.3" stroke-miterlimit="10" points="794.4,1839.9 
	775.6,1839.9 775.6,1809.2 781.6,1809.2 781.6,1806.4 794.4,1806.4 "/>
<polygon fill="none" stroke="#EFEFEF" stroke-width="0.3" stroke-miterlimit="10" points="841.2,1794.3 839.5,1794.3 814.8,1794.3 
	814.8,1802.7 814.8,1839.9 839.5,1839.9 839.5,1802.7 841.2,1802.7 "/>
<polygon id="XMLID_472_" fill="none" stroke="#EFEFEF" stroke-width="0.3" stroke-miterlimit="10" points="696.4,1838.6 
	716.1,1838.6 716.1,1856.2 734.6,1856.2 734.6,1864.1 728.2,1864.1 728.2,1881.8 708.6,1881.8 708.6,1866.5 696.4,1866.5 "/>
<rect id="XMLID_471_" x="775.7" y="1856.2" fill="none" stroke="#EFEFEF" stroke-width="0.3" stroke-miterlimit="10" width="38.2" height="25.6"/>
<rect id="XMLID_470_" x="814.8" y="1856.2" fill="none" stroke="#EFEFEF" stroke-width="0.3" stroke-miterlimit="10" width="27" height="25.6"/>
<rect id="XMLID_469_" x="598.9" y="1806.4" fill="none" stroke="#EFEFEF" stroke-width="0.3" stroke-miterlimit="10" width="28.2" height="32.5"/>
<rect id="XMLID_468_" x="579" y="1806.4" fill="none" stroke="#EFEFEF" stroke-width="0.3" stroke-miterlimit="10" width="18.9" height="32.5"/>
<rect id="XMLID_467_" x="530.9" y="1806.4" fill="none" stroke="#EFEFEF" stroke-width="0.3" stroke-miterlimit="10" width="28.6" height="32.5"/>
<rect id="XMLID_466_" x="462.5" y="1806.4" fill="none" stroke="#EFEFEF" stroke-width="0.3" stroke-miterlimit="10" width="17.6" height="42"/>
<rect id="XMLID_465_" x="443" y="1806.4" fill="none" stroke="#EFEFEF" stroke-width="0.3" stroke-miterlimit="10" width="18.6" height="42"/>
<rect id="XMLID_464_" x="423.2" y="1806.4" fill="none" stroke="#EFEFEF" stroke-width="0.3" stroke-miterlimit="10" width="18.6" height="42"/>
<polygon id="XMLID_463_" fill="none" stroke="#EFEFEF" stroke-width="0.3" stroke-miterlimit="10" points="578.1,1839 560.5,1839 
	560.5,1806.4 573,1806.4 573,1808.3 578.1,1808.3 "/>
<polygon id="XMLID_462_" fill="none" stroke="#EFEFEF" stroke-width="0.3" stroke-miterlimit="10" points="521.1,1806.4 
	481.1,1806.4 481.1,1808.3 481,1808.3 481,1848.4 500.7,1848.4 500.7,1823.5 521.1,1823.5 "/>
<polygon fill="none" stroke="#EFEFEF" stroke-width="0.3" stroke-miterlimit="10" points="408.7,1806.4 407.5,1806.4 395.8,1806.4 
	395.8,1821.7 407.5,1821.7 407.5,1836.2 383.3,1836.2 383.3,1848.4 407.5,1848.4 408.7,1848.4 422.4,1848.4 422.4,1806.4 "/>
<polygon id="XMLID_461_" fill="none" stroke="#EFEFEF" stroke-width="0.3" stroke-miterlimit="10" points="423.2,1849.2 
	423.2,1869.3 428.2,1869.3 428.2,1890.3 423.2,1890.3 423.2,1903.2 441.9,1903.2 441.9,1849.2 "/>
<polygon id="XMLID_460_" fill="none" stroke="#EFEFEF" stroke-width="0.3" stroke-miterlimit="10" points="461.5,1849.2 
	461.5,1869.3 456.5,1869.3 456.5,1890.3 461.5,1890.3 461.5,1903.2 442.8,1903.2 442.8,1849.2 "/>
<polygon id="XMLID_459_" fill="none" stroke="#EFEFEF" stroke-width="0.3" stroke-miterlimit="10" points="500.7,1849.2 483,1849.2 
	483,1849.3 462.5,1849.3 462.5,1904.2 487,1904.2 487,1870.2 500.7,1870.2 "/>
<polygon id="XMLID_458_" fill="none" stroke="#EFEFEF" stroke-width="0.3" stroke-miterlimit="10" points="539.9,1843.6 
	539.9,1839.9 501.6,1839.9 501.6,1859.6 530.8,1859.6 530.8,1881.8 539.9,1881.8 "/>
<polygon id="XMLID_457_" fill="none" stroke="#EFEFEF" stroke-width="0.3" stroke-miterlimit="10" points="540.8,1839.9 
	540.8,1857.7 545,1857.7 545,1881.8 559.5,1881.8 559.5,1839.9 "/>
<rect id="XMLID_456_" x="560.4" y="1839.9" fill="none" stroke="#EFEFEF" stroke-width="0.3" stroke-miterlimit="10" width="66.9" height="21.5"/>
<polygon id="XMLID_455_" fill="none" stroke="#EFEFEF" stroke-width="0.3" stroke-miterlimit="10" points="391.1,1849.3 
	422.4,1849.3 422.4,1901.4 414.7,1901.4 "/>
<polygon id="XMLID_454_" fill="none" stroke="#EFEFEF" stroke-width="0.3" stroke-miterlimit="10" points="804.5,1663.8 
	813.9,1663.8 813.9,1715.8 788.6,1715.8 788.6,1709.9 792.7,1709.9 792.7,1675.8 804.7,1675.8 "/>
<polygon id="XMLID_453_" fill="none" stroke="#EFEFEF" stroke-width="0.3" stroke-miterlimit="10" points="814.8,1663.8 
	833.5,1663.8 833.5,1716.9 823.6,1716.9 823.6,1714 814.8,1714 "/>
<rect id="XMLID_452_" x="834.5" y="1663.8" fill="none" stroke="#EFEFEF" stroke-width="0.3" stroke-miterlimit="10" width="54.9" height="17.7"/>
<rect id="XMLID_451_" x="834.5" y="1644.2" fill="none" stroke="#EFEFEF" stroke-width="0.3" stroke-miterlimit="10" width="54.9" height="18.6"/>
<rect id="XMLID_450_" x="770.2" y="1644.2" fill="none" stroke="#EFEFEF" stroke-width="0.3" stroke-miterlimit="10" width="63.3" height="18.6"/>
<rect id="XMLID_449_" x="770.2" y="1624.7" fill="none" stroke="#EFEFEF" stroke-width="0.3" stroke-miterlimit="10" width="57.3" height="18.6"/>
<polygon id="XMLID_448_" fill="none" stroke="#EFEFEF" stroke-width="0.3" stroke-miterlimit="10" points="815.7,1604.2 
	815.7,1618.1 806.9,1618.1 806.9,1604.2 770.2,1604.2 770.2,1623.6 827.5,1623.6 827.5,1604.2 "/>
<polygon id="XMLID_447_" fill="none" stroke="#EFEFEF" stroke-width="0.3" stroke-miterlimit="10" points="889.4,1632.1 
	847.5,1632.1 847.5,1576.1 828.4,1576.1 828.4,1643.2 847.5,1643.2 847.5,1643.2 889.4,1643.2 "/>
<rect id="XMLID_446_" x="770.2" y="1576.1" fill="none" stroke="#EFEFEF" stroke-width="0.3" stroke-miterlimit="10" width="57.3" height="27"/>
<polygon id="XMLID_445_" fill="none" stroke="#EFEFEF" stroke-width="0.3" stroke-miterlimit="10" points="800.9,1521.2 
	800.9,1535.5 803.9,1535.5 803.9,1564 827.5,1564 827.5,1521.2 "/>
<rect id="XMLID_444_" x="828.4" y="1521.2" fill="none" stroke="#EFEFEF" stroke-width="0.3" stroke-miterlimit="10" width="20" height="54.1"/>
<rect id="XMLID_443_" x="849.3" y="1521.2" fill="none" stroke="#EFEFEF" stroke-width="0.3" stroke-miterlimit="10" width="19.1" height="59.7"/>
<rect id="XMLID_442_" x="869.3" y="1521.2" fill="none" stroke="#EFEFEF" stroke-width="0.3" stroke-miterlimit="10" width="20" height="59.7"/>
<polygon id="XMLID_441_" fill="none" stroke="#EFEFEF" stroke-width="0.3" stroke-miterlimit="10" points="733.7,1564.8 
	736.5,1564.8 736.5,1525.8 717,1525.8 717,1575.3 733.7,1575.3 "/>
<rect id="XMLID_440_" x="701.1" y="1525.8" fill="none" stroke="#EFEFEF" stroke-width="0.3" stroke-miterlimit="10" width="14.9" height="49.4"/>
<rect id="XMLID_439_" x="697.4" y="1569.5" fill="none" stroke="#EFEFEF" stroke-width="0.3" stroke-miterlimit="10" width="7.9" height="5.6"/>
<rect id="XMLID_438_" x="677.8" y="1525.8" fill="none" stroke="#EFEFEF" stroke-width="0.3" stroke-miterlimit="10" width="18.6" height="49.4"/>
<rect id="XMLID_437_" x="658.2" y="1525.8" fill="none" stroke="#EFEFEF" stroke-width="0.3" stroke-miterlimit="10" width="18.6" height="49.4"/>
<polygon id="XMLID_436_" fill="none" stroke="#EFEFEF" stroke-width="0.3" stroke-miterlimit="10" points="651.5,1572.3 
	657.3,1572.3 657.3,1525.8 634.8,1525.8 634.8,1575.3 651.5,1575.3 "/>
<polygon id="XMLID_435_" fill="none" stroke="#EFEFEF" stroke-width="0.3" stroke-miterlimit="10" points="612,1552.8 612,1525.8 
	579.9,1525.8 579.9,1575.3 615.7,1575.3 615.7,1552.8 "/>
<rect id="XMLID_434_" x="560.4" y="1525.8" fill="none" stroke="#EFEFEF" stroke-width="0.3" stroke-miterlimit="10" width="18.6" height="49.4"/>
<rect id="XMLID_433_" x="540.8" y="1525.8" fill="none" stroke="#EFEFEF" stroke-width="0.3" stroke-miterlimit="10" width="18.6" height="49.4"/>
<rect id="XMLID_432_" x="510.9" y="1538.8" fill="none" stroke="#EFEFEF" stroke-width="0.3" stroke-miterlimit="10" width="28.9" height="36.3"/>
<rect id="XMLID_431_" x="482.1" y="1525.8" fill="none" stroke="#EFEFEF" stroke-width="0.3" stroke-miterlimit="10" width="18.6" height="49.4"/>
<polygon id="XMLID_430_" fill="none" stroke="#EFEFEF" stroke-width="0.3" stroke-miterlimit="10" points="481.1,1525.8 
	466.2,1525.8 466.2,1552.3 462.5,1552.3 462.5,1575.3 472.3,1575.3 472.3,1575.3 481.1,1575.3 "/>
<rect id="XMLID_429_" x="442.8" y="1525.8" fill="none" stroke="#EFEFEF" stroke-width="0.3" stroke-miterlimit="10" width="18.6" height="49.4"/>
<rect id="XMLID_428_" x="423.3" y="1525.8" fill="none" stroke="#EFEFEF" stroke-width="0.3" stroke-miterlimit="10" width="18.6" height="49.4"/>
<rect id="XMLID_427_" x="403.7" y="1525.8" fill="none" stroke="#EFEFEF" stroke-width="0.3" stroke-miterlimit="10" width="18.6" height="49.4"/>
<polygon id="XMLID_426_" fill="none" stroke="#EFEFEF" stroke-width="0.3" stroke-miterlimit="10" points="402.7,1525.8 
	389.7,1525.8 389.7,1559.2 385.1,1559.2 385.1,1575.3 396.1,1575.3 396.1,1575.3 402.7,1575.3 "/>
<path id="XMLID_425_" fill="none" stroke="#EFEFEF" stroke-width="0.3" stroke-miterlimit="10" d="M368.3,1525.8h-18.2v4.7h-6v52
	l5.3,7.6c6.3-7,18.5-16.9,18.5-16.9v-0.2h0.3v-47.2H368.3z"/>
<polygon id="XMLID_424_" fill="none" stroke="#EFEFEF" stroke-width="0.3" stroke-miterlimit="10" points="332.9,1530.4 
	305.9,1530.4 305.9,1564.4 321.3,1564.4 321.3,1569.5 332.9,1569.5 332.9,1564.4 332.9,1564.4 "/>
<rect id="XMLID_423_" x="286.3" y="1530.4" fill="none" stroke="#EFEFEF" stroke-width="0.3" stroke-miterlimit="10" width="18.6" height="39.1"/>
<rect id="XMLID_422_" x="265.9" y="1530.4" fill="none" stroke="#EFEFEF" stroke-width="0.3" stroke-miterlimit="10" width="19.5" height="51.8"/>
<polygon id="XMLID_421_" fill="none" stroke="#EFEFEF" stroke-width="0.3" stroke-miterlimit="10" points="261.4,1583.1 305,1583.1 
	305,1604.2 273.1,1615.8 "/>
<polygon id="XMLID_420_" fill="none" stroke="#EFEFEF" stroke-width="0.3" stroke-miterlimit="10" points="305.9,1583.1 
	343.4,1583.1 348.7,1590.8 340.9,1600 338.8,1598.6 334.7,1604 305.9,1604 "/>
<path id="XMLID_419_" fill="none" stroke="#EFEFEF" stroke-width="0.3" stroke-miterlimit="10" d="M273.5,1616.6l32.1-11.6h31.8
	c0,0-8.2,11.6-12.4,19.9l-14.9,0.2l-30.4,10.8l-3.2-8.8l0.9-0.3L273.5,1616.6z"/>
<path id="XMLID_418_" fill="none" stroke="#EFEFEF" stroke-width="0.3" stroke-miterlimit="10" d="M280.2,1637.1l29.8-11.2h14.1
	c0,0-5.6,10.8-11,25.6c0,0-2.6,8-3.8,14.1c0,0-13-2.8-19.9-2.6L280.2,1637.1z"/>
<path id="XMLID_417_" fill="none" stroke="#EFEFEF" stroke-width="0.3" stroke-miterlimit="10" d="M461.6,1604h-40.1v1.9H416v-1.9
	c0,0-4.7,0.3-8.5,4.2c-3.8,3.8-6,15.5-6,15.5h60.1V1604z"/>
<path id="XMLID_416_" fill="none" stroke="#EFEFEF" stroke-width="0.3" stroke-miterlimit="10" d="M461.6,1624.6v18.6h-68.1
	c0,0,6.8-14.6,7.6-18.6H461.6z"/>
<polygon id="XMLID_415_" fill="none" stroke="#EFEFEF" stroke-width="0.3" stroke-miterlimit="10" points="508.6,1618.6 
	493.2,1618.6 493.2,1622.3 481.1,1622.3 481.1,1604 462.5,1604 462.5,1644.1 453.1,1644.1 453.1,1663.8 471.4,1663.8 471.4,1663.8 
	508.6,1663.8 "/>
<polygon id="XMLID_414_" fill="none" stroke="#EFEFEF" stroke-width="0.3" stroke-miterlimit="10" points="539.9,1604 515.2,1604 
	515.2,1606.8 509.6,1606.8 509.6,1663.8 519.2,1663.8 519.2,1663.8 539.9,1663.8 "/>
<rect id="XMLID_413_" x="540.8" y="1604" fill="none" stroke="#EFEFEF" stroke-width="0.3" stroke-miterlimit="10" width="18.6" height="59.7"/>
<rect id="XMLID_412_" x="560.4" y="1604" fill="none" stroke="#EFEFEF" stroke-width="0.3" stroke-miterlimit="10" width="18.6" height="59.7"/>
<rect id="XMLID_411_" x="579.9" y="1604" fill="none" stroke="#EFEFEF" stroke-width="0.3" stroke-miterlimit="10" width="18.6" height="59.7"/>
<rect id="XMLID_410_" x="599.9" y="1664.7" fill="none" stroke="#EFEFEF" stroke-width="0.3" stroke-miterlimit="10" width="15.8" height="51.2"/>
<rect id="XMLID_409_" x="618.2" y="1664.7" fill="none" stroke="#EFEFEF" stroke-width="0.3" stroke-miterlimit="10" width="19.4" height="51.2"/>
<rect id="XMLID_408_" x="599.5" y="1604.2" fill="none" stroke="#EFEFEF" stroke-width="0.3" stroke-miterlimit="10" width="58.8" height="19.4"/>
<rect id="XMLID_407_" x="599.5" y="1624.6" fill="none" stroke="#EFEFEF" stroke-width="0.3" stroke-miterlimit="10" width="58.8" height="18.6"/>
<rect id="XMLID_406_" x="599.5" y="1644.1" fill="none" stroke="#EFEFEF" stroke-width="0.3" stroke-miterlimit="10" width="58.8" height="19.5"/>
<polygon id="XMLID_405_" fill="none" stroke="#EFEFEF" stroke-width="0.3" stroke-miterlimit="10" points="656.4,1702.9 
	656.4,1696.6 658.2,1696.6 658.2,1664.7 638.7,1664.7 638.7,1715.8 658.2,1715.8 658.2,1702.9 "/>
<polygon id="XMLID_404_" fill="none" stroke="#EFEFEF" stroke-width="0.3" stroke-miterlimit="10" points="580,1664.7 580,1713.7 
	586.5,1713.7 586.5,1715.8 599,1715.8 599,1664.7 "/>
<rect id="XMLID_403_" x="560.4" y="1664.7" fill="none" stroke="#EFEFEF" stroke-width="0.3" stroke-miterlimit="10" width="18.6" height="51.2"/>
<polygon id="XMLID_402_" fill="none" stroke="#EFEFEF" stroke-width="0.3" stroke-miterlimit="10" points="546.9,1664.7 
	546.9,1684.2 539.9,1684.2 539.9,1715.8 559.5,1715.8 559.5,1664.7 "/>
<polygon id="XMLID_401_" fill="none" stroke="#EFEFEF" stroke-width="0.3" stroke-miterlimit="10" points="500.7,1664.7 
	481.6,1664.7 481.6,1713.7 481.6,1713.7 481.6,1715.8 495.2,1715.8 495.2,1713.7 500.7,1713.7 "/>
<rect id="XMLID_400_" x="462.5" y="1664.7" fill="none" stroke="#EFEFEF" stroke-width="0.3" stroke-miterlimit="10" width="18.2" height="51.2"/>
<rect id="XMLID_399_" x="443.1" y="1664.7" fill="none" stroke="#EFEFEF" stroke-width="0.3" stroke-miterlimit="10" width="18.5" height="51.2"/>
<rect id="XMLID_398_" x="423.3" y="1664.7" fill="none" stroke="#EFEFEF" stroke-width="0.3" stroke-miterlimit="10" width="18.5" height="51.2"/>
<rect id="XMLID_397_" x="403.7" y="1683.3" fill="none" stroke="#EFEFEF" stroke-width="0.3" stroke-miterlimit="10" width="18.5" height="32.5"/>
<path id="XMLID_396_" fill="none" stroke="#EFEFEF" stroke-width="0.3" stroke-miterlimit="10" d="M422.4,1664.7h-41.6
	c0,0-8.7,12.9-13.4,17.7h55V1664.7z"/>
<path id="XMLID_395_" fill="none" stroke="#EFEFEF" stroke-width="0.3" stroke-miterlimit="10" d="M366.6,1683.3h36.3v32.5h-29.8
	c0,0-6-11.3-8.7-13.7c0,0-6.6-8.6-7.5-8.8C357,1693.3,366.2,1684.1,366.6,1683.3z"/>
<polygon id="XMLID_394_" fill="none" stroke="#EFEFEF" stroke-width="0.3" stroke-miterlimit="10" points="753.8,1663.8 
	783.6,1663.8 783.6,1674.9 775.7,1674.9 775.7,1690.3 753.7,1690.3 "/>
<rect id="XMLID_393_" x="758.3" y="1691.2" fill="none" stroke="#EFEFEF" stroke-width="0.3" stroke-miterlimit="10" width="17.4" height="24.6"/>
<polygon id="XMLID_392_" fill="none" stroke="#EFEFEF" stroke-width="0.3" stroke-miterlimit="10" points="735.6,1663.8 
	752.7,1663.8 752.7,1691.2 757.3,1691.2 757.3,1715.8 735.6,1715.8 "/>
<rect id="XMLID_391_" x="834.5" y="1682.4" fill="none" stroke="#EFEFEF" stroke-width="0.3" stroke-miterlimit="10" width="18.6" height="34.6"/>
<path id="XMLID_390_" fill="none" stroke="#EFEFEF" stroke-width="0.3" stroke-miterlimit="10" d="M889.3,1682.6H854v34.2h8.8
	c0,0,12.1,0,20.9-11.4C883.9,1705.3,890.6,1698.1,889.3,1682.6z"/>
<polygon id="XMLID_389_" fill="none" stroke="#EFEFEF" stroke-width="0.3" stroke-miterlimit="10" points="244,1850.1 256.1,1854.8 
	246.2,1886.7 246.2,1903.3 227.6,1903.3 227.6,1880.5 "/>
<path id="XMLID_388_" fill="none" stroke="#EFEFEF" stroke-width="0.3" stroke-miterlimit="10" d="M257.1,1855.1
	c0,0,10.4,2.9,12.1,2.9l-4.3,25.6v19.6H247v-16.4L257.1,1855.1z"/>
<path id="XMLID_387_" fill="none" stroke="#EFEFEF" stroke-width="0.3" stroke-miterlimit="10" d="M230.3,1842.4
	c0,0,10.8,6.8,12.9,7.2l-16.6,30.7v22.9H208v-28.5L230.3,1842.4z"/>
<path id="XMLID_386_" fill="none" stroke="#EFEFEF" stroke-width="0.3" stroke-miterlimit="10" d="M218.6,1832.8
	c0,0,9.6,8.6,11.1,8.9l-22.6,32.8v28.8h-18.6v-38.8L218.6,1832.8z"/>
<polygon id="XMLID_385_" fill="none" stroke="#EFEFEF" stroke-width="0.3" stroke-miterlimit="10" points="208.8,1822.6 188.3,1839 
	188.3,1839.9 167.5,1839.9 167.5,1861.8 181.5,1861.8 181.5,1867.4 187.5,1867.4 187.5,1864.2 218.1,1832.5 "/>
<path id="XMLID_384_" fill="none" stroke="#EFEFEF" stroke-width="0.3" stroke-miterlimit="10" d="M118.4,1799.8H187l0.9,1.8h8.4
	c0,0,4.7,9.7,7.1,13.1l-21.1,13.9h-46.4v-9.4h-17.4L118.4,1799.8L118.4,1799.8z"/>
<rect id="XMLID_383_" x="118.4" y="1761.6" fill="none" stroke="#EFEFEF" stroke-width="0.3" stroke-miterlimit="10" width="69" height="18.6"/>
<rect id="XMLID_382_" x="145.6" y="1721.5" fill="none" stroke="#EFEFEF" stroke-width="0.3" stroke-miterlimit="10" width="41.9" height="22.8"/>
<rect id="XMLID_381_" x="133.5" y="1644.1" fill="none" stroke="#EFEFEF" stroke-width="0.3" stroke-miterlimit="10" width="74.1" height="18.8"/>
<rect id="XMLID_380_" x="133.5" y="1663.6" fill="none" stroke="#EFEFEF" stroke-width="0.3" stroke-miterlimit="10" width="74.1" height="18.8"/>
<polygon id="XMLID_379_" fill="none" stroke="#EFEFEF" stroke-width="0.3" stroke-miterlimit="10" points="200.9,1711.2 
	133.5,1711.2 133.5,1683.2 207.6,1683.2 207.6,1701.6 "/>
<rect id="XMLID_378_" x="118.4" y="1781" fill="none" stroke="#EFEFEF" stroke-width="0.3" stroke-miterlimit="10" width="69" height="16.4"/>
<polygon id="XMLID_377_" fill="none" stroke="#EFEFEF" stroke-width="0.3" stroke-miterlimit="10" points="135.7,1605 196.1,1605 
	207.6,1636.9 207.6,1637.7 202.8,1637.7 202.8,1643.2 135.7,1643.2 "/>
<polygon id="XMLID_376_" fill="none" stroke="#EFEFEF" stroke-width="0.3" stroke-miterlimit="10" points="190.8,1590.5 
	187.6,1590.4 187.6,1585.9 187.6,1584.6 187.6,1584 188.5,1584 181.6,1565 149.7,1565 149.6,1604 196.1,1604 "/>
<rect id="XMLID_375_" x="869.3" y="1604.1" fill="none" stroke="#DCDDDD" stroke-width="0.3" stroke-miterlimit="10" width="12.7" height="10.7"/>
<rect id="XMLID_374_" x="840.8" y="1827.3" fill="none" stroke="#EFEFEF" stroke-width="0.3" stroke-miterlimit="10" width="10.8" height="12.5"/>
<rect id="XMLID_373_" x="840.8" y="1812.6" fill="none" stroke="#EFEFEF" stroke-width="0.3" stroke-miterlimit="10" width="10.8" height="12.5"/>
<rect id="XMLID_372_" x="487.9" y="1871.1" fill="#FFFFFF" stroke="#DCDDDD" stroke-width="0.235" stroke-miterlimit="10" width="11.6" height="10.7"/>
<rect id="XMLID_371_" x="383.3" y="1809.2" fill="none" stroke="#DCDDDD" stroke-width="0.3" stroke-miterlimit="10" width="11.6" height="12.5"/>
<rect id="XMLID_370_" x="383.3" y="1822.7" fill="none" stroke="#DCDDDD" stroke-width="0.3" stroke-miterlimit="10" width="11.6" height="12.5"/>
<rect id="XMLID_369_" x="135.8" y="1856.6" fill="none" stroke="#DCDDDD" stroke-width="0.3" stroke-miterlimit="10" width="13.3" height="10.7"/>
<rect id="XMLID_367_" x="659.1" y="1668.8" fill="#FFFFFF" stroke="#DCDDDD" stroke-width="0.235" stroke-miterlimit="10" width="11.3" height="13.3"/>
<rect id="XMLID_365_" x="791.4" y="1536.5" fill="none" stroke="#DCDDDD" stroke-width="0.3" stroke-miterlimit="10" width="11.6" height="10.7"/>
<rect id="XMLID_364_" x="159.6" y="1868.3" fill="none" stroke="#DCDDDD" stroke-width="0.3" stroke-miterlimit="10" width="28" height="35"/>
<rect id="XMLID_363_" x="306" y="1570.5" fill="none" stroke="#EFEFEF" stroke-width="0.3" stroke-miterlimit="10" width="10.7" height="11.6"/>
<polygon id="XMLID_362_" fill="none" stroke="#EFEFEF" stroke-width="0.3" stroke-miterlimit="10" points="310.1,1883.8 
	338.1,1883.8 345,1896.2 345,1903.3 310.1,1903.3 "/>
<polygon id="XMLID_361_" fill="none" stroke="#DCDDDD" stroke-width="0.3" stroke-miterlimit="10" points="328,1842.3 334.4,1838.9 
	366.3,1895.4 351.9,1904.2 320.1,1846.8 "/>
<polygon id="XMLID_359_" fill="none" stroke="#DCDDDD" stroke-width="0.3" stroke-miterlimit="10" points="182.7,1564 197.2,1558.7 
	218.4,1616.2 204,1621.8 "/>
<path id="XMLID_358_" fill="#C9CACA" d="M424.2,1902.5h96.2V1881h106v-13.7h31.9v13.7h229.5v-20.9h4.7v-65h-10.6v-88.4l0.5-0.6
	c6.4-7.2,6.4-17.1,6.4-17.3v-167H772.3v4.6H351.1v3.8h-90l-79.7,35.3h-62v336.6h232.1l15.4-8.4l47.7,8.2v-1.7h9.6V1902.5
	L424.2,1902.5z M418.1,1906.5l-50.6-8.8l-15.1,8.1H115.8v-343.6h65l79.5-35.3h87.1v-3.8h421.4v-4.6h123.3v170.4
	c0,0.5,0.1,10.8-6.9,19.1v83.5h10.6v72.1h-4.7v20.9H654.6v-13.7H630v13.7H524v21.5H420.7v-1.8h-2.5L418.1,1906.5L418.1,1906.5z"/>
<rect id="XMLID_357_" x="118.4" y="1880" fill="none" stroke="#DCDDDD" stroke-width="0.3" stroke-miterlimit="10" width="30.7" height="12.1"/>
<polygon id="XMLID_356_" fill="none" stroke="#EFEFEF" stroke-width="0.3" stroke-miterlimit="10" points="392.8,1644.1 
	384.7,1663.8 452.2,1663.8 452.2,1644.1 "/>
<path id="XMLID_355_" fill="none" stroke="#EFEFEF" stroke-width="0.3" stroke-miterlimit="10" d="M271.7,1849
	c0,0,11.6,1.8,22.1,0.8l0.8,8.7h9.4l0.1,24.3h-38L271.7,1849z"/>
<path id="XMLID_354_" fill="none" stroke="#EFEFEF" stroke-width="0.3" stroke-miterlimit="10" d="M294.6,1849.7c0,0,10.6-1,21.7-5
	l21.1,38h-32.5v-25.2h-9.6L294.6,1849.7z"/>
<g id="XMLID_348_">
	<g id="XMLID_350_">
		<path id="XMLID_353_" fill="#666666" d="M376.1,1619c2.4-2.6,3.7-6.2,3.3-9.9c-0.7-5.9-5.3-10.6-11.2-11.2
			c-7.7-0.9-14.3,5.1-14.3,12.8c0,3.3,1.3,6.4,3.3,8.6l7.3,9.7c1.1,1.3,3.1,1.3,4,0L376.1,1619z"/>
		<g id="XMLID_351_">
			<path id="XMLID_352_" fill="#FFFFFF" d="M365.3,1604.4c0.9,0,1.5-0.7,1.5-1.5c0-0.8-0.7-1.5-1.5-1.5c-0.9,0-1.5,0.7-1.5,1.5
				C363.8,1603.7,364.4,1604.4,365.3,1604.4L365.3,1604.4z M372.6,1606h-2.2c-0.4,0-1.1,0.2-1.5,0.4l-2.2,2v-0.7c0-1.3-1.8-1.3-2,0
				v2.4l0,0l-1.8,1.8c-0.2,0.2-0.2,0.2-0.4,0.2h-1.1c-1.1,0-1.8,0.9-1.8,1.8c0,0.9,0.7,2,1.8,2c0,0,1.5,0,2,0s1.1,0,1.5-0.7l5.9-5.5
				c0,0,0.2,0,0.4,0c0,0,0.9,0,1.5,0c0.6,0,1.5-0.7,1.8-1.8C374.1,1606.6,373.2,1606,372.6,1606L372.6,1606z"/>
		</g>
	</g>
	<path id="XMLID_349_" fill="#FFFFFF" d="M365.3,1612.4L365.3,1612.4c-0.9,0-1.5-0.7-1.5-1.5v-4c0-0.9,0.7-1.5,1.5-1.5l0,0
		c0.9,0,1.5,0.7,1.5,1.5v4C366.9,1611.5,366.2,1612.4,365.3,1612.4z"/>
</g>
<g id="XMLID_31_">
	<g id="XMLID_34_">
		<path id="XMLID_41_" fill="#666666" d="M361.7,2242.9c2.4-2.6,3.7-6.2,3.3-9.9c-0.7-5.9-5.3-10.6-11.2-11.2
			c-7.7-0.9-14.3,5.1-14.3,12.8c0,3.3,1.3,6.4,3.3,8.6l7.3,9.7c1.1,1.3,3.1,1.3,4,0L361.7,2242.9z"/>
		<g id="XMLID_39_">
			<path id="XMLID_40_" fill="#FFFFFF" d="M350.9,2228.3c0.9,0,1.5-0.7,1.5-1.5c0-0.8-0.7-1.5-1.5-1.5c-0.9,0-1.5,0.7-1.5,1.5
				C349.4,2227.6,350,2228.3,350.9,2228.3L350.9,2228.3z M358.2,2229.9H356c-0.4,0-1.1,0.2-1.5,0.4l-2.2,2v-0.7c0-1.3-1.8-1.3-2,0
				v2.4l0,0l-1.8,1.8c-0.2,0.2-0.2,0.2-0.4,0.2H347c-1.1,0-1.8,0.9-1.8,1.8s0.7,2,1.8,2c0,0,1.5,0,2,0s1.1,0,1.5-0.7l5.9-5.5
				c0,0,0.2,0,0.4,0c0,0,0.9,0,1.5,0s1.5-0.7,1.8-1.8C359.7,2230.5,358.8,2229.9,358.2,2229.9L358.2,2229.9z"/>
		</g>
	</g>
	<path id="XMLID_32_" fill="#FFFFFF" d="M350.9,2236.3L350.9,2236.3c-0.9,0-1.5-0.7-1.5-1.5v-4c0-0.9,0.7-1.5,1.5-1.5l0,0
		c0.9,0,1.5,0.7,1.5,1.5v4C352.5,2235.4,351.8,2236.3,350.9,2236.3z"/>
</g>
<g id="XMLID_332_">
	<path id="XMLID_335_" fill="#666666" d="M183.6,1878c2.4-2.6,3.7-6.2,3.3-9.9c-0.7-5.9-5.3-10.6-11.2-11.2
		c-7.7-0.9-14.3,5.1-14.3,12.8c0,3.3,1.3,6.4,3.3,8.6l7.3,9.7c1.1,1.3,3.1,1.3,4,0L183.6,1878z"/>
	<g id="XMLID_333_">
		<path id="XMLID_334_" fill="#FFFFFF" d="M168,1863.5c0-0.7,0.4-1.1,1.1-1.1s1.1,0.4,1.1,1.1c0,0.7-0.4,1.1-1.1,1.1
			S168,1864.1,168,1863.5L168,1863.5z M169.1,1865L169.1,1865c-0.9,0-1.5,0.2-2,0.9c-0.5,0.7-0.9,1.3-0.9,2v1.3
			c0,0.2,0.2,0.7,0.7,0.7c0.2,0,0.7-0.2,0.7-0.7v-1.3c0-0.4,0-0.9,0.4-1.1v2.9l0,0v4.8c0,0.2,0.2,0.7,0.7,0.7c0.4,0,0.4-0.2,0.4-0.7
			v-4.4h0.2v4.4c0,0.2,0.2,0.7,0.7,0.7s0.7-0.2,0.7-0.7v-4.8l0,0v-2.9c0.2,0.2,0.4,0.7,0.4,1.1v1.3c0,0.2,0.2,0.7,0.7,0.7
			c0.4,0,0.7-0.2,0.7-0.7v-1.3C172,1866.1,170.7,1865,169.1,1865L169.1,1865z M181.9,1868.8c0-0.2,0-0.2-0.2-0.4
			c-0.4-1.3-1.3-3.3-3.3-3.3s-2.9,2-3.3,3.3c0,0.2-0.2,0.4-0.2,0.4c0,0.2,0,0.7,0.2,0.7h0.2c0.2,0,0.4,0,0.4-0.2
			c0-0.2,0.2-0.4,0.2-0.7c0.4-1.1,0.9-1.8,1.3-2.2l-1.5,3.7c-0.2,0.4,0,0.9,0.7,0.9h0.4v3.3c0,0.2,0.2,0.7,0.7,0.7
			c0.4,0,0.4-0.2,0.4-0.7v-3.3h0.2v3.3c0,0.2,0.2,0.7,0.4,0.7s0.7-0.2,0.7-0.7v-3.3h0.4c0.4,0,0.9-0.4,0.7-0.9l-1.5-3.7
			c0.4,0.4,0.9,1.3,1.3,2.2c0,0.2,0.2,0.4,0.2,0.7c0,0.2,0.2,0.2,0.4,0.2h0.2C181.9,1869.4,182.1,1869.2,181.9,1868.8L181.9,1868.8z
			 M178.4,1864.6c0.7,0,1.1-0.4,1.1-1.1c0-0.7-0.4-1.1-1.1-1.1s-1.1,0.4-1.1,1.1C177.3,1864.1,177.7,1864.6,178.4,1864.6
			L178.4,1864.6z M173.5,1861.9c-0.2,0-0.2,0-0.2,0.2v12.3c0,0.2,0,0.2,0.2,0.2s0.2,0,0.2-0.2v-12.2
			C173.7,1862.2,173.7,1861.9,173.5,1861.9L173.5,1861.9z"/>
	</g>
</g>
<g id="XMLID_14_">
	<path id="XMLID_17_" fill="#666666" d="M183.6,2428.6c2.4-2.6,3.7-6.2,3.3-9.9c-0.7-5.9-5.3-10.6-11.2-11.2
		c-7.7-0.9-14.3,5.1-14.3,12.8c0,3.3,1.3,6.4,3.3,8.6l7.3,9.7c1.1,1.3,3.1,1.3,4,0L183.6,2428.6z"/>
	<g id="XMLID_15_">
		<path id="XMLID_16_" fill="#FFFFFF" d="M168,2414.1c0-0.7,0.4-1.1,1.1-1.1s1.1,0.4,1.1,1.1c0,0.7-0.4,1.1-1.1,1.1
			S168,2414.7,168,2414.1L168,2414.1z M169.1,2415.6L169.1,2415.6c-0.9,0-1.5,0.2-2,0.9s-0.9,1.3-0.9,2v1.3c0,0.2,0.2,0.7,0.7,0.7
			c0.2,0,0.7-0.2,0.7-0.7v-1.3c0-0.4,0-0.9,0.4-1.1v2.9l0,0v4.8c0,0.2,0.2,0.7,0.7,0.7c0.4,0,0.4-0.2,0.4-0.7v-4.4h0.2v4.4
			c0,0.2,0.2,0.7,0.7,0.7s0.7-0.2,0.7-0.7v-4.8l0,0v-2.9c0.2,0.2,0.4,0.7,0.4,1.1v1.3c0,0.2,0.2,0.7,0.7,0.7c0.4,0,0.7-0.2,0.7-0.7
			v-1.3C172,2416.7,170.7,2415.6,169.1,2415.6L169.1,2415.6z M181.9,2419.4c0-0.2,0-0.2-0.2-0.4c-0.4-1.3-1.3-3.3-3.3-3.3
			s-2.9,2-3.3,3.3c0,0.2-0.2,0.4-0.2,0.4c0,0.2,0,0.7,0.2,0.7h0.2c0.2,0,0.4,0,0.4-0.2s0.2-0.4,0.2-0.7c0.4-1.1,0.9-1.8,1.3-2.2
			l-1.5,3.7c-0.2,0.4,0,0.9,0.7,0.9h0.4v3.3c0,0.2,0.2,0.7,0.7,0.7c0.4,0,0.4-0.2,0.4-0.7v-3.3h0.2v3.3c0,0.2,0.2,0.7,0.4,0.7
			s0.7-0.2,0.7-0.7v-3.3h0.4c0.4,0,0.9-0.4,0.7-0.9l-1.5-3.7c0.4,0.4,0.9,1.3,1.3,2.2c0,0.2,0.2,0.4,0.2,0.7c0,0.2,0.2,0.2,0.4,0.2
			h0.2C181.9,2420,182.1,2419.8,181.9,2419.4L181.9,2419.4z M178.4,2415.2c0.7,0,1.1-0.4,1.1-1.1c0-0.7-0.4-1.1-1.1-1.1
			s-1.1,0.4-1.1,1.1C177.3,2414.7,177.7,2415.2,178.4,2415.2L178.4,2415.2z M173.5,2412.5c-0.2,0-0.2,0-0.2,0.2v12.3
			c0,0.2,0,0.2,0.2,0.2s0.2,0,0.2-0.2v-12.2C173.7,2412.8,173.7,2412.5,173.5,2412.5L173.5,2412.5z"/>
	</g>
</g>
<g>
	<g id="XMLID_330_">
		<path id="XMLID_331_" fill="#666666" d="M153.6,1850.3c2.4-2.6,3.7-6.2,3.3-9.9c-0.7-5.9-5.3-10.6-11.2-11.2
			c-7.7-0.9-14.3,5.1-14.3,12.8c0,3.3,1.3,6.4,3.3,8.6l7.3,9.7c1.1,1.3,3.1,1.3,4,0L153.6,1850.3z"/>
	</g>
	<g>
		<path fill="#FFFFFF" d="M150.5,1835.7v-0.7H138v0.7h0.7v10.6H138v0.7h12.5v-0.7h-0.7v-10.6H150.5L150.5,1835.7z M141.9,1839.7v3.3
			h-0.7v-3.3h-0.7l0.9-1.3l0.9,1.3H141.9L141.9,1839.7z M149.2,1846.3h-4.6v-10.6h4.6V1846.3L149.2,1846.3z"/>
	</g>
</g>
<g>
	<g id="XMLID_326_">
		<path id="XMLID_327_" fill="#666666" d="M398.5,1818.1c2.4-2.6,3.7-6.2,3.3-9.9c-0.7-5.9-5.3-10.6-11.2-11.2
			c-7.7-0.9-14.3,5.1-14.3,12.8c0,3.3,1.3,6.4,3.3,8.6l7.3,9.7c1.1,1.3,3.1,1.3,4,0L398.5,1818.1z"/>
	</g>
	<g>
		<path fill="#FFFFFF" d="M395.4,1803.6v-0.7h-12.5v0.7h0.7v10.6h-0.7v0.7h12.5v-0.7h-0.7v-10.6H395.4L395.4,1803.6z M386.8,1807.5
			v3.3h-0.7v-3.3h-0.7l0.9-1.3l0.9,1.3H386.8L386.8,1807.5z M394.1,1813.9h-4.6v-10.6h4.6V1813.9L394.1,1813.9z"/>
	</g>
</g>
<g>
	<g id="XMLID_5_">
		<path id="XMLID_11_" fill="#666666" d="M256,2299c2.4-2.6,3.7-6.2,3.3-9.9c-0.7-5.9-5.3-10.6-11.2-11.2
			c-7.7-0.9-14.3,5.1-14.3,12.8c0,3.3,1.3,6.4,3.3,8.6l7.3,9.7c1.1,1.3,3.1,1.3,4,0L256,2299z"/>
	</g>
	<g>
		<path fill="#FFFFFF" d="M252.9,2284.5v-0.7h-12.5v0.7h0.7v10.6h-0.7v0.7h12.5v-0.7h-0.7v-10.6H252.9L252.9,2284.5z M244.3,2288.4
			v3.3h-0.7v-3.3h-0.7l0.9-1.3l0.9,1.3H244.3L244.3,2288.4z M251.6,2294.8H247v-10.6h4.6V2294.8L251.6,2294.8z"/>
	</g>
</g>
<g>
	<g id="XMLID_18_">
		<path id="XMLID_21_" fill="#666666" d="M855.6,1811.5c2.4-2.6,3.7-6.2,3.3-9.9c-0.7-5.9-5.3-10.6-11.2-11.2
			c-7.7-0.9-14.3,5.1-14.3,12.8c0,3.3,1.3,6.4,3.3,8.6l7.3,9.7c1.1,1.3,3.1,1.3,4,0L855.6,1811.5z"/>
	</g>
	<g>
		<path fill="#FFFFFF" d="M852.5,1796.8v-0.7H840v0.7h0.7v10.6H840v0.7h12.5v-0.7h-0.7v-10.6H852.5L852.5,1796.8z M843.9,1800.8v3.3
			h-0.7v-3.3h-0.7l0.9-1.3l0.9,1.3H843.9L843.9,1800.8z M851.2,1807.4h-4.6v-10.6h4.6V1807.4L851.2,1807.4z"/>
	</g>
</g>
<g>
	<g id="XMLID_318_">
		<path id="XMLID_319_" fill="#666666" d="M885.3,1597.9c2.4-2.6,3.7-6.2,3.3-9.9c-0.7-5.9-5.3-10.6-11.2-11.2
			c-7.7-0.9-14.3,5.1-14.3,12.8c0,3.3,1.3,6.4,3.3,8.6l7.3,9.7c1.1,1.3,3.1,1.3,4,0L885.3,1597.9z"/>
	</g>
	<g>
		<path fill="#FFFFFF" d="M882.2,1583.4v-0.7h-12.5v0.7h0.7v10.6h-0.7v0.7h12.5v-0.7h-0.7v-10.6H882.2L882.2,1583.4z M873.6,1587.4
			v3.3h-0.7v-3.3h-0.7l0.9-1.3l0.9,1.3H873.6L873.6,1587.4z M880.9,1594h-4.6v-10.6h4.6V1594L880.9,1594z"/>
	</g>
</g>
<g>
	<g id="XMLID_44_">
		<path id="XMLID_45_" fill="#666666" d="M885,2160.8c2.4-2.6,3.7-6.2,3.3-9.9c-0.7-5.9-5.3-10.6-11.2-11.2
			c-7.7-0.9-14.3,5.1-14.3,12.8c0,3.3,1.3,6.4,3.3,8.6l7.3,9.7c1.1,1.3,3.1,1.3,4,0L885,2160.8z"/>
	</g>
	<g>
		<path fill="#FFFFFF" d="M881.9,2146.3v-0.7h-12.5v0.7h0.7v10.6h-0.7v0.7h12.5v-0.7h-0.7v-10.6H881.9L881.9,2146.3z M873.3,2150.3
			v3.3h-0.7v-3.3h-0.7l0.9-1.3l0.9,1.3H873.3L873.3,2150.3z M880.6,2156.9H876v-10.6h4.6V2156.9L880.6,2156.9z"/>
	</g>
</g>
<g>
	<g id="XMLID_316_">
		<path id="XMLID_317_" fill="#666666" d="M806.5,1530.9c2.4-2.6,3.7-6.2,3.3-9.9c-0.7-5.9-5.3-10.6-11.2-11.2
			c-7.7-0.9-14.3,5.1-14.3,12.8c0,3.3,1.3,6.4,3.3,8.6l7.3,9.7c1.1,1.3,3.1,1.3,4,0L806.5,1530.9z"/>
	</g>
	<g>
		<path fill="#FFFFFF" d="M803.2,1516.4v-0.7h-12.5v0.7h0.7v10.6h-0.7v0.7h12.5v-0.7h-0.7v-10.6H803.2L803.2,1516.4z M794.8,1520.4
			v3.3h-0.7v-3.3h-0.7l0.9-1.3l0.9,1.3H794.8L794.8,1520.4z M801.9,1527h-4.6v-10.6h4.6V1527L801.9,1527z"/>
	</g>
</g>
<g>
	<g id="XMLID_314_">
		<path id="XMLID_315_" fill="#666666" d="M321.2,1566.3c2.4-2.6,3.7-6.2,3.3-9.9c-0.7-5.9-5.3-10.6-11.2-11.2
			c-7.7-0.9-14.3,5.1-14.3,12.8c0,3.3,1.3,6.4,3.3,8.6l7.3,9.7c1.1,1.3,3.1,1.3,4,0L321.2,1566.3z"/>
	</g>
	<g>
		<path fill="#FFFFFF" d="M318.1,1551.8v-0.7h-12.5v0.7h0.7v10.6h-0.7v0.7h12.5v-0.7h-0.7v-10.6H318.1L318.1,1551.8z M309.5,1555.7
			v3.3h-0.7v-3.3h-0.7l0.9-1.3l0.9,1.3H309.5L309.5,1555.7z M316.8,1562.3h-4.7v-10.6h4.6L316.8,1562.3L316.8,1562.3z"/>
	</g>
</g>
<g>
	<g id="XMLID_42_">
		<path id="XMLID_43_" fill="#666666" d="M413.1,2158.9c2.4-2.6,3.7-6.2,3.3-9.9c-0.7-5.9-5.3-10.6-11.2-11.2
			c-7.7-0.9-14.3,5.1-14.3,12.8c0,3.3,1.3,6.4,3.3,8.6l7.3,9.7c1.1,1.3,3.1,1.3,4,0L413.1,2158.9z"/>
	</g>
	<g>
		<path fill="#FFFFFF" d="M410,2144.4v-0.7h-12.5v0.7h0.7v10.6h-0.7v0.7H410v-0.7h-0.7v-10.6H410L410,2144.4z M401.4,2148.3v3.3
			h-0.7v-3.3H400l0.9-1.3l0.9,1.3H401.4L401.4,2148.3z M408.7,2154.9H404v-10.6h4.6v10.6H408.7z"/>
	</g>
</g>
<g>
	<g>
		<path fill="#727171" d="M56.1,960.7v-39.1h11.5c3.4,0,6.2,0.8,8.2,2.5c2.1,1.6,3.1,3.8,3.1,6.5c0,2.2-0.6,4.1-1.8,5.7
			c-1.2,1.7-2.9,2.8-5,3.5v0.1c2.7,0.3,4.8,1.3,6.4,3s2.4,3.9,2.4,6.5c0,3.4-1.2,6.1-3.6,8.2c-2.4,2.1-5.5,3.1-9.3,3.1H56.1z
			 M61.1,926v12.3h4.6c2.4,0,4.4-0.6,5.7-1.8s2.1-2.8,2.1-4.9c0-3.7-2.5-5.5-7.4-5.5H61.1z M61.1,942.6v13.6h6.1
			c2.6,0,4.7-0.6,6.1-1.8s2.2-2.9,2.2-5.1c0-4.5-3-6.7-9.1-6.7H61.1z"/>
	</g>
</g>
<g>
	<g>
		<path fill="#727171" d="M81.1,1495.8H69.9v34.6h-5.1v-34.6H53.5v-4.5h27.6V1495.8z"/>
	</g>
</g>
<g>
	<g>
		<path fill="#727171" d="M78.7,2015.9H63.6v13.1h14v4.4h-14v17.1h-5.1v-39.1h20.2V2015.9z"/>
	</g>
</g>
<polygon fill="none" stroke="#EFEFEF" stroke-width="0.3" stroke-miterlimit="10" points="397.4,2212.6 397.4,2214.5 390.8,2214.5 
	390.8,2212.6 385.4,2212.6 385.4,2214.5 385.4,2219.2 385.4,2228.2 397.4,2228.2 397.4,2264.5 418.4,2264.5 418.4,2262.7 
	424.1,2262.7 424.1,2212.6 "/>
<rect x="425" y="2212.6" fill="none" stroke="#EFEFEF" stroke-width="0.3" stroke-miterlimit="10" width="18.9" height="51"/>
<rect x="439.4" y="2151.3" fill="none" stroke="#EFEFEF" stroke-width="0.3" stroke-miterlimit="10" width="24.3" height="40.5"/>
<rect x="444.9" y="2212.6" fill="none" stroke="#EFEFEF" stroke-width="0.3" stroke-miterlimit="10" width="18.9" height="51.9"/>
<rect x="464.8" y="2212.6" fill="none" stroke="#EFEFEF" stroke-width="0.3" stroke-miterlimit="10" width="18.3" height="51.9"/>
<rect x="484.1" y="2212.6" fill="none" stroke="#EFEFEF" stroke-width="0.3" stroke-miterlimit="10" width="19.2" height="51.9"/>
<polygon fill="none" stroke="#EFEFEF" stroke-width="0.3" stroke-miterlimit="10" points="526,2256.9 519.5,2256.9 519.5,2223.4 
	526,2223.4 526,2212.6 519.5,2212.6 519.5,2212.6 504.4,2212.6 504.4,2264.5 519.5,2264.5 519.5,2264.5 526,2264.5 "/>
<polygon fill="none" stroke="#EFEFEF" stroke-width="0.3" stroke-miterlimit="10" points="550.1,2212.6 550.1,2231.9 543,2231.9 
	543,2264.5 562.8,2264.5 562.8,2212.6 "/>
<rect x="563.8" y="2212.6" fill="none" stroke="#EFEFEF" stroke-width="0.3" stroke-miterlimit="10" width="18.9" height="51.9"/>
<rect x="583.6" y="2212.6" fill="none" stroke="#EFEFEF" stroke-width="0.3" stroke-miterlimit="10" width="19.4" height="51.9"/>
<rect x="603.9" y="2212.6" fill="none" stroke="#EFEFEF" stroke-width="0.3" stroke-miterlimit="10" width="15" height="51.9"/>
<rect x="326" y="2408.9" fill="none" stroke="#EFEFEF" stroke-width="0.3" stroke-miterlimit="10" width="19.8" height="45.3"/>
<rect x="348.1" y="2408.9" fill="none" stroke="#EFEFEF" stroke-width="0.3" stroke-miterlimit="10" width="17.3" height="45.3"/>
<rect x="366.2" y="2408.9" fill="none" stroke="#EFEFEF" stroke-width="0.3" stroke-miterlimit="10" width="17.3" height="45.3"/>
<rect x="384.5" y="2408.9" fill="none" stroke="#EFEFEF" stroke-width="0.3" stroke-miterlimit="10" width="19.8" height="45.3"/>
<rect x="405.3" y="2408.9" fill="none" stroke="#EFEFEF" stroke-width="0.3" stroke-miterlimit="10" width="18.8" height="45.3"/>
<rect x="464.6" y="2408.9" fill="none" stroke="#EFEFEF" stroke-width="0.3" stroke-miterlimit="10" width="29.4" height="45.3"/>
<rect x="548.1" y="2408.9" fill="none" stroke="#EFEFEF" stroke-width="0.3" stroke-miterlimit="10" width="33.6" height="23.6"/>
<rect x="661.9" y="2380.1" fill="none" stroke="#EFEFEF" stroke-width="0.3" stroke-miterlimit="10" width="18.9" height="52.4"/>
<rect x="681.7" y="2380.1" fill="none" stroke="#EFEFEF" stroke-width="0.3" stroke-miterlimit="10" width="17.2" height="52.4"/>
<rect x="722.3" y="2380.1" fill="none" stroke="#EFEFEF" stroke-width="0.3" stroke-miterlimit="10" width="18.9" height="52.4"/>
<rect x="761.9" y="2380.1" fill="none" stroke="#EFEFEF" stroke-width="0.3" stroke-miterlimit="10" width="18.9" height="47.2"/>
<rect x="801.6" y="2380.1" fill="none" stroke="#EFEFEF" stroke-width="0.3" stroke-miterlimit="10" width="18.9" height="52.3"/>
<rect x="848.7" y="2380.1" fill="none" stroke="#EFEFEF" stroke-width="0.3" stroke-miterlimit="10" width="36.4" height="31.1"/>
<rect x="643" y="2151.2" fill="none" stroke="#EFEFEF" stroke-width="0.3" stroke-miterlimit="10" width="19.9" height="40.6"/>
<rect x="622.7" y="2151.2" fill="none" stroke="#EFEFEF" stroke-width="0.3" stroke-miterlimit="10" width="19.4" height="40.6"/>
<rect x="601.8" y="2151.2" fill="none" stroke="#EFEFEF" stroke-width="0.3" stroke-miterlimit="10" width="18" height="40.6"/>
<rect x="583.6" y="2151.2" fill="none" stroke="#EFEFEF" stroke-width="0.3" stroke-miterlimit="10" width="17.2" height="40.6"/>
<rect x="563.8" y="2151.2" fill="none" stroke="#EFEFEF" stroke-width="0.3" stroke-miterlimit="10" width="18.9" height="40.6"/>
<rect x="543.9" y="2151.2" fill="none" stroke="#EFEFEF" stroke-width="0.3" stroke-miterlimit="10" width="18.9" height="40.6"/>
<rect x="513.7" y="2151.2" fill="none" stroke="#EFEFEF" stroke-width="0.3" stroke-miterlimit="10" width="29.3" height="40.6"/>
<polygon fill="none" stroke="#EFEFEF" stroke-width="0.3" stroke-miterlimit="10" points="397.2,2346.6 496.3,2346.6 496.3,2354.8 
	503.4,2354.8 503.4,2388.1 496.7,2388.1 496.7,2390.3 432.7,2390.3 431.6,2390.3 431.6,2388.1 425,2388.1 425,2390 408.8,2390 
	408.8,2371.6 397.2,2371.6 "/>
<polygon fill="none" stroke="#EFEFEF" stroke-width="0.3" stroke-miterlimit="10" points="458.8,2440.9 458.8,2419.7 463.7,2419.7 
	463.7,2408.9 425,2408.9 425,2419.7 430,2419.7 430,2440.9 425,2440.9 425,2454.2 463.7,2454.2 463.7,2440.9 "/>
<polygon fill="none" stroke="#EFEFEF" stroke-width="0.3" stroke-miterlimit="10" points="542.9,2408.9 524.1,2408.9 510.9,2408.9 
	494.9,2408.9 494.9,2454.2 524.1,2454.2 524.1,2432.4 542.9,2432.4 "/>
<polygon fill="none" stroke="#EFEFEF" stroke-width="0.3" stroke-miterlimit="10" points="629.4,2408.9 629.4,2411.2 624.1,2411.2 
	624.1,2432.4 660.9,2432.4 660.9,2408.9 "/>
<polygon fill="none" stroke="#EFEFEF" stroke-width="0.3" stroke-miterlimit="10" points="701.6,2380.1 701.6,2416.9 713.8,2416.9 
	713.8,2432.4 721.3,2432.4 721.3,2380.1 "/>
<polygon fill="none" stroke="#EFEFEF" stroke-width="0.3" stroke-miterlimit="10" points="751.1,2427.3 761,2427.3 761,2380.1 
	742.1,2380.1 742.1,2432.4 751.1,2432.4 "/>
<polygon fill="none" stroke="#EFEFEF" stroke-width="0.3" stroke-miterlimit="10" points="786.9,2380.1 786.9,2382 781.7,2382 
	781.7,2432.4 800.6,2432.4 800.6,2380.1 "/>
<polygon fill="none" stroke="#EFEFEF" stroke-width="0.3" stroke-miterlimit="10" points="848.7,2412.2 847.8,2412.2 847.8,2380.1 
	821.4,2380.1 821.4,2432.4 847.8,2432.4 847.8,2432.4 848.7,2432.4 "/>
<polygon fill="none" stroke="#EFEFEF" stroke-width="0.3" stroke-miterlimit="10" points="516.1,2369.7 504.3,2369.7 504.3,2356 
	507.1,2356 507.1,2348 615.6,2348 615.6,2356 623.2,2356 623.2,2371.3 543.9,2371.3 543.9,2356 545.8,2356 545.8,2355.1 542,2355.1 
	542,2356 543,2356 543,2372.3 562.5,2372.3 562.5,2390 533.3,2390 533.3,2380.5 516.1,2380.5 "/>
<polygon fill="none" stroke="#EFEFEF" stroke-width="0.3" stroke-miterlimit="10" points="307,2408.9 307,2433.4 310.4,2433.4 
	310.4,2454.2 324.9,2454.2 324.9,2408.9 "/>
<rect x="276.3" y="2408.9" fill="none" stroke="#EFEFEF" stroke-width="0.3" stroke-miterlimit="10" width="29.9" height="24.5"/>
<path fill="none" stroke="#EFEFEF" stroke-width="0.3" stroke-miterlimit="10" d="M226.8,2430.7v23.5h37.8v-46.7
	c0,0-12.6-3-17.1-5.4L226.8,2430.7z"/>
<path fill="none" stroke="#EFEFEF" stroke-width="0.3" stroke-miterlimit="10" d="M187.2,2454.2h38.7v-23.8l19-26.3l-4.4-2l1.5-2.3
	c0,0-10.3-5.8-12.8-7.6l-1.3,1.9l-17.2,24.7h-23.5L187.2,2454.2z"/>
<path fill="none" stroke="#EFEFEF" stroke-width="0.3" stroke-miterlimit="10" d="M208,2372.3c0,0,6.6,7.9,11.3,11.9
	c4.7,4,8.8,7,8.8,7l-1,2.3l-16.9,24.3l-29.6,0l0-5.6l-14.6,0l0-17.4h13.7L208,2372.3z"/>
<polygon fill="none" stroke="#EFEFEF" stroke-width="0.3" stroke-miterlimit="10" points="116.4,2349.4 186.6,2349.4 186.6,2351.3 
	195.3,2351.3 199.2,2359.3 175.4,2378.6 133.9,2378.6 133.9,2369.1 116.4,2369.1 "/>
<rect x="116.4" y="2329.6" fill="none" stroke="#EFEFEF" stroke-width="0.3" stroke-miterlimit="10" width="69.8" height="17.5"/>
<rect x="116.4" y="2310.7" fill="none" stroke="#EFEFEF" stroke-width="0.3" stroke-miterlimit="10" width="69.8" height="18"/>
<rect x="116.4" y="2231.4" fill="none" stroke="#EFEFEF" stroke-width="0.3" stroke-miterlimit="10" width="83.8" height="18.9"/>
<rect x="116.4" y="2214.7" fill="none" stroke="#EFEFEF" stroke-width="0.3" stroke-miterlimit="10" width="83.8" height="15.8"/>
<polygon fill="none" stroke="#EFEFEF" stroke-width="0.3" stroke-miterlimit="10" points="116.4,2192.8 193.4,2192.8 200.2,2211.2 
	200.2,2213.7 116.4,2213.7 "/>
<polygon fill="none" stroke="#EFEFEF" stroke-width="0.3" stroke-miterlimit="10" points="116.4,2251.3 200.3,2251.3 200.2,2259.2 
	195.1,2269.3 116.4,2269.3 "/>
<polygon fill="none" stroke="#EFEFEF" stroke-width="0.3" stroke-miterlimit="10" points="143.8,2270.1 143.8,2301.6 132.9,2301.6 
	132.9,2270.1 116.4,2270.1 116.4,2309.8 186.3,2309.8 186.3,2270.1 "/>
<polygon fill="none" stroke="#EFEFEF" stroke-width="0.3" stroke-miterlimit="10" points="133.9,2171 179.6,2171 180.7,2173.9 
	186.7,2174 193.2,2191.5 133.9,2191.8 "/>
<polygon fill="none" stroke="#EFEFEF" stroke-width="0.3" stroke-miterlimit="10" points="116.4,2132.3 171.8,2132.3 182,2161.1 
	133.9,2161.1 133.9,2151.2 116.4,2151.2 "/>
<polygon fill="none" stroke="#EFEFEF" stroke-width="0.3" stroke-miterlimit="10" points="116.4,2111.6 179.9,2111.6 185.5,2126.4 
	171.7,2131.4 116.4,2131.4 "/>
<polygon fill="none" stroke="#EFEFEF" stroke-width="0.3" stroke-miterlimit="10" points="753.4,2211.6 781.8,2211.6 781.8,2264.5 
	763.7,2264.5 "/>
<polygon fill="none" stroke="#EFEFEF" stroke-width="0.3" stroke-miterlimit="10" points="741.7,2151.2 780.8,2151.2 780.8,2199.4 
	751,2199.4 "/>
<polygon fill="none" stroke="#EFEFEF" stroke-width="0.3" stroke-miterlimit="10" points="782.7,2211.6 789.6,2211.6 789.6,2223.9 
	797.3,2223.9 797.3,2264.5 782.7,2264.5 "/>
<polygon fill="none" stroke="#EFEFEF" stroke-width="0.3" stroke-miterlimit="10" points="798.3,2223.9 811,2223.9 811,2211.6 
	821.4,2211.6 821.4,2264.5 798.3,2264.5 "/>
<rect x="822.3" y="2211.6" fill="none" stroke="#EFEFEF" stroke-width="0.3" stroke-miterlimit="10" width="18.9" height="52.3"/>
<rect x="842.1" y="2211.6" fill="none" stroke="#EFEFEF" stroke-width="0.3" stroke-miterlimit="10" width="18.9" height="52.3"/>
<path fill="none" stroke="#EFEFEF" stroke-width="0.3" stroke-miterlimit="10" d="M864.8,2264H862v-52.3h33.4v21.8
	C895.3,2250.3,881.7,2264,864.8,2264z"/>
<polygon fill="none" stroke="#EFEFEF" stroke-width="0.3" stroke-miterlimit="10" points="822.3,2151.3 822.3,2196.5 827.8,2196.5 
	827.8,2199.4 854.4,2199.4 854.4,2151.3 "/>
<rect x="855.4" y="2179.5" fill="none" stroke="#EFEFEF" stroke-width="0.3" stroke-miterlimit="10" width="30.2" height="19.9"/>
<polygon fill="none" stroke="#EFEFEF" stroke-width="0.3" stroke-miterlimit="10" points="483.6,2151.2 470.8,2151.2 470.8,2153.1 
	464.7,2153.1 464.7,2191.8 503.3,2191.8 503.3,2165.9 495.8,2165.9 495.8,2169.8 483.7,2169.8 "/>
<rect x="265.6" y="2076.7" fill="none" stroke="#EFEFEF" stroke-width="0.3" stroke-miterlimit="10" width="68.4" height="18.9"/>
<polygon fill="none" stroke="#EFEFEF" stroke-width="0.3" stroke-miterlimit="10" points="305.2,2110.7 333.9,2110.7 333.9,2096.5 
	265.6,2096.5 265.6,2116.3 305.2,2116.3 "/>
<polygon fill="none" stroke="#EFEFEF" stroke-width="0.3" stroke-miterlimit="10" points="332.1,2151.4 332.1,2145.6 334,2145.6 
	334,2130 285.8,2130 285.8,2117.3 265.6,2117.3 265.6,2130 260.8,2130 268.6,2151.2 283.7,2151.2 283.7,2151.4 "/>
<rect x="392.5" y="2071.9" fill="none" stroke="#EFEFEF" stroke-width="0.3" stroke-miterlimit="10" width="69.8" height="48"/>
<rect x="469.8" y="2071.9" fill="none" stroke="#EFEFEF" stroke-width="0.3" stroke-miterlimit="10" width="72" height="48"/>
<rect x="542.7" y="2067.2" fill="none" stroke="#EFEFEF" stroke-width="0.3" stroke-miterlimit="10" width="72" height="52.7"/>
<rect x="639.1" y="2067.2" fill="none" stroke="#EFEFEF" stroke-width="0.3" stroke-miterlimit="10" width="61" height="52.7"/>
<rect x="707.5" y="2067.2" fill="none" stroke="#EFEFEF" stroke-width="0.3" stroke-miterlimit="10" width="67.6" height="52.7"/>
<rect x="808.8" y="2067.2" fill="none" stroke="#EFEFEF" stroke-width="0.3" stroke-miterlimit="10" width="88.1" height="63.2"/>
<rect x="412.3" y="2151.2" fill="none" stroke="#EFEFEF" stroke-width="0.3" stroke-miterlimit="10" width="26" height="40.6"/>
<rect id="XMLID_36642_" x="781.7" y="2159.1" fill-rule="evenodd" fill="none" stroke="#EFEFEF" stroke-width="0.3" stroke-miterlimit="10" width="39.8" height="40.9"/>
<rect id="XMLID_2_" x="116.3" y="2430.7" fill-rule="evenodd" fill="none" stroke="#EFEFEF" stroke-width="0.3" stroke-miterlimit="10" width="31.3" height="12.3"/>
<rect x="158" y="2418.9" fill="none" stroke="#EFEFEF" stroke-width="0.3" stroke-miterlimit="10" width="28.2" height="35.3"/>
<path fill="none" stroke="#EFEFEF" stroke-width="0.3" stroke-miterlimit="10" d="M268.9,2152.2l66-0.2c0,0-8.5,10.6-14.4,19.7
	c-6.3,9.7-16.1,30.8-18.2,39.5c0,0-8.3-1.2-12.3-1.1L268.9,2152.2z"/>
<path fill="#C9CACA" d="M527.1,2457.1H113.5l0.6-347.9h68.1l43.5,119c4.1-3.4,13.9-10.2,32.4-16.3c0.7-0.2,13.9-4,27.8-4
	c0.1,0,0.1,0,0.2,0l-28.2-77.5v-56.6H348v-4.7h192v-4.7h359.8v173.1c0,0.4,0.2,11.3-7.7,20.1c-7.9,8.7-16.8,10.1-17.1,10.2
	c-0.1,0-4,0.8-9.6,0.8h-41.6v-1h-79.6v73.4h159.5v73.4h-4.7v21.3H527.1V2457.1z M117.5,2453.1h405.6v-21.7h371.8v-21.3h4.7v-65.4
	H740.1v-81.4h87.6v1h37.6c5.2,0,8.9-0.7,8.9-0.7c0.2,0,8-1.3,14.8-8.9c6.8-7.6,6.7-17.3,6.7-17.4v-169.1H544v4.7H352v4.7h-90.2v51.9
	l30,82.4l-3-0.1c-14.4-0.6-29.5,3.7-29.6,3.8c-24.2,7.9-32.9,17.2-33,17.3l-2.2,2.4l-1.1-3.1l-43.5-119.1h-61.3L117.5,2453.1z"/>
<g>
	<g id="XMLID_22_">
		<path id="XMLID_23_" fill="#666666" d="M679,2157.1c2.4-2.6,3.7-6.2,3.3-9.9c-0.7-5.9-5.3-10.6-11.2-11.2
			c-7.7-0.9-14.3,5.1-14.3,12.8c0,3.3,1.3,6.4,3.3,8.6l7.3,9.7c1.1,1.3,3.1,1.3,4,0L679,2157.1z"/>
	</g>
	<g>
		<path fill="#FFFFFF" d="M675.9,2142.5v-0.7h-12.5v0.7h0.7v10.6h-0.7v0.7h12.5v-0.7h-0.7v-10.6H675.9L675.9,2142.5z M667.3,2146.5
			v3.3h-0.7v-3.3h-0.7l0.9-1.3l0.9,1.3H667.3L667.3,2146.5z M674.6,2153.1H670v-10.6h4.6V2153.1L674.6,2153.1z"/>
	</g>
</g>
<g>
	<g id="XMLID_26_">
		<path id="XMLID_29_" fill="#666666" d="M811.2,2091.2c2.4-2.6,3.7-6.2,3.3-9.9c-0.7-5.9-5.3-10.6-11.2-11.2
			c-7.7-0.9-14.3,5.1-14.3,12.8c0,3.3,1.3,6.4,3.3,8.6l7.3,9.7c1.1,1.3,3.1,1.3,4,0L811.2,2091.2z"/>
	</g>
	<g>
		<path fill="#FFFFFF" d="M808.1,2076.6v-0.7h-12.5v0.7h0.7v10.6h-0.7v0.7h12.5v-0.7h-0.7v-10.6H808.1L808.1,2076.6z M799.5,2080.6
			v3.3h-0.7v-3.3h-0.7l0.9-1.3l0.9,1.3H799.5L799.5,2080.6z M806.8,2087.2h-4.6v-10.6h4.6V2087.2L806.8,2087.2z"/>
	</g>
</g>
</svg>
