<?xml version="1.0" encoding="utf-8"?>
<!-- Generator: Adobe Illustrator 19.0.0, SVG Export Plug-In . SVG Version: 6.00 Build 0)  -->
<svg version="1.2" baseProfile="tiny" id="图层_1"
	 xmlns="http://www.w3.org/2000/svg" xmlns:xlink="http://www.w3.org/1999/xlink" x="0px" y="0px" viewBox="188 -447.1 972 1734"
	 xml:space="preserve">
<path fill="#FFF8EE" d="M612.2,23.5h96.2V2h106v-13.7h31.9V2h229.5v-20.9h4.7v-65h-10.6v-88.4l0.5-0.6c6.4-7.2,6.4-17.1,6.4-17.3
	v-167H960.3v4.6H539.1v3.8h-90l-79.7,35.3h-62V23.1h232.1l15.4-8.4l47.7,8.2v-1.7h9.6V23.5L612.2,23.5z"/>
<rect x="307.5" y="-313.3" fill="#FFC692" width="29.6" height="39.3"/>
<rect id="XMLID_255_" x="884.4" y="-72.6" fill="#FFC692" width="19.5" height="31.2"/>
<rect id="XMLID_254_" x="904.9" y="-72.6" fill="#DFFFD2" width="18.8" height="48.9"/>
<rect id="XMLID_253_" x="924.4" y="-72.6" fill="#FFC692" width="18.8" height="48.9"/>
<rect id="XMLID_252_" x="944.2" y="-72.6" fill="#B4E1F9" width="18.8" height="48.9"/>
<rect id="XMLID_251_" x="983.2" y="-72.6" fill="#B4E1F9" width="18.8" height="33.6"/>
<polygon id="XMLID_249_" fill="#B4E1F9" points="982.4,-39.1 963.6,-39.1 963.6,-69.8 969.6,-69.8 969.6,-72.6 982.4,-72.6 "/>
<polygon fill="#B4E1F9" points="1029.2,-84.7 1027.5,-84.7 1002.8,-84.7 1002.8,-76.3 1002.8,-39.1 1027.5,-39.1 1027.5,-76.3 
	1029.2,-76.3 "/>
<polygon id="XMLID_247_" fill="#B4E1F9" points="884.4,-40.4 904.1,-40.4 904.1,-22.8 922.6,-22.8 922.6,-14.9 916.2,-14.9 
	916.2,2.8 896.6,2.8 896.6,-12.5 884.4,-12.5 "/>
<rect id="XMLID_246_" x="963.7" y="-22.8" fill="#FFC692" width="38.2" height="25.6"/>
<rect id="XMLID_245_" x="1002.8" y="-22.8" fill="#FFC692" width="27" height="25.6"/>
<rect id="XMLID_244_" x="786.9" y="-72.6" fill="#B4E1F9" width="28.2" height="32.5"/>
<rect id="XMLID_243_" x="767" y="-72.6" fill="#FFC692" width="18.9" height="32.5"/>
<rect id="XMLID_242_" x="718.9" y="-72.6" fill="#FFC692" width="28.6" height="32.5"/>
<rect id="XMLID_241_" x="650.5" y="-72.6" fill="#FFC692" width="17.6" height="42"/>
<rect id="XMLID_240_" x="631" y="-72.6" fill="#FFC692" width="18.6" height="42"/>
<rect id="XMLID_239_" x="611.2" y="-72.6" fill="#FFC692" width="18.6" height="42"/>
<polygon id="XMLID_238_" fill="#FFC692" points="766.1,-40 748.5,-40 748.5,-72.6 761,-72.6 761,-70.7 766.1,-70.7 "/>
<polygon id="XMLID_237_" fill="#FFC692" points="709.1,-72.6 669.1,-72.6 669.1,-70.7 669,-70.7 669,-30.6 688.7,-30.6 688.7,-55.5 
	709.1,-55.5 "/>
<polygon fill="#FFC692" points="596.7,-72.6 595.5,-72.6 583.8,-72.6 583.8,-57.3 595.5,-57.3 595.5,-42.8 571.3,-42.8 571.3,-30.6 
	595.5,-30.6 596.7,-30.6 610.4,-30.6 610.4,-72.6 "/>
<polygon id="XMLID_236_" fill="#FFC692" points="611.2,-29.8 611.2,-9.7 616.2,-9.7 616.2,11.3 611.2,11.3 611.2,24.2 629.9,24.2 
	629.9,-29.8 "/>
<polygon id="XMLID_235_" fill="#FFC692" points="649.5,-29.8 649.5,-9.7 644.5,-9.7 644.5,11.3 649.5,11.3 649.5,24.2 630.8,24.2 
	630.8,-29.8 "/>
<polygon id="XMLID_234_" fill="#FFC692" points="688.7,-29.8 671,-29.8 671,-29.7 650.5,-29.7 650.5,25.2 675,25.2 675,-8.8 
	688.7,-8.8 "/>
<polygon id="XMLID_233_" fill="#FFC692" points="727.9,-35.4 727.9,-39.1 689.6,-39.1 689.6,-19.4 718.8,-19.4 718.8,2.8 727.9,2.8 
	"/>
<polygon id="XMLID_232_" fill="#FFC692" points="728.8,-39.1 728.8,-21.3 733,-21.3 733,2.8 747.5,2.8 747.5,-39.1 "/>
<rect id="XMLID_231_" x="748.4" y="-39.1" fill="#DDCDBF" width="66.9" height="21.5"/>
<polygon id="XMLID_230_" fill="#FFC692" points="579.1,-29.7 610.4,-29.7 610.4,22.4 602.7,22.4 "/>
<polygon id="XMLID_229_" fill="#FFC692" points="992.5,-215.2 1001.9,-215.2 1001.9,-163.2 976.6,-163.2 976.6,-169.1 980.7,-169.1 
	980.7,-203.2 992.7,-203.2 "/>
<polygon id="XMLID_228_" fill="#FFC692" points="1002.8,-215.2 1021.5,-215.2 1021.5,-162.1 1011.6,-162.1 1011.6,-165 1002.8,-165 
	"/>
<rect id="XMLID_227_" x="1022.5" y="-215.2" fill="#FFC692" width="54.9" height="17.7"/>
<rect id="XMLID_226_" x="1022.5" y="-234.8" fill="#FFC692" width="54.9" height="18.6"/>
<rect id="XMLID_225_" x="958.2" y="-234.8" fill="#FF9388" width="63.3" height="18.6"/>
<rect id="XMLID_224_" x="958.2" y="-254.3" fill="#FF9388" width="57.3" height="18.6"/>
<polygon id="XMLID_223_" fill="#FF9388" points="1003.7,-274.8 1003.7,-260.9 994.9,-260.9 994.9,-274.8 958.2,-274.8 958.2,-255.4 
	1015.5,-255.4 1015.5,-274.8 "/>
<polygon id="XMLID_222_" fill="#FFC692" points="1077.4,-246.9 1035.5,-246.9 1035.5,-302.9 1016.4,-302.9 1016.4,-235.8 
	1035.5,-235.8 1035.5,-235.8 1077.4,-235.8 "/>
<rect id="XMLID_221_" x="958.2" y="-302.9" fill="#FFC692" width="57.3" height="27"/>
<polygon id="XMLID_220_" fill="#D7DFE2" points="988.9,-357.8 988.9,-343.5 991.9,-343.5 991.9,-315 1015.5,-315 1015.5,-357.8 "/>
<rect id="XMLID_219_" x="1016.4" y="-357.8" fill="#D7DFE2" width="20" height="54.1"/>
<rect id="XMLID_218_" x="1037.3" y="-357.8" fill="#FFDC78" stroke="#DCDDDD" stroke-width="0.235" stroke-miterlimit="10" width="19.1" height="59.7"/>
<rect id="XMLID_217_" x="1057.3" y="-357.8" fill="#FFDC78" stroke="#DCDDDD" stroke-width="0.235" stroke-miterlimit="10" width="20" height="59.7"/>
<polygon id="XMLID_216_" fill="#D7DFE2" points="921.7,-314.2 924.5,-314.2 924.5,-353.2 905,-353.2 905,-303.7 921.7,-303.7 "/>
<rect id="XMLID_215_" x="889.1" y="-353.2" fill="#D7DFE2" width="14.9" height="49.4"/>
<rect id="XMLID_214_" x="885.4" y="-309.5" fill="#FFFFFF" stroke="#DCDDDD" stroke-width="0.235" stroke-miterlimit="10" width="7.9" height="5.6"/>
<rect id="XMLID_213_" x="865.8" y="-353.2" fill="#B4E1F9" width="18.6" height="49.4"/>
<rect id="XMLID_212_" x="846.2" y="-353.2" fill="#B4E1F9" width="18.6" height="49.4"/>
<polygon id="XMLID_211_" fill="#93E2D5" points="839.5,-306.7 845.3,-306.7 845.3,-353.2 822.8,-353.2 822.8,-303.7 839.5,-303.7 
	"/>
<polygon id="XMLID_210_" fill="#D7DFE2" points="800,-326.2 800,-353.2 767.9,-353.2 767.9,-303.7 803.7,-303.7 803.7,-326.2 "/>
<rect id="XMLID_209_" x="748.4" y="-353.2" fill="#D7DFE2" width="18.6" height="49.4"/>
<rect id="XMLID_208_" x="728.8" y="-353.2" fill="#D7DFE2" width="18.6" height="49.4"/>
<rect id="XMLID_207_" x="698.9" y="-340.2" fill="#D7DFE2" width="28.9" height="36.3"/>
<rect id="XMLID_206_" x="670.1" y="-353.2" fill="#D7DFE2" width="18.6" height="49.4"/>
<polygon id="XMLID_205_" fill="#D7DFE2" points="669.1,-353.2 654.2,-353.2 654.2,-326.7 650.5,-326.7 650.5,-303.7 660.3,-303.7 
	660.3,-303.7 669.1,-303.7 "/>
<rect id="XMLID_204_" x="630.8" y="-353.2" fill="#D7DFE2" width="18.6" height="49.4"/>
<rect id="XMLID_203_" x="611.3" y="-353.2" fill="#D7DFE2" width="18.6" height="49.4"/>
<rect id="XMLID_202_" x="591.7" y="-353.2" fill="#D7DFE2" width="18.6" height="49.4"/>
<polygon id="XMLID_201_" fill="#D7DFE2" points="590.7,-353.2 577.7,-353.2 577.7,-319.8 573.1,-319.8 573.1,-303.7 584.1,-303.7 
	584.1,-303.7 590.7,-303.7 "/>
<path id="XMLID_200_" fill="#D7DFE2" d="M556.3-353.2h-18.2v4.7h-6v52l5.3,7.6c6.3-7,18.5-16.9,18.5-16.9v-0.2h0.3v-47.2
	L556.3-353.2L556.3-353.2z"/>
<polygon id="XMLID_199_" fill="#D7DFE2" points="520.9,-348.6 493.9,-348.6 493.9,-314.6 509.3,-314.6 509.3,-309.5 520.9,-309.5 
	520.9,-314.6 520.9,-314.6 "/>
<rect id="XMLID_198_" x="474.3" y="-348.6" fill="#FFC692" width="18.6" height="39.1"/>
<rect id="XMLID_197_" x="453.9" y="-348.6" fill="#FFC692" width="19.5" height="51.8"/>
<polygon id="XMLID_196_" fill="#FFC692" points="449.4,-295.9 493,-295.9 493,-274.8 461.1,-263.2 "/>
<polygon id="XMLID_195_" fill="#FFC692" points="493.9,-295.9 531.4,-295.9 536.7,-288.2 528.9,-279 526.8,-280.4 522.7,-275 
	493.9,-275 "/>
<path id="XMLID_194_" fill="#FFC692" d="M461.5-262.4l32.1-11.6h31.8c0,0-8.2,11.6-12.4,19.9l-14.9,0.2l-30.4,10.8l-3.2-8.8l0.9-0.3
	L461.5-262.4z"/>
<path id="XMLID_193_" fill="#FFC692" d="M468.2-242l29.8-11.2h14.1c0,0-5.6,10.8-11,25.6c0,0-2.6,8-3.8,14.1c0,0-13-2.8-19.9-2.6
	L468.2-242z"/>
<path id="XMLID_192_" fill="#D7DFE2" d="M649.6-275h-40.1v1.9H604v-1.9c0,0-4.7,0.3-8.5,4.2c-3.8,3.8-6,15.5-6,15.5h60.1V-275z"/>
<path id="XMLID_191_" fill="#D7DFE2" d="M649.6-254.4v18.6h-68.1c0,0,6.8-14.6,7.6-18.6H649.6z"/>
<polygon id="XMLID_190_" fill="#FFD7ED" points="696.6,-260.4 681.2,-260.4 681.2,-256.7 669.1,-256.7 669.1,-275 650.5,-275 
	650.5,-234.9 641.1,-234.9 641.1,-215.2 659.4,-215.2 659.4,-215.2 696.6,-215.2 "/>
<polygon id="XMLID_189_" fill="#FFD7ED" points="727.9,-275 703.2,-275 703.2,-272.2 697.6,-272.2 697.6,-215.2 707.2,-215.2 
	707.2,-215.2 727.9,-215.2 "/>
<rect id="XMLID_188_" x="728.8" y="-275" fill="#FFD7ED" width="18.6" height="59.7"/>
<rect id="XMLID_187_" x="748.4" y="-275" fill="#FFD7ED" width="18.6" height="59.7"/>
<rect id="XMLID_186_" x="767.9" y="-275" fill="#D7DFE2" width="18.6" height="59.7"/>
<rect id="XMLID_185_" x="787.9" y="-214.3" fill="#93E2D5" width="15.8" height="51.2"/>
<rect id="XMLID_184_" x="806.2" y="-214.3" fill="#D7DFE2" width="19.4" height="51.2"/>
<rect id="XMLID_183_" x="787.5" y="-274.8" fill="#D7DFE2" width="58.8" height="19.4"/>
<rect id="XMLID_182_" x="787.5" y="-254.4" fill="#D7DFE2" width="58.8" height="18.6"/>
<rect id="XMLID_181_" x="787.5" y="-234.9" fill="#D7DFE2" width="58.8" height="19.5"/>
<polygon id="XMLID_180_" fill="#D7DFE2" points="844.4,-176.1 844.4,-182.4 846.2,-182.4 846.2,-214.3 826.7,-214.3 826.7,-163.2 
	846.2,-163.2 846.2,-176.1 "/>
<polygon id="XMLID_179_" fill="#93E2D5" points="768,-214.3 768,-165.3 774.5,-165.3 774.5,-163.2 787,-163.2 787,-214.3 "/>
<rect id="XMLID_178_" x="748.4" y="-214.3" fill="#D7DFE2" width="18.6" height="51.2"/>
<polygon id="XMLID_177_" fill="#D7DFE2" points="734.9,-214.3 734.9,-194.8 727.9,-194.8 727.9,-163.2 747.5,-163.2 747.5,-214.3 
	"/>
<polygon id="XMLID_176_" fill="#D7DFE2" points="688.7,-214.3 669.6,-214.3 669.6,-165.3 669.6,-165.3 669.6,-163.2 683.2,-163.2 
	683.2,-165.3 688.7,-165.3 "/>
<rect id="XMLID_175_" x="650.5" y="-214.3" fill="#D7DFE2" width="18.2" height="51.2"/>
<rect id="XMLID_174_" x="631.1" y="-214.3" fill="#D7DFE2" width="18.5" height="51.2"/>
<rect id="XMLID_173_" x="611.3" y="-214.3" fill="#D7DFE2" width="18.5" height="51.2"/>
<rect id="XMLID_172_" x="591.7" y="-195.7" fill="#D7DFE2" width="18.5" height="32.5"/>
<path id="XMLID_171_" fill="#D7DFE2" d="M610.4-214.3h-41.6c0,0-8.7,12.9-13.4,17.7h55V-214.3z"/>
<path id="XMLID_170_" fill="#D7DFE2" d="M554.6-195.7h36.3v32.5h-29.8c0,0-6-11.3-8.7-13.7c0,0-6.6-8.6-7.5-8.8
	C545-185.7,554.2-194.9,554.6-195.7z"/>
<polygon id="XMLID_169_" fill="#FFC692" points="941.8,-215.2 971.6,-215.2 971.6,-204.1 963.7,-204.1 963.7,-188.7 941.7,-188.7 
	"/>
<rect id="XMLID_168_" x="946.3" y="-187.8" fill="#FFC692" width="17.4" height="24.6"/>
<polygon id="XMLID_167_" fill="#FFC692" points="923.6,-215.2 940.7,-215.2 940.7,-187.8 945.3,-187.8 945.3,-163.2 923.6,-163.2 
	"/>
<rect id="XMLID_166_" x="1022.5" y="-196.6" fill="#FFC692" width="18.6" height="34.6"/>
<path id="XMLID_165_" fill="#FFC692" d="M1077.3-196.4H1042v34.2h8.8c0,0,12.1,0,20.9-11.4C1071.9-173.7,1078.6-180.9,1077.3-196.4z
	"/>
<polygon id="XMLID_164_" fill="#FFC692" points="432,-28.9 444.1,-24.2 434.2,7.7 434.2,24.3 415.6,24.3 415.6,1.5 "/>
<path id="XMLID_163_" fill="#FFC692" d="M445.1-23.9c0,0,10.4,2.9,12.1,2.9l-4.3,25.6v19.6H435V7.8L445.1-23.9z"/>
<path id="XMLID_162_" fill="#FFC692" d="M418.3-36.6c0,0,10.8,6.8,12.9,7.2L414.6,1.3v22.9H396V-4.3L418.3-36.6z"/>
<path id="XMLID_161_" fill="#FFC692" d="M406.6-46.2c0,0,9.6,8.6,11.1,8.9L395.1-4.5v28.8h-18.6v-38.8L406.6-46.2z"/>
<polygon id="XMLID_160_" fill="#93E2D5" points="396.8,-56.4 376.3,-40 376.3,-39.1 355.5,-39.1 355.5,-17.2 369.5,-17.2 
	369.5,-11.6 375.5,-11.6 375.5,-14.8 406.1,-46.5 "/>
<path id="XMLID_159_" fill="#93E2D5" d="M306.4-79.2H375l0.9,1.8h8.4c0,0,4.7,9.7,7.1,13.1l-21.1,13.9h-46.4v-9.4h-17.4L306.4-79.2
	L306.4-79.2z"/>
<rect id="XMLID_158_" x="306.4" y="-117.4" fill="#B4E1F9" width="69" height="18.6"/>
<rect id="XMLID_157_" x="333.6" y="-157.5" fill="#93E2D5" width="41.9" height="22.8"/>
<rect id="XMLID_156_" x="321.5" y="-234.9" fill="#FFC692" width="74.1" height="18.8"/>
<rect id="XMLID_155_" x="321.5" y="-215.4" fill="#DFFFD2" width="74.1" height="18.8"/>
<polygon id="XMLID_154_" fill="#FFC692" points="388.9,-167.8 321.5,-167.8 321.5,-195.8 395.6,-195.8 395.6,-177.4 "/>
<rect id="XMLID_153_" x="306.4" y="-98" fill="#B4E1F9" width="69" height="16.4"/>
<polygon id="XMLID_152_" fill="#FFC692" points="323.7,-274 384.1,-274 395.6,-242.1 395.6,-241.3 390.8,-241.3 390.8,-235.8 
	323.7,-235.8 "/>
<polygon id="XMLID_151_" fill="#FFC692" points="378.8,-288.5 375.6,-288.6 375.6,-293.1 375.6,-294.4 375.6,-295 376.5,-295 
	369.6,-314 337.7,-314 337.6,-275 384.1,-275 "/>
<rect id="XMLID_150_" x="1057.3" y="-274.9" fill="none" stroke="#DCDDDD" stroke-width="0.2" stroke-miterlimit="10" width="12.7" height="10.7"/>
<rect id="XMLID_149_" x="1028.8" y="-51.7" fill="none" stroke="#DCDDDD" stroke-width="0.2" stroke-miterlimit="10" width="10.8" height="12.5"/>
<rect id="XMLID_148_" x="1028.8" y="-66.4" fill="none" stroke="#DCDDDD" stroke-width="0.2" stroke-miterlimit="10" width="10.8" height="12.5"/>
<rect id="XMLID_147_" x="675.9" y="-7.9" fill="#FFFFFF" stroke="#DCDDDD" stroke-width="0.235" stroke-miterlimit="10" width="11.6" height="10.7"/>
<rect id="XMLID_146_" x="571.3" y="-69.8" fill="none" stroke="#DCDDDD" stroke-width="0.2" stroke-miterlimit="10" width="11.6" height="12.5"/>
<rect id="XMLID_145_" x="571.3" y="-56.3" fill="none" stroke="#DCDDDD" stroke-width="0.2" stroke-miterlimit="10" width="11.6" height="12.5"/>
<rect id="XMLID_144_" x="323.8" y="-22.4" fill="none" stroke="#DCDDDD" stroke-width="0.2" stroke-miterlimit="10" width="13.3" height="10.7"/>
<rect id="XMLID_143_" x="400.2" y="-133.9" fill="none" stroke="#DCDDDD" stroke-width="0.2" stroke-miterlimit="10" width="12.5" height="10.7"/>
<rect id="XMLID_142_" x="847.1" y="-210.2" fill="#FFFFFF" stroke="#DCDDDD" stroke-width="0.235" stroke-miterlimit="10" width="11.3" height="13.3"/>
<rect id="XMLID_141_" x="847.1" y="-195.7" fill="#FFFFFF" stroke="#DCDDDD" stroke-width="0.235" stroke-miterlimit="10" width="11.3" height="13.6"/>
<rect id="XMLID_140_" x="979.4" y="-342.5" fill="none" stroke="#DCDDDD" stroke-width="0.2" stroke-miterlimit="10" width="11.6" height="10.7"/>
<rect id="XMLID_139_" x="347.6" y="-10.7" fill="none" stroke="#DCDDDD" stroke-width="0.2" stroke-miterlimit="10" width="28" height="35"/>
<rect id="XMLID_138_" x="494" y="-308.5" fill="none" stroke="#DCDDDD" stroke-width="0.2" stroke-miterlimit="10" width="10.7" height="11.6"/>
<polygon id="XMLID_137_" fill="#FFC692" points="498.1,4.8 526.1,4.8 533,17.2 533,24.3 498.1,24.3 "/>
<polygon id="XMLID_136_" fill="none" stroke="#DCDDDD" stroke-width="0.2" stroke-miterlimit="10" points="516,-36.7 522.4,-40.1 
	554.3,16.4 539.9,25.2 508.1,-32.2 "/>
<polygon id="XMLID_135_" fill="none" stroke="#DCDDDD" stroke-width="0.2" stroke-miterlimit="10" points="562.5,-270.3 
	547.2,-243.7 537.2,-243.2 522.9,-219.2 529.7,-215.6 545.3,-242.8 555.9,-244.3 569.3,-266.8 "/>
<polygon id="XMLID_134_" fill="none" stroke="#DCDDDD" stroke-width="0.2" stroke-miterlimit="10" points="370.7,-315 385.2,-320.3 
	406.4,-262.8 392,-257.2 "/>
<path id="XMLID_133_" fill="#C9CACA" d="M612.2,23.5h96.2V2h106v-13.7h31.9V2h229.5v-20.9h4.7v-65h-10.6v-88.4l0.5-0.6
	c6.4-7.2,6.4-17.1,6.4-17.3v-167H960.3v4.6H539.1v3.8h-90l-79.7,35.3h-62V23.1h232.1l15.4-8.4l47.7,8.2v-1.7h9.6V23.5L612.2,23.5z
	 M606.1,27.5l-50.6-8.8l-15.1,8.1H303.8v-343.6h65l79.5-35.3h87.1v-3.8h421.4v-4.6h123.3v170.4c0,0.5,0.1,10.8-6.9,19.1v83.5h10.6
	v72.1h-4.7V5.5H842.6V-8.2H818V5.5H712V27H608.7v-1.8h-2.5L606.1,27.5L606.1,27.5z"/>
<rect id="XMLID_132_" x="306.4" y="1" fill="none" stroke="#DCDDDD" stroke-width="0.2" stroke-miterlimit="10" width="30.7" height="12.1"/>
<polygon id="XMLID_110_" fill="#D7DFE2" points="580.8,-234.9 572.7,-215.2 640.2,-215.2 640.2,-234.9 "/>
<path id="XMLID_109_" fill="#FFC692" d="M459.7-30c0,0,11.6,1.8,22.1,0.8l0.8,8.7h9.4l0.1,24.3h-38L459.7-30z"/>
<path id="XMLID_108_" fill="#FFC692" d="M482.6-29.3c0,0,10.6-1,21.7-5l21.1,38h-32.5v-25.2h-9.6L482.6-29.3z"/>
<g id="XMLID_102_">
	<g id="XMLID_104_">
		<path id="XMLID_107_" fill="#666666" d="M564.1-260c2.4-2.6,3.7-6.2,3.3-9.9c-0.7-5.9-5.3-10.6-11.2-11.2
			c-7.7-0.9-14.3,5.1-14.3,12.8c0,3.3,1.3,6.4,3.3,8.6l7.3,9.7c1.1,1.3,3.1,1.3,4,0L564.1-260z"/>
		<g id="XMLID_105_">
			<path id="XMLID_106_" fill="#FFFFFF" d="M553.3-274.6c0.9,0,1.5-0.7,1.5-1.5s-0.7-1.5-1.5-1.5c-0.9,0-1.5,0.7-1.5,1.5
				S552.4-274.6,553.3-274.6L553.3-274.6z M560.6-273h-2.2c-0.4,0-1.1,0.2-1.5,0.4l-2.2,2v-0.7c0-1.3-1.8-1.3-2,0v2.4l0,0l-1.8,1.8
				c-0.2,0.2-0.2,0.2-0.4,0.2h-1.1c-1.1,0-1.8,0.9-1.8,1.8s0.7,2,1.8,2c0,0,1.5,0,2,0s1.1,0,1.5-0.7l5.9-5.5c0,0,0.2,0,0.4,0
				c0,0,0.9,0,1.5,0c0.6,0,1.5-0.7,1.8-1.8C562.1-272.4,561.2-273,560.6-273L560.6-273z"/>
		</g>
	</g>
	<path id="XMLID_103_" fill="#FFFFFF" d="M553.3-266.6L553.3-266.6c-0.9,0-1.5-0.7-1.5-1.5v-4c0-0.9,0.7-1.5,1.5-1.5l0,0
		c0.9,0,1.5,0.7,1.5,1.5v4C554.9-267.5,554.2-266.6,553.3-266.6z"/>
</g>
<g id="XMLID_96_">
	<g id="XMLID_98_">
		<path id="XMLID_101_" fill="#666666" d="M399.4-296c2.4-2.6,3.7-6.2,3.3-9.9c-0.7-5.9-5.3-10.6-11.2-11.2
			c-7.7-0.9-14.3,5.1-14.3,12.8c0,3.3,1.3,6.4,3.3,8.6l7.3,9.7c1.1,1.3,3.1,1.3,4,0L399.4-296z"/>
		<g id="XMLID_99_">
			<path id="XMLID_100_" fill="#FFFFFF" d="M388.6-310.3c0.9,0,1.5-0.7,1.5-1.5c0-0.9-0.7-1.5-1.5-1.5c-0.9,0-1.5,0.7-1.5,1.5
				S387.7-310.3,388.6-310.3L388.6-310.3z M395.9-309h-2.2c-0.4,0-1.1,0.2-1.5,0.4l-2.2,2v-0.4c0-1.3-1.8-1.3-2,0v2.4l0,0l-1.8,1.8
				c-0.2,0.2-0.2,0.2-0.4,0.2h-1.1c-1.1,0-1.8,0.9-1.8,1.8c0,0.9,0.7,2,1.8,2c0,0,1.5,0,2,0c0.4,0,1.1,0,1.5-0.7l5.9-5.5
				c0,0,0.2,0,0.4,0c0,0,0.9,0,1.5,0c0.7,0,1.5-0.7,1.8-1.8C397.4-308.3,396.6-309,395.9-309L395.9-309z"/>
		</g>
	</g>
	<path id="XMLID_97_" fill="#FFFFFF" d="M388.6-302.6L388.6-302.6c-0.9,0-1.5-0.7-1.5-1.5v-4c0-0.9,0.7-1.5,1.5-1.5l0,0
		c0.9,0,1.5,0.7,1.5,1.5v4C390.2-303.3,389.5-302.6,388.6-302.6z"/>
</g>
<g id="XMLID_90_">
	<g id="XMLID_92_">
		<path id="XMLID_95_" fill="#666666" d="M540.6-15.7c2.4-2.6,3.7-6.2,3.3-9.9c-0.7-5.9-5.3-10.6-11.2-11.2
			c-7.7-0.9-14.3,5.1-14.3,12.8c0,3.3,1.3,6.4,3.3,8.6l7.3,9.7c1.1,1.3,3.1,1.3,4,0L540.6-15.7z"/>
		<g id="XMLID_93_">
			<path id="XMLID_94_" fill="#FFFFFF" d="M529.8-30c0.9,0,1.5-0.7,1.5-1.5s-0.7-1.5-1.5-1.5c-0.9,0-1.5,0.7-1.5,1.5
				C528.3-30.7,529-30,529.8-30L529.8-30z M537.1-28.7h-2.2c-0.4,0-1.1,0.2-1.5,0.4l-2.2,2V-27c0-1.3-1.8-1.3-2,0v2.4l0,0l-1.8,1.8
				c-0.2,0.2-0.2,0.2-0.4,0.2h-1.1c-1.1,0-1.8,0.9-1.8,1.8s0.7,2,1.8,2c0,0,1.5,0,2,0c0.4,0,1.1,0,1.5-0.7l5.9-5.5c0,0,0.2,0,0.4,0
				c0,0,0.9,0,1.5,0c0.6,0,1.5-0.7,1.8-1.8C538.6-28,537.8-28.7,537.1-28.7L537.1-28.7z"/>
		</g>
	</g>
	<path id="XMLID_91_" fill="#FFFFFF" d="M529.8-22.3L529.8-22.3c-0.9,0-1.5-0.7-1.5-1.5v-4c0-0.9,0.7-1.5,1.5-1.5l0,0
		c0.9,0,1.5,0.7,1.5,1.5v4C531.4-22.9,530.7-22.3,529.8-22.3z"/>
</g>
<g id="XMLID_86_">
	<path id="XMLID_89_" fill="#666666" d="M371.6-1c2.4-2.6,3.7-6.2,3.3-9.9c-0.7-5.9-5.3-10.6-11.2-11.2C356-23,349.4-17,349.4-9.3
		c0,3.3,1.3,6.4,3.3,8.6L360,9c1.1,1.3,3.1,1.3,4,0L371.6-1z"/>
	<g id="XMLID_87_">
		<path id="XMLID_88_" fill="#FFFFFF" d="M356-15.5c0-0.7,0.4-1.1,1.1-1.1s1.1,0.4,1.1,1.1c0,0.7-0.4,1.1-1.1,1.1S356-14.9,356-15.5
			L356-15.5z M357.1-14L357.1-14c-0.9,0-1.5,0.2-2,0.9c-0.5,0.7-0.9,1.3-0.9,2v1.3c0,0.2,0.2,0.7,0.7,0.7c0.2,0,0.7-0.2,0.7-0.7
			v-1.3c0-0.4,0-0.9,0.4-1.1v2.9l0,0v4.8c0,0.2,0.2,0.7,0.7,0.7c0.4,0,0.4-0.2,0.4-0.7v-4.4h0.2v4.4c0,0.2,0.2,0.7,0.7,0.7
			s0.7-0.2,0.7-0.7v-4.8l0,0v-2.9c0.2,0.2,0.4,0.7,0.4,1.1v1.3c0,0.2,0.2,0.7,0.7,0.7c0.4,0,0.7-0.2,0.7-0.7v-1.3
			C360-12.9,358.7-14,357.1-14L357.1-14z M369.9-10.2c0-0.2,0-0.2-0.2-0.4c-0.4-1.3-1.3-3.3-3.3-3.3s-2.9,2-3.3,3.3
			c0,0.2-0.2,0.4-0.2,0.4c0,0.2,0,0.7,0.2,0.7h0.2c0.2,0,0.4,0,0.4-0.2s0.2-0.4,0.2-0.7c0.4-1.1,0.9-1.8,1.3-2.2l-1.5,3.7
			c-0.2,0.4,0,0.9,0.7,0.9h0.4v3.3c0,0.2,0.2,0.7,0.7,0.7c0.4,0,0.4-0.2,0.4-0.7V-8h0.2v3.3c0,0.2,0.2,0.7,0.4,0.7
			c0.2,0,0.7-0.2,0.7-0.7V-8h0.4c0.4,0,0.9-0.4,0.7-0.9l-1.5-3.7c0.4,0.4,0.9,1.3,1.3,2.2c0,0.2,0.2,0.4,0.2,0.7
			c0,0.2,0.2,0.2,0.4,0.2h0.2C369.9-9.6,370.1-9.8,369.9-10.2L369.9-10.2z M366.4-14.4c0.7,0,1.1-0.4,1.1-1.1c0-0.7-0.4-1.1-1.1-1.1
			s-1.1,0.4-1.1,1.1C365.3-14.9,365.7-14.4,366.4-14.4L366.4-14.4z M361.5-17.1c-0.2,0-0.2,0-0.2,0.2v12.3c0,0.2,0,0.2,0.2,0.2
			s0.2,0,0.2-0.2v-12.2C361.7-16.8,361.7-17.1,361.5-17.1L361.5-17.1z"/>
	</g>
</g>
<g>
	<g id="XMLID_84_">
		<path id="XMLID_85_" fill="#666666" d="M341.6-28.7c2.4-2.6,3.7-6.2,3.3-9.9c-0.7-5.9-5.3-10.6-11.2-11.2
			c-7.7-0.9-14.3,5.1-14.3,12.8c0,3.3,1.3,6.4,3.3,8.6l7.3,9.7c1.1,1.3,3.1,1.3,4,0L341.6-28.7z"/>
	</g>
	<g>
		<path fill="#FFFFFF" d="M338.5-43.3V-44H326v0.7h0.7v10.6H326v0.7h12.5v-0.7h-0.7v-10.6H338.5L338.5-43.3z M329.9-39.3v3.3h-0.7
			v-3.3h-0.7l0.9-1.3l0.9,1.3H329.9L329.9-39.3z M337.2-32.7h-4.6v-10.6h4.6V-32.7L337.2-32.7z"/>
	</g>
</g>
<g>
	<g id="XMLID_82_">
		<path id="XMLID_83_" fill="#666666" d="M416.3-138.3c2.4-2.6,3.7-6.2,3.3-9.9c-0.7-5.9-5.3-10.6-11.2-11.2
			c-7.7-0.9-14.3,5.1-14.3,12.8c0,3.3,1.3,6.4,3.3,8.6l7.3,9.7c1.1,1.3,3.1,1.3,4,0L416.3-138.3z"/>
	</g>
	<g>
		<path fill="#FFFFFF" d="M413.2-152.8v-0.7h-12.5v0.7h0.7v10.6h-0.7v0.7h12.5v-0.9h-0.7V-153h0.7V-152.8z M404.6-149.1v3.3h-0.7
			v-3.3h-0.7l0.9-1.3l0.9,1.3H404.6L404.6-149.1z M411.9-142.5h-4.6v-10.6h4.6V-142.5L411.9-142.5z"/>
	</g>
</g>
<g>
	<g id="XMLID_80_">
		<path id="XMLID_81_" fill="#666666" d="M586.5-60.9c2.4-2.6,3.7-6.2,3.3-9.9c-0.7-5.9-5.3-10.6-11.2-11.2
			c-7.7-0.9-14.3,5.1-14.3,12.8c0,3.3,1.3,6.4,3.3,8.6l7.3,9.7c1.1,1.3,3.1,1.3,4,0L586.5-60.9z"/>
	</g>
	<g>
		<path fill="#FFFFFF" d="M583.4-75.4v-0.7h-12.5v0.7h0.7v10.6h-0.7v0.7h12.5v-0.7h-0.7v-10.6H583.4L583.4-75.4z M574.8-71.5v3.3
			h-0.7v-3.3h-0.7l0.9-1.3l0.9,1.3H574.8L574.8-71.5z M582.1-65.1h-4.6v-10.6h4.6V-65.1L582.1-65.1z"/>
	</g>
</g>
<g>
	<g id="XMLID_78_">
		<path id="XMLID_79_" fill="#666666" d="M691.1-13.6c2.4-2.6,3.7-6.2,3.3-9.9c-0.7-5.9-5.3-10.6-11.2-11.2
			c-7.7-0.9-14.3,5.1-14.3,12.8c0,3.3,1.3,6.4,3.3,8.6l7.3,9.7c1.1,1.3,3.1,1.3,4,0L691.1-13.6z"/>
	</g>
	<g>
		<path fill="#FFFFFF" d="M688.1-28.2v-0.6h-12.5v0.7h0.7v10.6h-0.7v0.7h12.5v-0.7h-0.7v-10.6L688.1-28.2L688.1-28.2z M679.5-24.2
			v3.3h-0.7v-3.3h-0.7l0.9-1.3l0.9,1.3H679.5L679.5-24.2z M686.7-17.6h-4.6v-10.6h4.6V-17.6L686.7-17.6z"/>
	</g>
</g>
<g>
	<g id="XMLID_76_">
		<path id="XMLID_77_" fill="#666666" d="M862.2-199.1c2.4-2.6,3.7-6.2,3.3-9.9c-0.7-5.9-5.3-10.6-11.2-11.2
			c-7.7-0.9-14.3,5.1-14.3,12.8c0,3.3,1.3,6.4,3.3,8.6l7.3,9.7c1.1,1.3,3.1,1.3,4,0L862.2-199.1z"/>
	</g>
	<g>
		<path fill="#FFFFFF" d="M859.1-213.8v-0.7h-12.5v0.7h0.7v10.6h-0.7v0.7h12.5v-0.7h-0.7v-10.6H859.1L859.1-213.8z M850.5-209.8v3.3
			h-0.7v-3.3h-0.7l0.9-1.3l0.9,1.3H850.5L850.5-209.8z M857.8-203.2h-4.6v-10.6h4.6V-203.2L857.8-203.2z"/>
	</g>
</g>
<g>
	<g id="XMLID_74_">
		<path id="XMLID_75_" fill="#666666" d="M1043.6-54.9c2.4-2.6,3.7-6.2,3.3-9.9c-0.7-5.9-5.3-10.6-11.2-11.2
			c-7.7-0.9-14.3,5.1-14.3,12.8c0,3.3,1.3,6.4,3.3,8.6l7.3,9.7c1.1,1.3,3.1,1.3,4,0L1043.6-54.9z"/>
	</g>
	<g>
		<path fill="#FFFFFF" d="M1040.5-69.4v-0.7H1028v0.7h0.7v10.6h-0.7v0.7h12.5v-0.7h-0.7v-10.6H1040.5L1040.5-69.4z M1031.9-65.7v3.3
			h-0.7v-3.3h-0.7l0.9-1.3l0.9,1.3H1031.9L1031.9-65.7z M1039.2-59.1h-4.6v-10.6h4.6V-59.1L1039.2-59.1z"/>
	</g>
</g>
<g>
	<g id="XMLID_72_">
		<path id="XMLID_73_" fill="#666666" d="M1073.3-281.1c2.4-2.6,3.7-6.2,3.3-9.9c-0.7-5.9-5.3-10.6-11.2-11.2
			c-7.7-0.9-14.3,5.1-14.3,12.8c0,3.3,1.3,6.4,3.3,8.6l7.3,9.7c1.1,1.3,3.1,1.3,4,0L1073.3-281.1z"/>
	</g>
	<g>
		<path fill="#FFFFFF" d="M1070.2-295.6v-0.7h-12.5v0.7h0.7v10.6h-0.7v0.7h12.5v-0.7h-0.7v-10.6H1070.2L1070.2-295.6z M1061.6-291.6
			v3.3h-0.7v-3.3h-0.7l0.9-1.3l0.9,1.3H1061.6L1061.6-291.6z M1068.9-285h-4.6v-10.6h4.6V-285L1068.9-285z"/>
	</g>
</g>
<g>
	<g id="XMLID_37_">
		<path id="XMLID_38_" fill="#666666" d="M994.5-348.1c2.4-2.6,3.7-6.2,3.3-9.9c-0.7-5.9-5.3-10.6-11.2-11.2
			c-7.7-0.9-14.3,5.1-14.3,12.8c0,3.3,1.3,6.4,3.3,8.6l7.3,9.7c1.1,1.3,3.1,1.3,4,0L994.5-348.1z"/>
	</g>
	<g>
		<path fill="#FFFFFF" d="M991.2-362.6v-0.7h-12.5v0.7h0.7v10.6h-0.7v0.7h12.5v-0.7h-0.7v-10.6H991.2L991.2-362.6z M982.8-358.6v3.3
			h-0.7v-3.3h-0.7l0.9-1.3l0.9,1.3H982.8L982.8-358.6z M989.9-352h-4.6v-10.6h4.6V-352L989.9-352z"/>
	</g>
</g>
<g>
	<g id="XMLID_35_">
		<path id="XMLID_36_" fill="#666666" d="M509.2-312.7c2.4-2.6,3.7-6.2,3.3-9.9c-0.7-5.9-5.3-10.6-11.2-11.2
			c-7.7-0.9-14.3,5.1-14.3,12.8c0,3.3,1.3,6.4,3.3,8.6l7.3,9.7c1.1,1.3,3.1,1.3,4,0L509.2-312.7z"/>
	</g>
	<g>
		<path fill="#FFFFFF" d="M506.1-327.2v-0.7h-12.5v0.7h0.7v10.6h-0.7v0.7h12.5v-0.7h-0.7v-10.6H506.1L506.1-327.2z M497.5-323.3v3.3
			h-0.7v-3.3h-0.7l0.9-1.3l0.9,1.3H497.5L497.5-323.3z M504.8-316.7h-4.7v-10.6h4.6L504.8-316.7L504.8-316.7z"/>
	</g>
</g>
<g>
	<g>
		<g id="XMLID_30_">
			<path id="XMLID_33_" fill="#666666" d="M327.1-3.4c2.4-2.6,3.7-6.2,3.3-9.9c-0.7-5.9-5.3-10.6-11.2-11.2
				c-7.7-0.9-14.3,5.1-14.3,12.8c0,3.3,1.3,6.4,3.3,8.6l7.3,9.7c1.1,1.3,3.1,1.3,4,0L327.1-3.4z"/>
		</g>
	</g>
	<g>
		<path fill="#FFFFFF" d="M325.6-13.3c-0.2-0.2-0.2-0.2-0.4-0.4c-2.2-2-4.4-4.2-6.6-6.2c-0.2-0.2-0.4-0.4-0.7-0.4c0,0,0,0-0.2,0
			s-0.2,0-0.4,0.2c-0.7,0.4-1.1,1.1-1.8,1.5c-1.3,1.3-2.6,2.4-4,3.7c-0.7,0.4-1.1,1.1-1.8,1.5c-0.2,0.2-0.2,0.4-0.2,0.7
			c0.2,0.2,0.2,0.4,0.7,0.4c0.4,0,1.1,0,1.5,0c0.2,0,0.2,0,0.2,0.2c0,2,0,4,0,5.9c0,0.2,0,0.2,0,0.4c0.2,0.2,0.4,0.2,0.7,0.2
			c2.2,0,4.4,0,6.6,0c1.1,0,2.2,0,3.1,0c0.4,0,0.7-0.2,0.7-0.7c0-0.2,0-0.7,0-0.9c0-1.8,0-3.3,0-5.1c0-0.2,0-0.2,0-0.4
			c0-0.4-0.4-0.7-0.9-0.4c-0.2,0.2-0.2,0.4-0.2,0.7c0,1.8,0,3.5,0,5.3c0,0.2,0,0.2-0.2,0.2c-2.9,0-5.5,0-8.4,0c-0.2,0-0.2,0-0.2-0.2
			c0-2,0-4,0-6.2c0-0.4-0.2-0.7-0.7-0.7c-0.2,0-0.4,0-0.7,0h-0.2l0.2-0.2c1.8-1.8,3.5-3.3,5.5-5.1c0.4-0.4,0.2-0.4,0.7,0
			c2.2,2.2,4.4,4.2,6.6,6.4c0.2,0.2,0.4,0.2,0.7,0C325.8-12.8,325.8-13.1,325.6-13.3L325.6-13.3z M315.4-7.8c2-1.3,3.7-2.6,5.7-4.2
			l0,0h-3.3l0,0c0.9-0.9,1.5-1.5,2.4-2.4l0,0c-1.1,0-2,0-3.1,0c0,0-0.2,0-0.2,0.2c-0.7,0.9-1.1,1.5-1.8,2.4
			c-0.2,0.2-0.4,0.4-0.7,0.9h2.4C316.3-10,315.9-8.9,315.4-7.8L315.4-7.8L315.4-7.8z"/>
	</g>
</g>
<g>
	<rect id="XMLID_28_" x="393.2" y="76.6" fill="#D7DFE2" width="13.7" height="13.7"/>
	
		<text id="XMLID_27_" transform="matrix(1 0 0 1 411.291 87.1546)" fill="#231815" font-family="'FZZDXJW--GB1-0'" font-size="12px">未签署</text>
	<g id="XMLID_278_">
		<rect id="XMLID_280_" x="468.4" y="76.6" fill="#FF9388" width="13.7" height="13.7"/>
		
			<text id="XMLID_279_" transform="matrix(1 0 0 1 486.4637 87.1546)" fill="#231815" font-family="'FZZDXJW--GB1-0'" font-size="12px">超市</text>
	</g>
	
		<rect id="XMLID_25_" x="537.5" y="76.6" fill="#FFDC78" stroke="#DCDDDD" stroke-width="0.235" stroke-miterlimit="10" width="13.7" height="13.7"/>
	
		<text id="XMLID_24_" transform="matrix(1 0 0 1 555.6362 87.1546)" fill="#231815" font-family="'FZZDXJW--GB1-0'" font-size="12px">影院</text>
	<g id="XMLID_18_">
		<rect id="XMLID_20_" x="883.4" y="76.6" fill="#B4E1F9" width="13.7" height="13.7"/>
		
			<text id="XMLID_19_" transform="matrix(1 0 0 1 901.499 87.1546)" fill="#231815" font-family="'FZZDXJW--GB1-0'" font-size="12px">配套</text>
	</g>
	<rect id="XMLID_283_" x="952.6" y="76.6" fill="#DDCDBF" width="13.7" height="13.7"/>
	
		<text id="XMLID_282_" transform="matrix(1 0 0 1 970.6718 87.1546)" fill="#231815" font-family="'FZZDXJW--GB1-0'" font-size="12px">酒店</text>
	<g id="XMLID_11_">
		<rect id="XMLID_13_" x="606.7" y="76.6" fill="#79C7C4" width="13.7" height="13.7"/>
		
			<text id="XMLID_12_" transform="matrix(1 0 0 1 624.8088 87.1546)" fill="#231815" font-family="'FZZDXJW--GB1-0'" font-size="12px">百货</text>
	</g>
	<g id="XMLID_8_">
		<rect id="XMLID_10_" x="675.9" y="76.6" fill="#FFD7ED" width="13.7" height="13.7"/>
		
			<text id="XMLID_9_" transform="matrix(1 0 0 1 693.9814 87.1546)" fill="#231815" font-family="'FZZDXJW--GB1-0'" font-size="12px">服装</text>
	</g>
	<rect id="XMLID_7_" x="745.1" y="76.6" fill="#DFFFD2" width="13.7" height="13.7"/>
	
		<text id="XMLID_6_" transform="matrix(1 0 0 1 763.1542 87.1546)" fill="#231815" font-family="'FZZDXJW--GB1-0'" font-size="12px">儿童</text>
	<g id="XMLID_1_">
		<rect id="XMLID_4_" x="814.2" y="76.6" fill="#FFC692" width="13.7" height="13.7"/>
		
			<text id="XMLID_3_" transform="matrix(1 0 0 1 832.3265 87.1546)" fill="#231815" font-family="'FZZDXJW--GB1-0'" font-size="12px">餐饮</text>
	</g>
</g>
<rect id="XMLID_23_" x="439.2" y="231.3" fill="#FFFFFF" stroke="#FEF7ED" stroke-width="2.8346" stroke-miterlimit="10" width="36" height="65.4"/>
<rect id="XMLID_22_" x="478" y="231.3" fill="#FFFFFF" stroke="#FEF7ED" stroke-width="2.8346" stroke-miterlimit="10" width="31.8" height="65.4"/>
<rect id="XMLID_39_" x="512.8" y="231.3" fill="#FFFFFF" stroke="#FEF7ED" stroke-width="2.8346" stroke-miterlimit="10" width="31.8" height="65.4"/>
<rect id="XMLID_40_" x="547.9" y="231.3" fill="#FFFFFF" stroke="#FEF7ED" stroke-width="2.8346" stroke-miterlimit="10" width="30.7" height="65.4"/>
<rect id="XMLID_41_" x="581.9" y="231.3" fill="#FFFFFF" stroke="#FEF7ED" stroke-width="2.8346" stroke-miterlimit="10" width="31.7" height="65.4"/>
<rect id="XMLID_42_" x="616.8" y="231.3" fill="#FFFFFF" stroke="#FEF7ED" stroke-width="2.8346" stroke-miterlimit="10" width="31.7" height="65.4"/>
<rect id="XMLID_17_" x="687.7" y="231.3" fill="#FFFFFF" stroke="#FEF7ED" stroke-width="2.8346" stroke-miterlimit="10" width="32.9" height="65.4"/>
<rect id="XMLID_16_" x="722.2" y="231.3" fill="#FFFFFF" stroke="#FEF7ED" stroke-width="2.8346" stroke-miterlimit="10" width="32.9" height="55.5"/>
<rect id="XMLID_15_" x="757.3" y="231.3" fill="#FFFFFF" stroke="#FEF7ED" stroke-width="2.8346" stroke-miterlimit="10" width="32.9" height="55.5"/>
<polygon id="XMLID_14_" fill="#FFFFFF" stroke="#FEF7ED" stroke-width="2.8346" stroke-miterlimit="10" points="792.8,231.3 
	800.8,231.3 861.8,292.2 861.8,327.3 792.8,327.3 "/>
<rect id="XMLID_2_" x="792.8" y="331.4" fill="#FFFFFF" stroke="#FEF7ED" stroke-width="2.8346" stroke-miterlimit="10" width="69" height="36.2"/>
<rect id="XMLID_112_" x="792.8" y="369.5" fill="#FFFFFF" stroke="#FEF7ED" stroke-width="2.8346" stroke-miterlimit="10" width="69" height="33.9"/>
<rect id="XMLID_113_" x="815.3" y="405.7" fill="#FFFFFF" stroke="#FEF7ED" stroke-width="2.8346" stroke-miterlimit="10" width="46.4" height="33.9"/>
<rect id="XMLID_114_" x="815.3" y="442.8" fill="#FFFFFF" stroke="#FEF7ED" stroke-width="2.8346" stroke-miterlimit="10" width="46.4" height="32"/>
<polygon id="XMLID_111_" fill="#FFFFFF" stroke="#FEF7ED" stroke-width="2.8346" stroke-miterlimit="10" points="750.8,485.9 
	762,485.9 762,509.3 787.3,509.3 787.3,612.4 862.3,612.4 862.3,682.9 786.1,682.9 715,611.7 751.2,575.5 "/>
<rect id="XMLID_115_" x="721.2" y="403.4" fill="#FFFFFF" stroke="#FEF7ED" stroke-width="2.8346" stroke-miterlimit="10" width="37.8" height="37.5"/>
<rect id="XMLID_117_" x="685.8" y="403.4" fill="#FFFFFF" stroke="#FEF7ED" stroke-width="2.8346" stroke-miterlimit="10" width="33.3" height="37.5"/>
<polygon id="XMLID_120_" fill="#FFFFFF" stroke="#FEF7ED" stroke-width="2.8346" stroke-miterlimit="10" points="671.6,403.4 
	671.6,356 650.9,356 650.9,440.8 684.2,440.8 684.2,403.4 "/>
<rect id="XMLID_116_" x="622.3" y="385.5" fill="#FFFFFF" stroke="#FEF7ED" stroke-width="2.8346" stroke-miterlimit="10" width="27" height="55.3"/>
<rect id="XMLID_119_" x="581.6" y="385.5" fill="#FFFFFF" stroke="#FEF7ED" stroke-width="2.8346" stroke-miterlimit="10" width="39.1" height="55.3"/>
<rect id="XMLID_121_" x="545.8" y="385.5" fill="#FFFFFF" stroke="#FEF7ED" stroke-width="2.8346" stroke-miterlimit="10" width="33.3" height="55.3"/>
<rect id="XMLID_124_" x="622.3" y="331.1" fill="#FFFFFF" stroke="#FEF7ED" stroke-width="2.8346" stroke-miterlimit="10" width="27" height="52.3"/>
<rect id="XMLID_123_" x="581.6" y="331.1" fill="#FFFFFF" stroke="#FEF7ED" stroke-width="2.8346" stroke-miterlimit="10" width="39.1" height="52.3"/>
<rect id="XMLID_122_" x="545.8" y="331.1" fill="#FFFFFF" stroke="#FEF7ED" stroke-width="2.8346" stroke-miterlimit="10" width="33.3" height="52.3"/>
<rect id="XMLID_118_" x="440.2" y="385.5" fill="#FFFFFF" stroke="#FEF7ED" stroke-width="2.8346" stroke-miterlimit="10" width="35" height="55.3"/>
<rect id="XMLID_125_" x="440.2" y="331.1" fill="#FFFFFF" stroke="#FEF7ED" stroke-width="2.8346" stroke-miterlimit="10" width="33.6" height="52.3"/>
<g id="XMLID_528_">
	<g id="XMLID_530_">
		<path id="XMLID_535_" fill="#666767" d="M753.4,346.7c2.8-3,4.3-7.2,3.8-11.5c-0.8-6.9-6.2-12.3-13-13c-9-1-16.6,5.9-16.6,14.9
			c0,3.8,1.5,7.4,3.8,10l8.5,11.3c1.3,1.5,3.6,1.5,4.7,0L753.4,346.7z"/>
		<g id="XMLID_531_">
			<path id="XMLID_532_" fill="#FFFFFF" d="M740.9,330.1c1,0,1.7-0.8,1.7-1.7s-0.8-1.7-1.7-1.7c-1,0-1.7,0.8-1.7,1.7
				S739.9,330.1,740.9,330.1L740.9,330.1z M749.4,331.6h-2.6c-0.5,0-1.3,0.2-1.7,0.5l-2.6,2.3v-0.8c0-1.5-2.1-1.5-2.3,0v2.8l0,0
				l-2.1,2.1c-0.2,0.2-0.2,0.2-0.5,0.2h-1.3c-1.3,0-2.1,1-2.1,2.1s0.8,2.3,2.1,2.3c0,0,1.7,0,2.3,0c0.5,0,1.3,0,1.7-0.8l6.9-6.4
				c0,0,0.2,0,0.5,0c0,0,1,0,1.7,0s1.7-0.8,2.1-2.1C751.1,332.4,750.2,331.6,749.4,331.6L749.4,331.6z"/>
		</g>
	</g>
	<path id="XMLID_529_" fill="#FFFFFF" d="M740.9,339.1L740.9,339.1c-1,0-1.7-0.8-1.7-1.7v-4.7c0-1,0.8-1.7,1.7-1.7l0,0
		c1,0,1.7,0.8,1.7,1.7v4.7C742.7,338.4,741.9,339.1,740.9,339.1z"/>
</g>
<g id="XMLID_536_">
	<g id="XMLID_538_">
		<path id="XMLID_546_" fill="#666767" d="M834.6,491.9c2.8-3,4.3-7.2,3.8-11.5c-0.8-6.9-6.2-12.3-13-13c-9-1-16.6,5.9-16.6,14.9
			c0,3.8,1.5,7.4,3.8,10l8.5,11.3c1.3,1.5,3.6,1.5,4.7,0L834.6,491.9z"/>
		<g id="XMLID_539_">
			<path id="XMLID_540_" fill="#FFFFFF" d="M822.1,475.2c1,0,1.7-0.8,1.7-1.7s-0.8-1.7-1.7-1.7c-1,0-1.7,0.8-1.7,1.7
				C820.3,474.4,821.2,475.2,822.1,475.2L822.1,475.2z M830.6,476.8H828c-0.5,0-1.3,0.2-1.7,0.5l-2.6,2.3v-0.8c0-1.5-2.1-1.5-2.3,0
				v2.8l0,0l-2.1,2.1c-0.2,0.2-0.2,0.2-0.5,0.2h-1.3c-1.3,0-2.1,1-2.1,2.1s0.8,2.3,2.1,2.3c0,0,1.7,0,2.3,0c0.5,0,1.3,0,1.7-0.8
				l6.9-6.4c0,0,0.2,0,0.5,0c0,0,1,0,1.7,0s1.7-0.8,2.1-2.1C832.3,477.6,831.4,476.8,830.6,476.8L830.6,476.8z"/>
		</g>
	</g>
	<path id="XMLID_537_" fill="#FFFFFF" d="M822.1,484.2L822.1,484.2c-1,0-1.7-0.8-1.7-1.7v-4.7c0-1,0.8-1.7,1.7-1.7l0,0
		c1,0,1.7,0.8,1.7,1.7v4.7C823.9,483.5,823.1,484.2,822.1,484.2z"/>
</g>
<g id="XMLID_547_">
	<g id="XMLID_549_">
		<path id="XMLID_555_" fill="#666767" d="M499.6,353c2.8-3,4.3-7.2,3.8-11.5c-0.8-6.9-6.2-12.3-13-13c-9-1-16.6,5.9-16.6,14.9
			c0,3.8,1.5,7.4,3.8,10l8.5,11.3c1.3,1.5,3.6,1.5,4.7,0L499.6,353z"/>
		<g id="XMLID_551_">
			<path id="XMLID_552_" fill="#FFFFFF" d="M487,336.4c1,0,1.7-0.8,1.7-1.7s-0.8-1.7-1.7-1.7c-1,0-1.7,0.8-1.7,1.7
				S486.1,336.4,487,336.4L487,336.4z M495.5,337.9h-2.6c-0.5,0-1.3,0.2-1.7,0.5l-2.6,2.3v-0.8c0-1.5-2.1-1.5-2.3,0v2.8l0,0
				l-2.1,2.1c-0.2,0.2-0.2,0.2-0.5,0.2h-1.3c-1.3,0-2.1,1-2.1,2.1s0.8,2.3,2.1,2.3c0,0,1.7,0,2.3,0c0.5,0,1.3,0,1.7-0.8l6.9-6.4
				c0,0,0.2,0,0.5,0c0,0,1,0,1.7,0s1.7-0.8,2.1-2.1C497.2,338.7,496.3,337.9,495.5,337.9L495.5,337.9z"/>
		</g>
	</g>
	<path id="XMLID_548_" fill="#FFFFFF" d="M487,345.3L487,345.3c-1,0-1.7-0.8-1.7-1.7v-4.7c0-1,0.8-1.7,1.7-1.7l0,0
		c1,0,1.7,0.8,1.7,1.7v4.7C488.9,344.6,488.1,345.3,487,345.3z"/>
</g>
<g id="XMLID_556_">
	<g id="XMLID_558_">
		<path id="XMLID_568_" fill="#666767" d="M648.1,347.2c2.8-3,4.3-7.2,3.8-11.5c-0.8-6.9-6.2-12.3-13-13c-9-1-16.6,5.9-16.6,14.9
			c0,3.8,1.5,7.4,3.8,10l8.5,11.3c1.3,1.5,3.6,1.5,4.7,0L648.1,347.2z"/>
		<g id="XMLID_559_">
			<path id="XMLID_560_" fill="#FFFFFF" d="M635.6,330.6c1,0,1.7-0.8,1.7-1.7s-0.8-1.7-1.7-1.7c-1,0-1.7,0.8-1.7,1.7
				S634.6,330.6,635.6,330.6L635.6,330.6z M644.1,332.1h-2.6c-0.5,0-1.3,0.2-1.7,0.5l-2.6,2.3v-0.8c0-1.5-2.1-1.5-2.3,0v2.8l0,0
				l-2.1,2.1c-0.2,0.2-0.2,0.2-0.5,0.2H631c-1.3,0-2.1,1-2.1,2.1c0,1,0.8,2.3,2.1,2.3c0,0,1.7,0,2.3,0c0.5,0,1.3,0,1.7-0.8l6.9-6.4
				c0,0,0.2,0,0.5,0c0,0,1,0,1.7,0c0.7,0,1.7-0.8,2.1-2.1C645.8,332.9,644.9,332.1,644.1,332.1L644.1,332.1z"/>
		</g>
	</g>
	<path id="XMLID_557_" fill="#FFFFFF" d="M635.6,339.5L635.6,339.5c-1,0-1.7-0.8-1.7-1.7v-4.7c0-1,0.8-1.7,1.7-1.7l0,0
		c1,0,1.7,0.8,1.7,1.7v4.7C637.4,338.8,636.6,339.5,635.6,339.5z"/>
</g>
<g id="XMLID_598_">
	<path id="XMLID_611_" fill="#666767" d="M826.4,573.8c2.8-3,4.3-7.2,3.8-11.5c-0.8-6.9-6.2-12.3-13-13c-9-1-16.6,5.9-16.6,14.9
		c0,3.8,1.5,7.4,3.8,10l8.5,11.3c1.3,1.5,3.6,1.5,4.7,0L826.4,573.8z"/>
	<g id="XMLID_599_">
		<path id="XMLID_603_" fill="#FFFFFF" d="M808.3,556.9c0-0.8,0.5-1.3,1.3-1.3s1.3,0.5,1.3,1.3s-0.5,1.3-1.3,1.3
			S808.3,557.6,808.3,556.9L808.3,556.9z M809.5,558.7L809.5,558.7c-1,0-1.7,0.2-2.3,1s-1,1.5-1,2.3v1.5c0,0.2,0.2,0.8,0.8,0.8
			c0.2,0,0.8-0.2,0.8-0.8V562c0-0.5,0-1,0.5-1.3v3.4l0,0v5.6c0,0.2,0.2,0.8,0.8,0.8c0.5,0,0.5-0.2,0.5-0.8v-5.1h0.2v5.1
			c0,0.2,0.2,0.8,0.8,0.8s0.8-0.2,0.8-0.8v-5.6l0,0v-3.4c0.2,0.2,0.5,0.8,0.5,1.3v1.5c0,0.2,0.2,0.8,0.8,0.8c0.5,0,0.8-0.2,0.8-0.8
			V562C812.9,560,811.4,558.7,809.5,558.7L809.5,558.7z M824.4,563.1c0-0.2,0-0.2-0.2-0.5c-0.5-1.5-1.5-3.8-3.8-3.8
			s-3.4,2.3-3.8,3.8c0,0.2-0.2,0.5-0.2,0.5c0,0.2,0,0.8,0.2,0.8h0.2c0.2,0,0.5,0,0.5-0.2s0.2-0.5,0.2-0.8c0.5-1.3,1-2.1,1.5-2.6
			l-1.7,4.3c-0.2,0.5,0,1,0.8,1h0.5v3.8c0,0.2,0.2,0.8,0.8,0.8c0.5,0,0.5-0.2,0.5-0.8v-3.8h0.2v3.8c0,0.2,0.2,0.8,0.5,0.8
			c0.2,0,0.8-0.2,0.8-0.8v-3.8h0.5c0.5,0,1-0.5,0.8-1l-1.7-4.3c0.5,0.5,1,1.5,1.5,2.6c0,0.2,0.2,0.5,0.2,0.8c0,0.2,0.2,0.2,0.5,0.2
			h0.2C824.4,563.8,824.7,563.6,824.4,563.1L824.4,563.1z M820.4,558.2c0.8,0,1.3-0.5,1.3-1.3s-0.5-1.3-1.3-1.3s-1.3,0.5-1.3,1.3
			C819.1,557.6,819.5,558.2,820.4,558.2L820.4,558.2z M814.7,555.1c-0.2,0-0.2,0-0.2,0.2v14.3c0,0.2,0,0.2,0.2,0.2s0.2,0,0.2-0.2
			v-14.2C814.9,555.4,814.9,555.1,814.7,555.1L814.7,555.1z"/>
	</g>
</g>
<g id="XMLID_569_">
	<g id="XMLID_588_">
		<path id="XMLID_589_" fill="#666767" d="M693.4,351.7c2.8-3,4.3-7.2,3.8-11.5c-0.8-6.9-6.2-12.3-13-13c-9-1-16.6,5.9-16.6,14.9
			c0,3.8,1.5,7.4,3.8,10l8.5,11.3c1.3,1.5,3.6,1.5,4.7,0L693.4,351.7z"/>
	</g>
	<g id="XMLID_576_">
		<path id="XMLID_577_" fill="#FFFFFF" d="M689.8,334.9v-0.8h-14.5v0.8h0.8v12.3h-0.8v0.8h14.5v-0.8H689v-12.3H689.8L689.8,334.9z
			 M679.8,339.4v3.8H679v-3.8h-0.8l1-1.5l1,1.5H679.8L679.8,339.4z M688.3,346.9H683v-12.4h5.3V346.9L688.3,346.9z"/>
	</g>
</g>
<g id="XMLID_590_">
	<g id="XMLID_596_">
		<path id="XMLID_597_" fill="#666767" d="M784.7,479.4c2.8-3,4.3-7.2,3.8-11.5c-0.8-6.9-6.2-12.3-13-13c-9-1-16.6,5.9-16.6,14.9
			c0,3.8,1.5,7.4,3.8,10l8.5,11.3c1.3,1.5,3.6,1.5,4.7,0L784.7,479.4z"/>
	</g>
	<g id="XMLID_591_">
		<path id="XMLID_592_" fill="#FFFFFF" d="M781.1,462.6v-0.8h-14.5v0.8h0.8v12.3h-0.8v0.8h14.5v-0.8h-0.8v-12.3H781.1L781.1,462.6z
			 M771.1,467.1v3.8h-0.8v-3.8h-0.8l1-1.5l1,1.5H771.1L771.1,467.1z M779.6,474.6h-5.3v-12.3h5.3V474.6L779.6,474.6z"/>
	</g>
</g>
<polygon id="XMLID_127_" fill="none" stroke="#C9CACA" stroke-width="2.8346" stroke-miterlimit="10" points="436.6,227.8 
	801.4,227.8 864.4,290.8 864.4,686 786.7,686 712.4,611.8 748.5,575.7 748.5,442.8 436.6,442.8 "/>
<polygon id="XMLID_63_" fill="#FFFFFF" stroke="#FEF7ED" stroke-width="2.8346" stroke-miterlimit="10" points="579.2,812.3 
	514.3,812.3 473.2,852.1 473.2,943.1 516.2,943.1 516.2,909.6 579.2,909.6 "/>
<rect id="XMLID_62_" x="581.3" y="827.5" fill="#FFFFFF" stroke="#FEF7ED" stroke-width="2.8346" stroke-miterlimit="10" width="28.5" height="82.4"/>
<rect id="XMLID_61_" x="612" y="827.5" fill="#FFFFFF" stroke="#FEF7ED" stroke-width="2.8346" stroke-miterlimit="10" width="30.1" height="82.4"/>
<rect id="XMLID_60_" x="644.4" y="827.5" fill="#FFFFFF" stroke="#FEF7ED" stroke-width="2.8346" stroke-miterlimit="10" width="28.7" height="82.4"/>
<rect id="XMLID_59_" x="675.7" y="827.5" fill="#FFFFFF" stroke="#FEF7ED" stroke-width="2.8346" stroke-miterlimit="10" width="29.3" height="82.4"/>
<rect id="XMLID_58_" x="706.9" y="827.5" fill="#FFFFFF" stroke="#FEF7ED" stroke-width="2.8346" stroke-miterlimit="10" width="29.3" height="82.4"/>
<rect id="XMLID_57_" x="738.2" y="827.5" fill="#FFFFFF" stroke="#FEF7ED" stroke-width="2.8346" stroke-miterlimit="10" width="29.3" height="82.4"/>
<rect id="XMLID_56_" x="769.4" y="827.5" fill="#FFFFFF" stroke="#FEF7ED" stroke-width="2.8346" stroke-miterlimit="10" width="29.3" height="82.4"/>
<rect id="XMLID_55_" x="830.7" y="811.7" fill="#FFFFFF" stroke="#FEF7ED" stroke-width="2.8346" stroke-miterlimit="10" width="32.2" height="98.2"/>
<rect id="XMLID_54_" x="864.6" y="811.7" fill="#FFFFFF" stroke="#FEF7ED" stroke-width="2.8346" stroke-miterlimit="10" width="29.7" height="98.2"/>
<polygon id="XMLID_53_" fill="#FFFFFF" stroke="#FEF7ED" stroke-width="2.8346" stroke-miterlimit="10" points="896.6,811.7 
	964.3,811.7 1003.5,850.8 1003.5,942.2 957.7,942.2 957.7,900.2 896.6,900.2 "/>
<rect id="XMLID_52_" x="926.8" y="943.7" fill="#FFFFFF" stroke="#FEF7ED" stroke-width="2.8346" stroke-miterlimit="10" width="76.7" height="32.8"/>
<rect id="XMLID_51_" x="926.8" y="978.9" fill="#FFFFFF" stroke="#FEF7ED" stroke-width="2.8346" stroke-miterlimit="10" width="76.7" height="31.9"/>
<polygon id="XMLID_50_" fill="#FFFFFF" stroke="#FEF7ED" stroke-width="2.8346" stroke-miterlimit="10" points="971.7,1042.2 
	926.8,1042.2 926.8,1012.9 1003.5,1012.9 "/>
<rect id="XMLID_49_" x="864.4" y="976.6" fill="#FFFFFF" stroke="#FEF7ED" stroke-width="2.8346" stroke-miterlimit="10" width="31.2" height="50.1"/>
<rect id="XMLID_48_" x="801.2" y="942.2" fill="#FFFFFF" stroke="#FEF7ED" stroke-width="2.8346" stroke-miterlimit="10" width="29.5" height="85.9"/>
<rect id="XMLID_47_" x="766.1" y="992.5" fill="#FFFFFF" stroke="#FEF7ED" stroke-width="2.8346" stroke-miterlimit="10" width="32.3" height="49.6"/>
<rect id="XMLID_46_" x="704.8" y="992.5" fill="#FFFFFF" stroke="#FEF7ED" stroke-width="2.8346" stroke-miterlimit="10" width="59.2" height="49.6"/>
<rect id="XMLID_45_" x="730" y="939.9" fill="#FFFFFF" stroke="#FEF7ED" stroke-width="2.8346" stroke-miterlimit="10" width="68.7" height="50.7"/>
<path id="XMLID_44_" fill="#FFFFFF" stroke="#FEF7ED" stroke-width="2.8346" stroke-miterlimit="10" d="M642.2,1008.1
	c0,0,42.3,0.4,42.3,0s0-42.8,0-42.8h17.8v76.8h-60.1L642.2,1008.1L642.2,1008.1z"/>
<polygon id="XMLID_43_" fill="#FFFFFF" stroke="#FEF7ED" stroke-width="2.8346" stroke-miterlimit="10" points="605.4,992.5 
	630.1,992.5 630.1,1008.6 640.2,1008.6 640.2,1042.1 605.4,1042.1 "/>
<path id="XMLID_34_" fill="#FFFFFF" stroke="#FEF7ED" stroke-width="2.8346" stroke-miterlimit="10" d="M544.7,993.4h34.5
	c0,0-0.9,48.6,0,48.6s-34.5,0-34.5,0V993.4z"/>
<rect id="XMLID_32_" x="544.7" y="942" fill="#FFFFFF" stroke="#FEF7ED" stroke-width="2.8346" stroke-miterlimit="10" width="34.6" height="49.2"/>
<polygon id="XMLID_31_" fill="#FFFFFF" stroke="#FEF7ED" stroke-width="2.8346" stroke-miterlimit="10" points="473.2,1195.6 
	515.9,1195.6 515.9,1133.1 581.6,1133.1 581.6,1200.5 518.2,1263.8 473.2,1263.8 "/>
<g id="XMLID_652_">
	<g id="XMLID_654_">
		<path id="XMLID_659_" fill="#666767" d="M870.2,954.1c2.5-2.7,3.9-6.5,3.5-10.4c-0.7-6.2-5.6-11.2-11.8-11.8
			c-8.1-0.9-15.1,5.4-15.1,13.5c0,3.5,1.4,6.7,3.5,9.1l7.7,10.2c1.2,1.4,3.3,1.4,4.2,0L870.2,954.1z"/>
		<g id="XMLID_655_">
			<path id="XMLID_656_" fill="#FFFFFF" d="M858.8,939c0.9,0,1.6-0.7,1.6-1.6c0-0.9-0.7-1.6-1.6-1.6c-0.9,0-1.6,0.7-1.6,1.6
				S857.9,939,858.8,939L858.8,939z M866.5,940.4h-2.3c-0.4,0-1.2,0.2-1.6,0.4l-2.3,2.1v-0.7c0-1.4-1.9-1.4-2.1,0v2.5l0,0l-1.9,1.9
				c-0.2,0.2-0.2,0.2-0.4,0.2h-1.2c-1.2,0-1.9,0.9-1.9,1.9c0,0.9,0.7,2.1,1.9,2.1c0,0,1.6,0,2.1,0c0.4,0,1.2,0,1.6-0.7l6.2-5.8
				c0,0,0.2,0,0.4,0c0,0,0.9,0,1.6,0s1.6-0.7,1.9-1.9C868.1,941.2,867.2,940.4,866.5,940.4L866.5,940.4z"/>
		</g>
	</g>
	<path id="XMLID_653_" fill="#FFFFFF" d="M858.8,947.2L858.8,947.2c-0.9,0-1.6-0.7-1.6-1.6v-4.2c0-0.9,0.7-1.6,1.6-1.6l0,0
		c0.9,0,1.6,0.7,1.6,1.6v4.2C860.5,946.5,859.7,947.2,858.8,947.2z"/>
</g>
<g id="XMLID_660_">
	<g id="XMLID_662_">
		<path id="XMLID_667_" fill="#666767" d="M725.7,961.4c2.5-2.7,3.9-6.5,3.5-10.4c-0.7-6.2-5.6-11.2-11.8-11.8
			c-8.1-0.9-15.1,5.4-15.1,13.5c0,3.5,1.4,6.7,3.5,9.1l7.7,10.2c1.2,1.4,3.3,1.4,4.2,0L725.7,961.4z"/>
		<g id="XMLID_663_">
			<path id="XMLID_664_" fill="#FFFFFF" d="M714.3,946.3c0.9,0,1.6-0.7,1.6-1.6c0-0.9-0.7-1.6-1.6-1.6c-0.9,0-1.6,0.7-1.6,1.6
				S713.5,946.3,714.3,946.3L714.3,946.3z M722,947.7h-2.3c-0.4,0-1.2,0.2-1.6,0.4l-2.3,2.1v-0.7c0-1.4-1.9-1.4-2.1,0v2.5l0,0
				l-1.9,1.9c-0.2,0.2-0.2,0.2-0.4,0.2h-1.2c-1.2,0-1.9,0.9-1.9,1.9c0,0.9,0.7,2.1,1.9,2.1c0,0,1.6,0,2.1,0c0.4,0,1.2,0,1.6-0.7
				l6.2-5.8c0,0,0.2,0,0.4,0c0,0,0.9,0,1.6,0s1.6-0.7,1.9-1.9C723.6,948.4,722.8,947.7,722,947.7L722,947.7z"/>
		</g>
	</g>
	<path id="XMLID_661_" fill="#FFFFFF" d="M714.3,954.4L714.3,954.4c-0.9,0-1.6-0.7-1.6-1.6v-4.2c0-0.9,0.7-1.6,1.6-1.6l0,0
		c0.9,0,1.6,0.7,1.6,1.6v4.2C716,953.8,715.3,954.4,714.3,954.4z"/>
</g>
<g id="XMLID_668_">
	<g id="XMLID_670_">
		<path id="XMLID_675_" fill="#666767" d="M605.5,968.7c2.5-2.7,3.9-6.5,3.5-10.4c-0.7-6.2-5.6-11.2-11.8-11.8
			c-8.1-0.9-15.1,5.4-15.1,13.5c0,3.5,1.4,6.7,3.5,9.1l7.7,10.2c1.2,1.4,3.3,1.4,4.2,0L605.5,968.7z"/>
		<g id="XMLID_671_">
			<path id="XMLID_672_" fill="#FFFFFF" d="M594.1,953.6c0.9,0,1.6-0.7,1.6-1.6c0-0.9-0.7-1.6-1.6-1.6c-0.9,0-1.6,0.7-1.6,1.6
				S593.2,953.6,594.1,953.6L594.1,953.6z M601.8,954.9h-2.3c-0.4,0-1.2,0.2-1.6,0.4l-2.3,2.1v-0.7c0-1.4-1.9-1.4-2.1,0v2.5l0,0
				l-1.9,1.9c-0.2,0.2-0.2,0.2-0.4,0.2H590c-1.2,0-1.9,0.9-1.9,1.9c0,0.9,0.7,2.1,1.9,2.1c0,0,1.6,0,2.1,0c0.4,0,1.2,0,1.6-0.7
				l6.2-5.8c0,0,0.2,0,0.4,0c0,0,0.9,0,1.6,0s1.6-0.7,1.9-1.9C603.4,955.7,602.5,954.9,601.8,954.9L601.8,954.9z"/>
		</g>
	</g>
	<path id="XMLID_669_" fill="#FFFFFF" d="M594.1,961.7L594.1,961.7c-0.9,0-1.6-0.7-1.6-1.6v-4.2c0-0.9,0.7-1.6,1.6-1.6l0,0
		c0.9,0,1.6,0.7,1.6,1.6v4.2C595.8,961.1,595,961.7,594.1,961.7z"/>
</g>
<g id="XMLID_676_">
	<g id="XMLID_678_">
		<path id="XMLID_683_" fill="#666767" d="M554.6,1080.4c2.5-2.7,3.9-6.5,3.5-10.4c-0.7-6.2-5.6-11.2-11.8-11.8
			c-8.1-0.9-15.1,5.4-15.1,13.5c0,3.5,1.4,6.7,3.5,9.1l7.7,10.2c1.2,1.4,3.3,1.4,4.2,0L554.6,1080.4z"/>
		<g id="XMLID_679_">
			<path id="XMLID_680_" fill="#FFFFFF" d="M543.2,1065.3c0.9,0,1.6-0.7,1.6-1.6c0-0.9-0.7-1.6-1.6-1.6s-1.6,0.7-1.6,1.6
				S542.4,1065.3,543.2,1065.3L543.2,1065.3z M550.9,1066.7h-2.3c-0.4,0-1.2,0.2-1.6,0.4l-2.3,2.1v-0.7c0-1.4-1.9-1.4-2.1,0v2.5l0,0
				l-1.9,1.9c-0.2,0.2-0.2,0.2-0.4,0.2h-1.2c-1.2,0-1.9,0.9-1.9,1.9s0.7,2.1,1.9,2.1c0,0,1.6,0,2.1,0c0.4,0,1.2,0,1.6-0.7l6.2-5.8
				c0,0,0.2,0,0.4,0c0,0,0.9,0,1.6,0c0.6,0,1.6-0.7,1.9-1.9C552.5,1067.5,551.6,1066.7,550.9,1066.7L550.9,1066.7z"/>
		</g>
	</g>
	<path id="XMLID_677_" fill="#FFFFFF" d="M543.2,1073.5L543.2,1073.5c-0.9,0-1.6-0.7-1.6-1.6v-4.2c0-0.9,0.7-1.6,1.6-1.6l0,0
		c0.9,0,1.6,0.7,1.6,1.6v4.2C544.9,1072.8,544.1,1073.5,543.2,1073.5z"/>
</g>
<g id="XMLID_684_">
	<path id="XMLID_692_" fill="#666767" d="M502.8,984.3c2.5-2.7,3.9-6.5,3.5-10.4c-0.7-6.2-5.6-11.2-11.8-11.8
		c-8.1-0.9-15.1,5.4-15.1,13.5c0,3.5,1.4,6.7,3.5,9.1l7.7,10.2c1.2,1.4,3.3,1.4,4.2,0L502.8,984.3z"/>
	<g id="XMLID_685_">
		<path id="XMLID_686_" fill="#FFFFFF" d="M486.3,969c0-0.7,0.4-1.2,1.2-1.2c0.7,0,1.2,0.4,1.2,1.2s-0.4,1.2-1.2,1.2
			C486.8,970.2,486.3,969.7,486.3,969L486.3,969z M487.5,970.6L487.5,970.6c-0.9,0-1.6,0.2-2.1,0.9s-0.9,1.4-0.9,2.1v1.4
			c0,0.2,0.2,0.7,0.7,0.7c0.2,0,0.7-0.2,0.7-0.7v-1.3c0-0.4,0-0.9,0.4-1.2v3.1l0,0v5.1c0,0.2,0.2,0.7,0.7,0.7c0.4,0,0.4-0.2,0.4-0.7
			v-4.6h0.2v4.6c0,0.2,0.2,0.7,0.7,0.7s0.7-0.2,0.7-0.7v-5.1l0,0v-3.1c0.2,0.2,0.4,0.7,0.4,1.2v1.4c0,0.2,0.2,0.7,0.7,0.7
			c0.4,0,0.7-0.2,0.7-0.7v-1.4C490.6,971.8,489.2,970.6,487.5,970.6L487.5,970.6z M501,974.6c0-0.2,0-0.2-0.2-0.4
			c-0.4-1.4-1.4-3.5-3.5-3.5s-3.1,2.1-3.5,3.5c0,0.2-0.2,0.4-0.2,0.4c0,0.2,0,0.7,0.2,0.7h0.2c0.2,0,0.4,0,0.4-0.2s0.2-0.4,0.2-0.7
			c0.4-1.2,0.9-1.9,1.4-2.3l-1.6,3.9c-0.2,0.4,0,0.9,0.7,0.9h0.4v3.5c0,0.2,0.2,0.7,0.7,0.7c0.4,0,0.4-0.2,0.4-0.7v-3.5h0.2v3.5
			c0,0.2,0.2,0.7,0.4,0.7c0.2,0,0.7-0.2,0.7-0.7v-3.5h0.4c0.4,0,0.9-0.4,0.7-0.9l-1.6-3.9c0.4,0.4,0.9,1.4,1.4,2.3
			c0,0.2,0.2,0.4,0.2,0.7c0,0.2,0.2,0.2,0.4,0.2h0.2C501,975.2,501.2,975,501,974.6L501,974.6z M497.3,970.2c0.7,0,1.2-0.4,1.2-1.2
			s-0.4-1.2-1.2-1.2c-0.7,0-1.2,0.4-1.2,1.2C496.1,969.7,496.6,970.2,497.3,970.2L497.3,970.2z M492.1,967.3c-0.2,0-0.2,0-0.2,0.2
			v13c0,0.2,0,0.2,0.2,0.2s0.2,0,0.2-0.2v-12.8C492.4,967.7,492.4,967.3,492.1,967.3L492.1,967.3z"/>
	</g>
</g>
<g id="XMLID_693_">
	<g id="XMLID_699_">
		<path id="XMLID_700_" fill="#666767" d="M501,1072.1c2.5-2.7,3.9-6.5,3.5-10.4c-0.7-6.2-5.6-11.2-11.8-11.8
			c-8.1-0.9-15.1,5.4-15.1,13.5c0,3.5,1.4,6.7,3.5,9.1l7.7,10.2c1.2,1.4,3.3,1.4,4.2,0L501,1072.1z"/>
	</g>
	<g id="XMLID_694_">
		<path id="XMLID_695_" fill="#FFFFFF" d="M497.7,1056.8v-0.7h-13.2v0.7h0.7v11.2h-0.7v0.7h13.2v-0.7H497v-11.2H497.7L497.7,1056.8z
			 M488.7,1060.9v3.5H488v-3.5h-0.7l0.9-1.4l0.9,1.4H488.7L488.7,1060.9z M496.4,1067.7h-4.9v-11.2h4.9V1067.7L496.4,1067.7z"/>
	</g>
</g>
<g id="XMLID_701_">
	<g id="XMLID_707_">
		<path id="XMLID_708_" fill="#666767" d="M685.6,957.4c2.5-2.7,3.9-6.5,3.5-10.4c-0.7-6.2-5.6-11.2-11.8-11.8
			c-8.1-0.9-15.1,5.4-15.1,13.5c0,3.5,1.4,6.7,3.5,9.1l7.7,10.2c1.2,1.4,3.3,1.4,4.2,0L685.6,957.4z"/>
	</g>
	<g id="XMLID_702_">
		<path id="XMLID_703_" fill="#FFFFFF" d="M682.3,942.1v-0.7h-13.2v0.7h0.7v11.2h-0.7v0.7h13.2v-0.7h-0.7v-11.2H682.3L682.3,942.1z
			 M673.3,946.2v3.5h-0.7v-3.5h-0.7l0.9-1.4l0.9,1.4H673.3L673.3,946.2z M681,952.9h-4.9v-11.2h4.9V952.9L681,952.9z"/>
	</g>
</g>
<polygon id="XMLID_29_" fill="none" stroke="#C9CACA" stroke-width="2.8346" stroke-miterlimit="10" points="471.1,851.1 513,810.6 
	581.3,810.6 581.3,825.2 828.8,825.2 828.8,810.1 964.7,810.1 1005,850.3 1005,1013.6 972.4,1043.5 581.7,1043.5 581.7,1202.3 
	518.2,1265.8 471.8,1265.8 "/>
<text transform="matrix(1 0 0 1 283.2691 -365.4602)" font-family="'MicrosoftYaHei-Bold'" font-size="31.0656px">1F</text>
<text transform="matrix(1 0 0 1 283.2691 227.8309)" font-family="'MicrosoftYaHei-Bold'" font-size="31.0656px">2F</text>
<text transform="matrix(1 0 0 1 283.2691 811.6763)" font-family="'MicrosoftYaHei-Bold'" font-size="31.0656px">3F</text>
</svg>
